<?xml version="1.0" encoding="UTF-8"?>
<!DOCTYPE svg PUBLIC "-//W3C//DTD SVG 1.1//EN" "http://www.w3.org/Graphics/SVG/1.1/DTD/svg11.dtd">
<!-- Creator: CorelDRAW -->
<svg xmlns="http://www.w3.org/2000/svg" xml:space="preserve" version="1.1" style="shape-rendering:geometricPrecision; text-rendering:geometricPrecision; image-rendering:optimizeQuality; fill-rule:evenodd; clip-rule:evenodd"
viewBox="0 0 99.04 74.28"
 xmlns:xlink="http://www.w3.org/1999/xlink"
 xmlns:xodm="http://www.corel.com/coreldraw/odm/2003">
 <defs>
  <style type="text/css">
   <![CDATA[
    .fil0 {fill:none}
    .fil2 {fill:black}
    .fil1 {fill:#E10092}
   ]]>
  </style>
 </defs>
 <g id="Layer_x0020_1">
  <metadata id="CorelCorpID_0Corel-Layer"/>
  <g id="_2641435145264">
   <g>
    <g>
     <g>
      <g>
       <rect class="fil0" x="0" y="-0" width="99.04" height="74.28"/>
      </g>
     </g>
    </g>
   </g>
   <g>
    <path class="fil1" d="M52.28 42.5c0,0.07 0.02,0.09 0.08,0.1l3.51 0c0.06,-0 0.08,-0.03 0.08,-0.1l0 -2.46c1.85,0 3.13,0.17 4.62,-0.95 0.24,-0.18 0.6,-0.6 0.77,-0.83 0.78,-1.13 0.95,-2.93 0.38,-4.25 -0.3,-0.69 -0.82,-1.27 -1.45,-1.65 -0.66,-0.39 -1.56,-0.67 -2.41,-0.67l-5.59 0 0 10.81zm3.67 -7.71l1.36 0c1.45,0 1.45,2.35 0,2.35l-1.36 0 0 -2.35z"/>
    <path class="fil2" d="M16.79 42.59c0.03,-0.14 0.08,-0.26 0.13,-0.38l2.14 -6.05c0.01,0.15 0.09,0.28 0.13,0.41l2.14 6.02 4.16 0c-0.01,-0.2 -1.82,-4.86 -2.06,-5.46l-1.55 -4.08c-0.08,-0.23 -0.18,-0.45 -0.26,-0.67l-0.26 -0.7 -4.61 0c-0.04,0.16 -0.09,0.27 -0.15,0.43 -0.76,2.13 -1.67,4.39 -2.44,6.52l-1.46 3.89c-0,0.04 0.01,0.06 0.05,0.08l4.03 0z"/>
    <path class="fil1" d="M76.53 42.59c0.12,-0.01 0.23,-0.52 0.33,-0.76 0.06,-0.14 0.09,-0.26 0.14,-0.41 0.35,-1.05 0.79,-2.2 1.14,-3.25l0.73 -2.05c0.05,0.21 0.13,0.38 0.2,0.6l1.48 4.18c0.07,0.21 0.14,0.38 0.21,0.59l0.31 0.87c0.04,0.13 0.07,0.19 0.15,0.22l4.11 0c-0.01,-0.14 -0.42,-1.12 -0.5,-1.36l-0.52 -1.36c-0.09,-0.22 -0.17,-0.45 -0.26,-0.67l-2.88 -7.52 -4.61 0c-0.01,0.16 -1.39,3.75 -1.52,4.11l-2.44 6.52c-0.02,0.05 -0.05,0.12 -0.06,0.17 -0.02,0.07 -0.05,0.11 0.05,0.12l3.95 0z"/>
    <path class="fil2" d="M38.04 42.59c0.13,-0.01 0.28,-0.53 0.34,-0.74 0.28,-0.85 1.89,-5.31 1.99,-5.72l2.3 6.46 4.14 0c0.08,-0.08 -0.07,-0.36 -0.44,-1.3 -0.12,-0.3 -0.23,-0.59 -0.34,-0.88l-0.67 -1.76c-0.66,-1.64 -1.34,-3.52 -2,-5.2l-0.66 -1.77 -4.61 0c-0.03,0.13 -0.07,0.2 -0.12,0.33 -0.05,0.13 -0.08,0.22 -0.13,0.35l-0.76 2.03c-0.64,1.8 -1.38,3.65 -2.03,5.46l-0.63 1.68c-0.08,0.2 -0.37,0.95 -0.37,1.07l3.97 0z"/>
    <path class="fil1" d="M91.92 31.68l-1.33 2.57c-0.09,0.19 -0.18,0.33 -0.28,0.52 -0.1,0.19 -0.19,0.34 -0.28,0.52 -0.07,0.13 -0.18,0.43 -0.29,0.51 -0.06,-0.25 -1.25,-2.57 -1.46,-3.08 -0.14,-0.32 -0.42,-0.73 -0.49,-1.05l-4.13 0c0.43,0.82 0.82,1.68 1.23,2.49 0.86,1.71 1.75,3.59 2.61,5.26 0.08,0.15 0.1,0.15 0.1,0.38l-0 2.78 3.87 0c0.18,-0.03 0.1,-0.24 0.1,-0.8l0 -1.79c0,-0.61 -0,-0.38 0.27,-0.92l4.02 -7.4 -3.94 0z"/>
    <path class="fil2" d="M24.6 34.85l3.07 0 0 7.65c0,0.07 0.02,0.09 0.08,0.1l4.22 0c0.06,-0 0.08,-0.03 0.08,-0.1l0 -7.65 3.04 0 0 -3.17 -10.49 0 0 3.17z"/>
    <path class="fil2" d="M3.18 34.85l3.07 0 0 7.65c0,0.07 0.02,0.09 0.08,0.1l4.22 0c0.06,-0 0.08,-0.03 0.08,-0.1l0 -7.65 3.04 0 0 -3.17 -10.49 0 0 3.17z"/>
    <path class="fil1" d="M63.35 42.5c0,0.07 0.02,0.09 0.08,0.1l7.86 0c0.06,-0 0.08,-0.03 0.08,-0.1l0 -3.01c0,-0.07 -0.02,-0.1 -0.1,-0.1l-4.06 0 0 -7.71 -3.87 0 0 10.81z"/>
   </g>
  </g>
 </g>
</svg>
