<?xml version="1.0" encoding="UTF-8"?>
<!DOCTYPE svg PUBLIC "-//W3C//DTD SVG 1.1//EN" "http://www.w3.org/Graphics/SVG/1.1/DTD/svg11.dtd">
<!-- Creator: CorelDRAW -->
<svg xmlns="http://www.w3.org/2000/svg" xml:space="preserve" version="1.1" style="shape-rendering:geometricPrecision; text-rendering:geometricPrecision; image-rendering:optimizeQuality; fill-rule:evenodd; clip-rule:evenodd"
viewBox="0 0 71.19 53.39"
 xmlns:xlink="http://www.w3.org/1999/xlink"
 xmlns:xodm="http://www.corel.com/coreldraw/odm/2003">
 <defs>
  <style type="text/css">
   <![CDATA[
    .fil0 {fill:none}
    .fil2 {fill:#002EDC;fill-rule:nonzero}
    .fil1 {fill:#ED1F48;fill-rule:nonzero}
   ]]>
  </style>
 </defs>
 <g id="Layer_x0020_1">
  <metadata id="CorelCorpID_0Corel-Layer"/>
  <g id="_2649232920416">
   <rect class="fil0" x="0" y="-0" width="71.19" height="53.39"/>
   <g>
    <path class="fil1" d="M8.41 29.64c0.56,-0.01 0.79,-0.72 0.36,-1.08 -0.06,-0.05 -0.11,-0.09 -0.17,-0.14 -2.18,-1.76 -2.82,-1.34 -5,-0.59 -0.08,0.03 -0.07,0.14 0.01,0.16 0.65,0.14 1.29,0.56 2.1,1.43l2.48 0.22c0.07,0.01 0.15,0.01 0.22,0.01z"/>
    <path class="fil1" d="M18.64 20.86l-8.34 8.35c-0.61,0.61 -1.46,0.92 -2.32,0.84l-2 -0.17 2.07 2c1.08,1.05 2.85,0.86 3.69,-0.4l7.02 -10.52c0.05,-0.08 -0.06,-0.17 -0.12,-0.1z"/>
    <path class="fil2" d="M43.99 30.32c0,-0.15 -0.03,-0.29 -0.09,-0.42 -0.06,-0.12 -0.14,-0.22 -0.24,-0.3 -0.1,-0.07 -0.22,-0.11 -0.37,-0.11l-1.89 0c-0.03,0 -0.06,0.03 -0.06,0.06l0 1.49c0,0.03 0.03,0.06 0.06,0.06l1.82 0c0.15,0 0.29,-0.03 0.41,-0.1 0.12,-0.07 0.21,-0.16 0.28,-0.28 0.07,-0.12 0.1,-0.25 0.1,-0.41zm-2.66 -3.63l0 1.41c0,0.03 0.03,0.06 0.06,0.06l1.6 0c0.13,0 0.25,-0.03 0.36,-0.08 0.11,-0.06 0.2,-0.14 0.27,-0.25 0.07,-0.11 0.1,-0.25 0.1,-0.43 0,-0.17 -0.03,-0.32 -0.09,-0.43 -0.06,-0.11 -0.14,-0.2 -0.23,-0.25 -0.1,-0.06 -0.21,-0.09 -0.34,-0.09l-1.67 0c-0.03,0 -0.06,0.03 -0.06,0.06zm4.39 3.97c0,0.43 -0.11,0.78 -0.33,1.06 -0.22,0.28 -0.52,0.49 -0.91,0.63 -0.38,0.14 -0.8,0.21 -1.27,0.21l-3.53 0c-0.03,0 -0.06,-0.03 -0.06,-0.06l0 -7.27c0,-0.03 0.03,-0.06 0.06,-0.06l4.04 0c0.35,0 0.65,0.09 0.9,0.28 0.25,0.18 0.45,0.42 0.58,0.71 0.14,0.29 0.2,0.59 0.2,0.91 0,0.34 -0.09,0.67 -0.27,0.99 -0.16,0.29 -0.39,0.52 -0.7,0.67 -0.03,0.02 -0.03,0.07 0.01,0.08 0.38,0.13 0.68,0.34 0.9,0.63 0.25,0.32 0.37,0.73 0.37,1.22z"/>
    <path class="fil2" d="M50.2 29.68l-0.8 -2.66c-0.01,-0.04 -0.07,-0.04 -0.08,0l-0.81 2.66c-0.01,0.03 0.01,0.06 0.04,0.06l1.61 0c0.03,0 0.05,-0.03 0.04,-0.06zm-1.73 -4.51l1.74 0c0.03,0 0.05,0.02 0.06,0.04l2.52 7.27c0.01,0.04 -0.02,0.08 -0.06,0.08l-1.57 0c-0.05,0 -0.1,-0.04 -0.12,-0.09l-0.46 -1.52c-0.01,-0.03 -0.03,-0.04 -0.06,-0.04l-2.35 0c-0.03,0 -0.05,0.02 -0.06,0.04l-0.46 1.52c-0.02,0.05 -0.06,0.09 -0.12,0.09l-1.57 0c-0.04,0 -0.07,-0.04 -0.06,-0.08l2.51 -7.27c0.01,-0.03 0.03,-0.04 0.06,-0.04z"/>
    <path class="fil2" d="M55.19 28.44l0 4.05c0,0.03 -0.03,0.06 -0.06,0.06l-1.58 0c-0.03,0 -0.06,-0.03 -0.06,-0.06l0 -7.27c0,-0.03 0.03,-0.06 0.06,-0.06l1.23 0c0.04,0 0.07,0.02 0.1,0.05l3.31 4.2c0.03,0.03 0.08,0.01 0.08,-0.03l0 -4.16c0,-0.03 0.03,-0.06 0.06,-0.06l1.57 0c0.03,0 0.06,0.03 0.06,0.06l0 7.27c0,0.03 -0.03,0.06 -0.06,0.06l-1.26 0c-0.04,0 -0.07,-0.02 -0.1,-0.05l-3.27 -4.09c-0.03,-0.03 -0.08,-0.01 -0.08,0.03z"/>
    <path class="fil2" d="M61.19 32.49l0 -7.27c0,-0.03 0.03,-0.06 0.06,-0.06l1.58 0c0.03,0 0.06,0.03 0.06,0.06l0 3c0,0.04 0.05,0.06 0.08,0.03l2.61 -3.07c0.01,-0.01 0.03,-0.02 0.05,-0.02l1.75 0c0.05,0 0.08,0.06 0.05,0.1l-2.65 3.16c-0.02,0.02 -0.02,0.05 -0,0.08l2.86 3.95c0.03,0.04 0,0.1 -0.05,0.1l-1.8 0c-0.02,0 -0.04,-0.01 -0.05,-0.03l-2.02 -2.88c-0.02,-0.03 -0.07,-0.04 -0.1,-0.01l-0.7 0.72c-0.01,0.01 -0.02,0.03 -0.02,0.04l0 2.09c0,0.03 -0.03,0.06 -0.06,0.06l-1.58 0c-0.03,0 -0.06,-0.03 -0.06,-0.06z"/>
    <path class="fil2" d="M19.07 25.24l1.5 3.09c0.02,0.05 0.09,0.05 0.11,0l1.53 -3.09c0.02,-0.04 0.06,-0.07 0.11,-0.07l1.68 0c0.05,0 0.08,0.05 0.05,0.09l-2.58 4.78 0 2.46c0,0.03 -0.03,0.06 -0.06,0.06l-1.57 0c-0.03,0 -0.06,-0.03 -0.06,-0.06l0 -2.48 -2.54 -4.76c-0.02,-0.04 0.01,-0.09 0.05,-0.09l1.66 0c0.05,0 0.09,0.03 0.11,0.07z"/>
    <path class="fil2" d="M26.32 29.49l2.79 0c0.03,0 0.06,-0.03 0.06,-0.06l0 -1.26c0,-0.03 -0.03,-0.06 -0.06,-0.06l-2.79 0c-0.03,0 -0.06,-0.03 -0.06,-0.06l0 -1.31c0,-0.03 0.03,-0.06 0.06,-0.06l3.15 0c0.03,0 0.05,-0.02 0.06,-0.04l0.54 -1.37c0.02,-0.04 -0.01,-0.09 -0.06,-0.09l-5.4 0c-0.03,0 -0.06,0.03 -0.06,0.06l0 7.27c0,0.03 0.03,0.06 0.06,0.06l5.13 0c0.03,0 0.06,-0.03 0.06,-0.06l0 -1.37c0,-0.03 -0.03,-0.06 -0.06,-0.06l-3.42 0c-0.03,0 -0.06,-0.03 -0.06,-0.06l0 -1.45c0,-0.03 0.03,-0.06 0.06,-0.06z"/>
    <path class="fil2" d="M35.03 28.56c-0.34,-0.17 -0.75,-0.33 -1.22,-0.46 -0.33,-0.09 -0.61,-0.17 -0.84,-0.24 -0.23,-0.07 -0.4,-0.16 -0.52,-0.26 -0.12,-0.1 -0.19,-0.31 -0.17,-0.46 0.02,-0.16 0.1,-0.29 0.23,-0.38 0.16,-0.1 0.38,-0.15 0.67,-0.15l2.46 -0.01c0.03,0 0.06,-0.03 0.06,-0.06l0 -1.37c0,-0.03 -0.03,-0.06 -0.06,-0.06l-2.41 0c-0.49,0 -0.94,0.09 -1.35,0.27 -0.41,0.18 -0.74,0.45 -0.99,0.8 -0.24,0.35 -0.37,0.79 -0.37,1.31 0,0.36 0.07,0.67 0.21,0.91 0.14,0.25 0.36,0.45 0.65,0.62 0.29,0.17 0.66,0.32 1.11,0.47 0.34,0.1 0.65,0.19 0.91,0.27 0.27,0.09 0.48,0.18 0.63,0.29 0.15,0.11 0.23,0.25 0.23,0.43 0,0.17 -0.07,0.3 -0.22,0.4 -0.15,0.1 -0.38,0.15 -0.69,0.15l-2.59 0.04c-0.03,0 -0.06,0.03 -0.06,0.06l0 1.37c0,0.03 0.03,0.06 0.06,0.06l2.21 0 0.36 0c0.35,0 0.69,-0.04 1.02,-0.12 0.33,-0.08 0.62,-0.21 0.89,-0.38 0.27,-0.17 0.47,-0.41 0.62,-0.7 0.15,-0.29 0.22,-0.64 0.22,-1.04 0,-0.45 -0.09,-0.81 -0.27,-1.09 -0.18,-0.27 -0.45,-0.5 -0.79,-0.67z"/>
   </g>
  </g>
 </g>
</svg>
