<?xml version="1.0" encoding="UTF-8"?>
<!DOCTYPE svg PUBLIC "-//W3C//DTD SVG 1.1//EN" "http://www.w3.org/Graphics/SVG/1.1/DTD/svg11.dtd">
<!-- Creator: CorelDRAW -->
<svg xmlns="http://www.w3.org/2000/svg" xml:space="preserve" version="1.1" style="shape-rendering:geometricPrecision; text-rendering:geometricPrecision; image-rendering:optimizeQuality; fill-rule:evenodd; clip-rule:evenodd"
viewBox="0 0 103.58 77.68"
 xmlns:xlink="http://www.w3.org/1999/xlink"
 xmlns:xodm="http://www.corel.com/coreldraw/odm/2003">
 <defs>
  <style type="text/css">
   <![CDATA[
    .fil0 {fill:none}
    .fil2 {fill:#008F4F;fill-rule:nonzero}
    .fil1 {fill:#314186;fill-rule:nonzero}
    .fil4 {fill:#4B4B4D;fill-rule:nonzero}
    .fil3 {fill:#F47D35;fill-rule:nonzero}
   ]]>
  </style>
 </defs>
 <g id="Layer_x0020_1">
  <metadata id="CorelCorpID_0Corel-Layer"/>
  <g id="_2641997641712">
   <g>
    <g>
     <rect class="fil0" x="-0" y="-0" width="103.58" height="77.68"/>
    </g>
   </g>
   <g>
    <path class="fil1" d="M76.78 40.53c-0.14,0.5 -0.42,0.91 -0.86,1.25 -0.44,0.34 -0.9,0.5 -1.39,0.5l-17.59 0c-0.49,0 -0.86,-0.17 -1.1,-0.5 -0.24,-0.34 -0.3,-0.75 -0.16,-1.25l3.91 -14.13c0.14,-0.5 0.42,-0.92 0.85,-1.26 0.43,-0.35 0.89,-0.52 1.38,-0.52l17.59 0c0.51,0 0.89,0.17 1.13,0.51 0.24,0.34 0.29,0.76 0.15,1.27l-0.46 1.67 -17.59 0 -2.98 10.76 17.59 0 -0.47 1.7z"/>
    <polygon class="fil1" points="82.29,42.28 78.78,42.28 83.66,24.64 87.17,24.64 "/>
    <polygon class="fil1" points="34.04,24.61 30.53,24.61 27.33,36.17 13.22,24.64 8.32,42.32 11.83,42.32 15.01,30.84 29.13,42.37 "/>
    <path class="fil1" d="M56.96 25.12c-0.24,-0.34 -0.62,-0.51 -1.13,-0.51l-19.31 0 -0.96 3.45 17.57 -0 -1.02 3.69 -17.56 0.01 -2.92 10.51 3.51 0 1.96 -7.06 15.8 0c0.49,0 0.96,-0.17 1.39,-0.5 0.44,-0.34 0.72,-0.75 0.86,-1.25l1.96 -7.06c0.14,-0.51 0.09,-0.94 -0.15,-1.27z"/>
    <polygon class="fil2" points="93.82,24.63 98.27,33.47 88.92,42.31 "/>
    <polygon class="fil3" points="90.71,24.63 95.15,33.47 85.8,42.31 "/>
    <path class="fil4" d="M85.23 44.4c0.16,-0.11 0.33,-0.16 0.5,-0.16 0.16,0 0.34,0.04 0.52,0.12 0.09,0.04 0.18,0.09 0.27,0.14 0.2,0.13 0.39,0.29 0.55,0.47l0.04 0.05c0.03,0.04 0.07,0.08 0.1,0.13l-2.27 0c-0.01,-0.02 -0.02,-0.05 -0.02,-0.06 -0,-0.01 -0,-0.02 -0,-0.02 -0.02,-0.1 -0.01,-0.18 0.01,-0.26 0.05,-0.17 0.15,-0.31 0.31,-0.41zm8.84 1.04l-0.24 0.9 -1.14 0 0.24 -0.9 1.14 0zm-6.37 -0.28c-0.07,-0.09 -0.14,-0.19 -0.22,-0.29 -0.23,-0.26 -0.45,-0.46 -0.67,-0.59 -0.16,-0.1 -0.32,-0.18 -0.48,-0.24 -0.16,-0.06 -0.34,-0.08 -0.51,-0.08 -0.32,0 -0.6,0.07 -0.83,0.2 -0.23,0.14 -0.39,0.34 -0.46,0.6 -0.03,0.1 -0.03,0.2 -0.01,0.3l0 0.01c0,0.02 0.01,0.05 0.02,0.08l-0.59 0 -0.08 0.28 0.58 0 -0.69 2.54 0.41 0 0.69 -2.54 2.74 0 -0.17 0.65 -1.67 0c-0.05,0 -0.11,0.01 -0.19,0.03 -0.07,0.02 -0.12,0.08 -0.14,0.17 -0.01,0.04 -0,0.12 0.18,0.35l0.03 0.03c0.16,0.19 0.26,0.28 0.34,0.28 0.12,0 0.17,-0.05 0.19,-0.1l0.13 -0.48 1.06 0 -0.43 1.61 0.41 0 0.69 -2.54 1.47 0 -0.22 0.81 -0.37 0c-0.02,0.01 -0.05,0.01 -0.07,0.01 -0.09,0.02 -0.14,0.06 -0.16,0.12 -0.03,0.11 0.04,0.24 0.2,0.42 0.17,0.18 0.3,0.25 0.41,0.25 0.09,0 0.16,-0.04 0.21,-0.13 0.01,-0.03 0.02,-0.07 0.03,-0.11l0.37 -1.36 0.98 0 -0.68 2.54 0.41 0 0.69 -2.54 1.22 0 -0.24 0.9 -0.27 0c-0.04,0 -0.08,0.01 -0.12,0.02 -0.07,0.02 -0.11,0.06 -0.13,0.14 -0.02,0.08 0.04,0.2 0.2,0.38 0.15,0.17 0.27,0.26 0.38,0.26 0.08,0 0.14,-0.03 0.17,-0.08 0.02,-0.02 0.02,-0.04 0.02,-0.07l0.1 -0.36 1.14 0 -0.36 1.35 0.41 0 0.69 -2.54 0.54 0 0.08 -0.28 -7.39 0z"/>
    <path class="fil4" d="M69.05 45.44l0.77 0 -0.26 0.97 -0.99 0 0.22 -0.81c0.04,-0.15 0.01,-0.27 -0.1,-0.37 -0.11,-0.09 -0.26,-0.14 -0.44,-0.14 -0.18,0 -0.35,0.04 -0.51,0.13 -0.15,0.09 -0.25,0.22 -0.3,0.39 -0.01,0.05 -0.01,0.11 0.01,0.2l0 0.01c0.01,0.02 0.01,0.05 0.03,0.08l0.01 0.02 0.38 0 -0.04 -0.05c-0.01,-0.02 -0.02,-0.03 -0.02,-0.04 -0.02,-0.07 -0.02,-0.14 -0,-0.21 0.02,-0.08 0.06,-0.14 0.13,-0.19 0.06,-0.05 0.14,-0.07 0.22,-0.07 0.11,0 0.18,0.02 0.21,0.06 0.03,0.04 0.04,0.09 0.02,0.15l-0.23 0.85 -0.38 0c-0.03,0 -0.07,0.01 -0.13,0.04 -0.06,0.03 -0.09,0.07 -0.11,0.12 -0.01,0.05 -0,0.14 0.25,0.4 0.24,0.26 0.34,0.29 0.39,0.29 0.06,0 0.13,-0.01 0.17,-0.07 0.02,-0.04 0.03,-0.08 0.03,-0.11l0.1 -0.37 0.99 0 -0.32 1.19c-0.13,0.02 -0.25,0.06 -0.37,0.12 -0.06,0.03 -0.14,0.08 -0.23,0.13l-0.04 0.02 0.26 0.24 0.02 -0.02c0.06,-0.06 0.1,-0.09 0.13,-0.11 0.11,-0.07 0.21,-0.1 0.31,-0.1 0.11,0 0.19,0.03 0.24,0.08 0.05,0.06 0.07,0.12 0.04,0.21 -0.03,0.13 -0.12,0.23 -0.26,0.31 -0.14,0.08 -0.3,0.11 -0.47,0.11 -0.28,0 -0.53,-0.09 -0.74,-0.27 -0.07,-0.06 -0.15,-0.15 -0.25,-0.27l-0.02 -0.03 -0.33 0.27 0.02 0.03c0.12,0.13 0.23,0.23 0.33,0.29 0.29,0.18 0.61,0.27 0.97,0.27 0.29,0 0.55,-0.06 0.76,-0.19 0.22,-0.13 0.35,-0.29 0.41,-0.5 0.05,-0.17 0.01,-0.32 -0.11,-0.45 -0.08,-0.08 -0.17,-0.13 -0.28,-0.16l0.67 -2.48 1.48 0 -0.22 0.81 -0.37 0 -0.03 0.01c-0.02,0 -0.03,0.01 -0.04,0.01 -0.06,0.01 -0.14,0.04 -0.16,0.12 -0.03,0.11 0.04,0.24 0.2,0.42 0.17,0.17 0.3,0.25 0.42,0.25 0.09,0 0.16,-0.05 0.2,-0.13 0.02,-0.03 0.03,-0.07 0.03,-0.12l0.37 -1.36 0.98 0 -0.69 2.54 0.41 0 0.69 -2.54 2.79 0 -0.15 0.55 -1.36 0c-0.2,0 -0.36,0.05 -0.51,0.14 -0.15,0.09 -0.25,0.23 -0.29,0.41 -0.08,0.3 0.01,0.63 0.27,0.98 0.09,0.12 0.23,0.26 0.4,0.41l0.02 0.02 0.32 -0.22 -0.03 -0.03c-0.15,-0.14 -0.28,-0.26 -0.36,-0.37 -0.22,-0.28 -0.29,-0.55 -0.22,-0.8 0.02,-0.09 0.07,-0.16 0.15,-0.2 0.09,-0.05 0.21,-0.07 0.36,-0.07l1.18 0 -0.46 1.73 0.41 0 0.69 -2.54 0.98 0 -0.69 2.54 0.41 0 0.68 -2.54 2.74 0 -0.18 0.65 -1.67 0c-0.05,0 -0.12,0.01 -0.18,0.03 -0.07,0.02 -0.12,0.08 -0.14,0.17 -0.01,0.04 -0,0.13 0.2,0.38 0.17,0.2 0.26,0.28 0.34,0.28 0.09,0 0.16,-0.03 0.19,-0.1l0.13 -0.48 1.06 0 -0.43 1.61 0.41 0 0.69 -2.54 0.55 0 0.08 -0.28 -12.75 0 -0.08 0.28z"/>
    <path class="fil4" d="M59.34 45.44l-0.14 0.52 -0.88 0c-0.2,0 -0.39,0.05 -0.56,0.14 -0.04,0.02 -0.08,0.04 -0.11,0.07 -0.09,0.06 -0.16,0.13 -0.21,0.2l-0.81 -0.93 2.71 0zm-2.06 1.21c0,0 -0,0 -0,0.01l-0 0.02c-0.01,0.03 -0.01,0.06 -0.02,0.08 -0.03,0.02 -0.07,0.03 -0.1,0.05 -0.15,0.06 -0.29,0.09 -0.44,0.09l-0.01 0c-0.17,-0 -0.29,-0.04 -0.37,-0.11 -0.08,-0.07 -0.1,-0.17 -0.07,-0.3l0.21 -0.77 0.82 0.94zm2.61 -2.26c0.09,-0.07 0.21,-0.11 0.36,-0.11 0.1,0 0.2,0.02 0.28,0.05 0.17,0.07 0.29,0.2 0.38,0.4 0.04,0.09 0.08,0.24 0.11,0.42l-1.26 0c-0.02,-0.03 -0.03,-0.06 -0.04,-0.09l-0.01 -0.01c-0.03,-0.12 -0.03,-0.24 -0,-0.36 0.03,-0.13 0.1,-0.23 0.18,-0.3zm3.37 1.19c-0.01,-0.04 -0.03,-0.08 -0.06,-0.14l1.05 0 -0.35 1.3c-0.1,0.09 -0.18,0.15 -0.24,0.19 -0.22,0.13 -0.43,0.2 -0.66,0.2l-0.02 0c-0.28,0 -0.46,-0.09 -0.56,-0.26 -0.02,-0.05 -0.04,-0.12 -0.06,-0.23 0.16,-0.03 0.29,-0.07 0.39,-0.1 0.29,-0.12 0.48,-0.31 0.54,-0.57 0.03,-0.12 0.02,-0.25 -0.03,-0.38zm-2 -0.97c-0.13,-0.3 -0.35,-0.49 -0.65,-0.56 -0.09,-0.02 -0.19,-0.03 -0.31,-0.03 -0.24,0 -0.45,0.05 -0.62,0.16 -0.18,0.11 -0.29,0.27 -0.35,0.5 -0.03,0.11 -0.02,0.24 0.02,0.38 0.01,0.03 0.02,0.06 0.03,0.1l-7.67 0 -0.08 0.28 1.67 0 -0.17 0.64c-0.02,0.09 -0.08,0.17 -0.17,0.23 -0.09,0.06 -0.2,0.09 -0.34,0.09 -0.08,0 -0.15,-0.01 -0.22,-0.04 -0.08,-0.03 -0.09,-0.06 -0.09,-0.07l-0.18 -0.4 -0.37 0.19 0.02 0.04c0.04,0.09 0.07,0.17 0.1,0.23 0.08,0.19 0.19,0.39 0.33,0.63 0.09,0.16 0.21,0.33 0.35,0.53 0.11,0.15 0.23,0.3 0.37,0.47l0.02 0.02 0.36 -0.23 -0.03 -0.03c-0.04,-0.04 -0.07,-0.08 -0.1,-0.12 -0.03,-0.03 -0.06,-0.07 -0.08,-0.09 -0.06,-0.07 -0.11,-0.14 -0.15,-0.19 -0.06,-0.08 -0.12,-0.14 -0.16,-0.2l-0.28 -0.48c0.16,0.03 0.35,0 0.54,-0.07 0.15,-0.05 0.26,-0.12 0.34,-0.2 0.08,-0.08 0.13,-0.17 0.15,-0.26l0.18 -0.68 1.07 0 -0.69 2.54 0.41 0 0.69 -2.54 0.92 0 -0.27 1.01c-0.06,0.21 -0,0.39 0.16,0.52 0.16,0.13 0.37,0.2 0.64,0.2 0.11,0 0.23,-0.02 0.36,-0.05 0.08,-0.02 0.16,-0.05 0.25,-0.08 0.02,0.13 0.08,0.25 0.17,0.36 0.02,0.03 0.05,0.06 0.07,0.08l0.01 0.01c0.15,0.14 0.34,0.24 0.55,0.3l-1.38 0.95 0.6 0 1.03 -0.81 0.55 0.81 0.49 0 -0.71 -0.92c0.18,-0.02 0.34,-0.06 0.48,-0.12 0.2,-0.08 0.4,-0.21 0.59,-0.38l0.03 -0.03 -0.31 -0.17 -0.02 0.02c-0.27,0.26 -0.58,0.39 -0.96,0.39 -0.28,0 -0.5,-0.08 -0.66,-0.24 -0.13,-0.14 -0.19,-0.29 -0.17,-0.47 0.01,-0.04 0.01,-0.07 0.02,-0.1 0.01,-0.03 0.02,-0.05 0.03,-0.07 0.04,-0.09 0.12,-0.18 0.23,-0.24 0.13,-0.09 0.28,-0.13 0.43,-0.13l1.18 0 0.22 -0.82 1.22 0 -0.69 2.54 0.41 0 0.68 -2.54 1.35 0c0.05,0.07 0.09,0.11 0.11,0.15 0.07,0.14 0.09,0.25 0.06,0.35 -0.04,0.15 -0.13,0.27 -0.26,0.34 -0.11,0.06 -0.25,0.09 -0.41,0.09 -0.02,0 -0.05,-0 -0.09,-0.01 -0.02,-0 -0.04,-0.01 -0.06,-0.01 -0.02,-0 -0.04,-0.01 -0.06,-0.01l-0.03 -0 -0.01 0.03c-0.07,0.26 -0.02,0.5 0.14,0.71 0.16,0.21 0.43,0.32 0.81,0.32l0.02 0c0.23,-0 0.45,-0.05 0.66,-0.13 0.05,-0.02 0.1,-0.04 0.17,-0.08l-0.21 0.79 0.41 0 0.68 -2.54 0.54 0 0.08 -0.28 -3.89 0c-0.03,-0.24 -0.07,-0.43 -0.13,-0.55z"/>
    <path class="fil4" d="M44.23 44.39c0.09,-0.07 0.2,-0.11 0.35,-0.11 0.11,0 0.2,0.02 0.28,0.05 0.17,0.07 0.3,0.2 0.39,0.4 0.04,0.09 0.07,0.22 0.1,0.42l-1.26 0c-0.02,-0.03 -0.03,-0.07 -0.04,-0.11 -0.03,-0.12 -0.04,-0.24 -0.01,-0.36 0.03,-0.13 0.1,-0.23 0.19,-0.3zm3.37 1.19c-0.01,-0.04 -0.03,-0.09 -0.06,-0.14l1.04 0 -0.35 1.3c-0.1,0.09 -0.19,0.15 -0.25,0.19 -0.21,0.13 -0.43,0.2 -0.66,0.2l-0.02 0c-0.27,0 -0.46,-0.09 -0.56,-0.26 -0.02,-0.06 -0.04,-0.14 -0.06,-0.23 0.16,-0.03 0.3,-0.07 0.39,-0.1 0.29,-0.12 0.47,-0.31 0.54,-0.57 0.03,-0.11 0.02,-0.25 -0.03,-0.39zm-2 -0.97c-0.14,-0.3 -0.36,-0.49 -0.65,-0.56 -0.08,-0.02 -0.18,-0.03 -0.31,-0.03 -0.24,0 -0.45,0.05 -0.62,0.16 -0.18,0.11 -0.3,0.28 -0.36,0.5 -0.03,0.11 -0.02,0.23 0.02,0.38 0.01,0.03 0.02,0.06 0.04,0.1l-7.67 0 -0.08 0.28 0.77 0 -0.26 0.97 -0.99 0 0.22 -0.81c0.04,-0.15 0,-0.27 -0.1,-0.37 -0.1,-0.09 -0.25,-0.14 -0.44,-0.14 -0.18,0 -0.35,0.04 -0.51,0.13 -0.15,0.09 -0.25,0.21 -0.29,0.39 -0.01,0.06 -0.01,0.12 0,0.2 0,0.03 0.01,0.06 0.03,0.1l0.01 0.02 0.38 0 -0.04 -0.05c-0.01,-0.02 -0.02,-0.02 -0.02,-0.04 -0.02,-0.07 -0.02,-0.14 -0,-0.21 0.02,-0.08 0.06,-0.14 0.12,-0.19 0.06,-0.05 0.14,-0.07 0.22,-0.07 0.11,0 0.19,0.02 0.22,0.06 0.03,0.04 0.04,0.09 0.02,0.15l-0.23 0.85 -0.38 0c-0.04,0 -0.08,0.01 -0.14,0.04 -0.06,0.03 -0.09,0.07 -0.1,0.12 -0.01,0.03 -0.03,0.11 0.24,0.4 0.24,0.26 0.34,0.29 0.39,0.29 0.06,0 0.14,-0.01 0.17,-0.06 0.02,-0.04 0.03,-0.08 0.04,-0.11l0.1 -0.37 0.99 0 -0.34 1.26 0.41 0 0.69 -2.54 0.98 0 -0.69 2.54 0.41 0 0.69 -2.54 2.06 0 -0.17 0.64c-0.03,0.1 -0.08,0.17 -0.17,0.23 -0.09,0.06 -0.2,0.09 -0.34,0.09 -0.08,0 -0.15,-0.01 -0.21,-0.04 -0.07,-0.03 -0.09,-0.06 -0.1,-0.07l-0.18 -0.4 -0.36 0.19 0.01 0.03c0.03,0.08 0.06,0.16 0.1,0.24 0.08,0.19 0.19,0.39 0.33,0.63 0.08,0.14 0.19,0.3 0.36,0.53 0.13,0.18 0.25,0.33 0.37,0.47l0.02 0.02 0.36 -0.23 -0.03 -0.04c-0.08,-0.08 -0.14,-0.15 -0.18,-0.2l-0.06 -0.07c-0.11,-0.13 -0.19,-0.23 -0.25,-0.32l-0.28 -0.48c0.16,0.03 0.34,0 0.54,-0.07 0.15,-0.05 0.26,-0.12 0.34,-0.2 0.08,-0.08 0.13,-0.17 0.15,-0.26l0.18 -0.68 2.89 0 -0.15 0.55 -1.36 0c-0.19,0 -0.37,0.05 -0.51,0.14 -0.15,0.09 -0.25,0.23 -0.29,0.41 -0.08,0.3 0.01,0.63 0.27,0.98 0.1,0.12 0.23,0.26 0.41,0.41l0.02 0.02 0.32 -0.22 -0.03 -0.03c-0.16,-0.14 -0.28,-0.27 -0.36,-0.37 -0.21,-0.28 -0.29,-0.55 -0.22,-0.8 0.02,-0.09 0.07,-0.16 0.15,-0.2 0.09,-0.05 0.21,-0.07 0.36,-0.07l1.19 0 -0.46 1.73 0.41 0 0.69 -2.54 0.98 0 -0.69 2.54 0.41 0 0.69 -2.54 1.35 0c0.06,0.06 0.09,0.11 0.11,0.15 0.07,0.12 0.09,0.24 0.06,0.35 -0.04,0.15 -0.13,0.27 -0.26,0.34 -0.11,0.06 -0.25,0.09 -0.42,0.09 -0.02,0 -0.05,-0 -0.09,-0.01 -0.02,-0 -0.04,-0.01 -0.05,-0.01 -0.02,-0 -0.04,-0.01 -0.06,-0.01l-0.03 -0 -0.01 0.03c-0.07,0.26 -0.03,0.5 0.13,0.71 0.16,0.21 0.43,0.32 0.82,0.32l0.02 0c0.23,-0 0.45,-0.05 0.66,-0.13 0.05,-0.02 0.11,-0.05 0.17,-0.08l-0.21 0.79 0.41 0 0.69 -2.54 0.54 0 0.08 -0.28 -3.89 0c-0.03,-0.24 -0.07,-0.43 -0.13,-0.55z"/>
    <path class="fil4" d="M5.31 52.96l0.83 -2.98 1.33 1.75c0.04,0.05 0.07,0.1 0.11,0.16 0.04,0.06 0.07,0.12 0.11,0.19l0.55 -1.99 0.43 0 -0.83 2.98 -1.36 -1.78c-0.04,-0.05 -0.07,-0.1 -0.1,-0.15 -0.03,-0.05 -0.06,-0.11 -0.09,-0.17l-0.55 1.99 -0.43 0z"/>
    <path class="fil4" d="M9.53 51.83l0.8 0 -0.11 -0.65c-0,-0.04 -0.01,-0.09 -0.01,-0.14 -0,-0.05 -0.01,-0.11 -0,-0.18 -0.03,0.06 -0.07,0.12 -0.1,0.17 -0.03,0.05 -0.06,0.1 -0.1,0.15l-0.48 0.65zm0.98 1.13l-0.12 -0.74 -1.14 0 -0.54 0.74 -0.49 0 2.22 -2.98 0.56 2.98 -0.49 0z"/>
    <polygon class="fil4" points="12.41,50.49 11.73,52.96 11.26,52.96 11.95,50.49 11.19,50.49 11.3,50.09 13.28,50.09 13.17,50.49 "/>
    <polygon class="fil4" points="12.93,52.96 13.73,50.09 14.19,50.09 13.4,52.96 "/>
    <path class="fil4" d="M16.75 51.53c0.04,-0.14 0.05,-0.28 0.03,-0.41 -0.02,-0.13 -0.06,-0.25 -0.13,-0.35 -0.07,-0.1 -0.16,-0.18 -0.27,-0.23 -0.11,-0.05 -0.24,-0.08 -0.38,-0.08 -0.14,0 -0.28,0.03 -0.43,0.08 -0.14,0.05 -0.28,0.13 -0.4,0.23 -0.13,0.1 -0.23,0.22 -0.32,0.35 -0.09,0.13 -0.15,0.27 -0.19,0.42 -0.04,0.14 -0.05,0.28 -0.04,0.41 0.02,0.13 0.06,0.24 0.13,0.35 0.07,0.1 0.16,0.18 0.27,0.23 0.11,0.05 0.24,0.08 0.38,0.08 0.14,0 0.28,-0.03 0.42,-0.08 0.14,-0.05 0.27,-0.13 0.4,-0.23 0.13,-0.1 0.24,-0.22 0.32,-0.35 0.09,-0.13 0.15,-0.27 0.19,-0.41zm0.49 0c-0.06,0.2 -0.15,0.4 -0.27,0.58 -0.13,0.18 -0.28,0.34 -0.47,0.49 -0.19,0.14 -0.38,0.25 -0.59,0.33 -0.21,0.08 -0.41,0.11 -0.61,0.11 -0.21,0 -0.39,-0.04 -0.56,-0.11 -0.17,-0.08 -0.3,-0.18 -0.41,-0.33 -0.11,-0.14 -0.17,-0.3 -0.2,-0.48 -0.03,-0.18 -0.01,-0.37 0.05,-0.58 0.06,-0.2 0.15,-0.4 0.27,-0.58 0.13,-0.18 0.28,-0.34 0.47,-0.49 0.19,-0.14 0.38,-0.25 0.59,-0.33 0.21,-0.07 0.41,-0.11 0.62,-0.11 0.21,0 0.39,0.04 0.55,0.11 0.16,0.08 0.3,0.18 0.41,0.33 0.11,0.14 0.17,0.31 0.2,0.49 0.03,0.18 0.01,0.37 -0.05,0.58z"/>
    <path class="fil4" d="M17.3 52.96l0.83 -2.98 1.33 1.75c0.04,0.05 0.07,0.1 0.11,0.16 0.04,0.06 0.07,0.12 0.11,0.19l0.55 -1.99 0.43 0 -0.83 2.98 -1.36 -1.78c-0.04,-0.05 -0.07,-0.1 -0.1,-0.15 -0.03,-0.05 -0.06,-0.11 -0.09,-0.17l-0.55 1.99 -0.43 0z"/>
    <path class="fil4" d="M21.51 51.83l0.8 0 -0.11 -0.65c-0.01,-0.04 -0.01,-0.09 -0.01,-0.14 -0,-0.05 -0,-0.11 -0,-0.18 -0.03,0.06 -0.07,0.12 -0.1,0.17 -0.03,0.05 -0.06,0.1 -0.1,0.15l-0.48 0.65zm0.98 1.13l-0.12 -0.74 -1.14 0 -0.54 0.74 -0.49 0 2.21 -2.98 0.56 2.98 -0.49 0z"/>
    <polygon class="fil4" points="23.33,52.96 24.13,50.09 24.59,50.09 23.91,52.54 24.95,52.54 24.84,52.96 "/>
    <path class="fil4" d="M27.43 51.29l0.12 0c0.26,0 0.44,-0.03 0.54,-0.08 0.1,-0.06 0.17,-0.15 0.21,-0.3 0.04,-0.15 0.03,-0.26 -0.05,-0.32 -0.08,-0.06 -0.23,-0.09 -0.48,-0.09l-0.12 0 -0.22 0.8zm-0.14 0.38l-0.36 1.29 -0.44 0 0.8 -2.87 0.7 0c0.21,0 0.36,0.01 0.45,0.03 0.09,0.02 0.17,0.06 0.23,0.11 0.07,0.07 0.12,0.16 0.14,0.27 0.02,0.11 0.01,0.24 -0.03,0.37 -0.04,0.14 -0.1,0.26 -0.18,0.38 -0.08,0.11 -0.18,0.21 -0.29,0.27 -0.09,0.05 -0.18,0.09 -0.29,0.11 -0.1,0.02 -0.26,0.03 -0.47,0.03l-0.09 0 -0.18 0z"/>
    <path class="fil4" d="M29.1 51.83l0.8 0 -0.11 -0.65c-0.01,-0.04 -0.01,-0.09 -0.01,-0.14 -0,-0.05 -0,-0.11 -0,-0.18 -0.03,0.06 -0.07,0.12 -0.1,0.17 -0.03,0.05 -0.06,0.1 -0.1,0.15l-0.48 0.65zm0.98 1.13l-0.12 -0.74 -1.14 0 -0.54 0.74 -0.49 0 2.22 -2.98 0.56 2.98 -0.49 0z"/>
    <path class="fil4" d="M30.83 52.96l0.36 -1.31 -0.53 -1.55 0.49 0 0.33 0.97c0.01,0.03 0.02,0.06 0.03,0.1 0.01,0.04 0.02,0.08 0.03,0.13 0.03,-0.05 0.06,-0.09 0.09,-0.13 0.03,-0.04 0.06,-0.08 0.09,-0.11l0.88 -0.96 0.47 0 -1.42 1.55 -0.36 1.31 -0.46 0z"/>
    <path class="fil4" d="M35.08 51.54c0,-0.02 0.01,-0.08 0.03,-0.18 0.01,-0.08 0.02,-0.15 0.03,-0.21 -0.03,0.07 -0.06,0.13 -0.1,0.2 -0.04,0.07 -0.09,0.13 -0.14,0.2l-1.17 1.53 -0.32 -1.56c-0.01,-0.06 -0.02,-0.13 -0.03,-0.19 -0.01,-0.06 -0.01,-0.12 -0.01,-0.18 -0.02,0.06 -0.04,0.12 -0.07,0.19 -0.03,0.07 -0.06,0.13 -0.1,0.21l-0.7 1.41 -0.43 0 1.51 -2.99 0.34 1.81c0.01,0.03 0.01,0.08 0.02,0.14 0.01,0.07 0.02,0.15 0.03,0.25 0.05,-0.08 0.12,-0.19 0.22,-0.31 0.02,-0.03 0.04,-0.06 0.06,-0.08l1.33 -1.81 -0.14 2.99 -0.43 0 0.08 -1.42z"/>
    <polygon class="fil4" points="35.89,52.96 36.68,50.09 38.28,50.09 38.17,50.49 37.04,50.49 36.84,51.21 37.97,51.21 37.86,51.62 36.73,51.62 36.47,52.54 37.6,52.54 37.49,52.96 "/>
    <path class="fil4" d="M38.1 52.96l0.83 -2.98 1.33 1.75c0.04,0.05 0.07,0.1 0.11,0.16 0.04,0.06 0.07,0.12 0.11,0.19l0.55 -1.99 0.43 0 -0.83 2.98 -1.36 -1.78c-0.04,-0.05 -0.07,-0.1 -0.1,-0.15 -0.03,-0.05 -0.06,-0.11 -0.09,-0.17l-0.55 1.99 -0.43 0z"/>
    <polygon class="fil4" points="43.01,50.49 42.33,52.96 41.86,52.96 42.55,50.49 41.79,50.49 41.9,50.09 43.88,50.09 43.77,50.49 "/>
    <path class="fil4" d="M43.52 52.39l0.42 -0.17c0,0.13 0.04,0.23 0.11,0.29 0.08,0.07 0.19,0.1 0.33,0.1 0.14,0 0.26,-0.04 0.36,-0.12 0.1,-0.08 0.17,-0.18 0.21,-0.31 0.05,-0.17 -0.05,-0.32 -0.29,-0.45 -0.03,-0.02 -0.06,-0.03 -0.08,-0.04 -0.27,-0.15 -0.44,-0.29 -0.52,-0.42 -0.07,-0.12 -0.08,-0.28 -0.03,-0.46 0.06,-0.23 0.2,-0.42 0.4,-0.57 0.2,-0.14 0.43,-0.22 0.68,-0.22 0.21,0 0.38,0.04 0.5,0.12 0.12,0.08 0.19,0.2 0.2,0.35l-0.42 0.19c-0.03,-0.09 -0.08,-0.16 -0.13,-0.2 -0.06,-0.04 -0.13,-0.06 -0.22,-0.06 -0.13,0 -0.23,0.03 -0.33,0.1 -0.09,0.07 -0.15,0.15 -0.18,0.26 -0.05,0.17 0.07,0.33 0.35,0.48 0.02,0.01 0.04,0.02 0.05,0.03 0.25,0.13 0.41,0.26 0.48,0.38 0.07,0.12 0.08,0.28 0.03,0.47 -0.08,0.27 -0.22,0.49 -0.44,0.65 -0.22,0.16 -0.47,0.24 -0.76,0.24 -0.24,0 -0.43,-0.06 -0.55,-0.17 -0.13,-0.11 -0.18,-0.27 -0.17,-0.48z"/>
    <path class="fil4" d="M49.75 50.79c-0.1,-0.11 -0.22,-0.2 -0.35,-0.25 -0.13,-0.06 -0.28,-0.08 -0.44,-0.08 -0.31,0 -0.6,0.1 -0.85,0.3 -0.25,0.2 -0.42,0.46 -0.51,0.78 -0.09,0.31 -0.06,0.56 0.07,0.76 0.13,0.2 0.35,0.3 0.64,0.3 0.17,0 0.34,-0.03 0.51,-0.09 0.17,-0.06 0.34,-0.15 0.52,-0.27l-0.15 0.53c-0.15,0.09 -0.31,0.16 -0.46,0.2 -0.16,0.04 -0.33,0.07 -0.5,0.07 -0.22,0 -0.41,-0.04 -0.58,-0.11 -0.17,-0.07 -0.3,-0.18 -0.4,-0.32 -0.1,-0.14 -0.16,-0.3 -0.19,-0.48 -0.02,-0.19 -0.01,-0.38 0.05,-0.59 0.06,-0.21 0.15,-0.41 0.28,-0.59 0.13,-0.18 0.28,-0.35 0.46,-0.49 0.18,-0.14 0.37,-0.25 0.58,-0.32 0.2,-0.07 0.41,-0.11 0.63,-0.11 0.17,0 0.32,0.02 0.46,0.07 0.14,0.05 0.27,0.12 0.38,0.22l-0.16 0.47z"/>
    <path class="fil4" d="M52.58 51.53c0.04,-0.14 0.05,-0.28 0.04,-0.41 -0.02,-0.13 -0.06,-0.25 -0.13,-0.35 -0.07,-0.1 -0.16,-0.18 -0.27,-0.23 -0.11,-0.05 -0.24,-0.08 -0.38,-0.08 -0.14,0 -0.28,0.03 -0.42,0.08 -0.14,0.05 -0.28,0.13 -0.4,0.23 -0.13,0.1 -0.24,0.22 -0.32,0.35 -0.09,0.13 -0.15,0.27 -0.19,0.42 -0.04,0.14 -0.05,0.28 -0.04,0.41 0.02,0.13 0.06,0.24 0.13,0.35 0.07,0.1 0.16,0.18 0.27,0.23 0.11,0.05 0.24,0.08 0.38,0.08 0.14,0 0.28,-0.03 0.42,-0.08 0.14,-0.05 0.28,-0.13 0.4,-0.23 0.13,-0.1 0.24,-0.22 0.32,-0.35 0.09,-0.13 0.15,-0.27 0.19,-0.41zm0.49 0c-0.06,0.2 -0.15,0.4 -0.28,0.58 -0.13,0.18 -0.28,0.34 -0.47,0.49 -0.19,0.14 -0.38,0.25 -0.59,0.33 -0.21,0.08 -0.41,0.11 -0.61,0.11 -0.21,0 -0.39,-0.04 -0.56,-0.11 -0.17,-0.08 -0.3,-0.18 -0.4,-0.33 -0.11,-0.14 -0.17,-0.3 -0.2,-0.48 -0.03,-0.18 -0.01,-0.37 0.05,-0.58 0.06,-0.2 0.15,-0.4 0.27,-0.58 0.13,-0.18 0.28,-0.34 0.47,-0.49 0.19,-0.14 0.38,-0.25 0.59,-0.33 0.21,-0.07 0.41,-0.11 0.62,-0.11 0.21,0 0.39,0.04 0.56,0.11 0.16,0.08 0.3,0.18 0.41,0.33 0.11,0.14 0.17,0.31 0.2,0.49 0.03,0.18 0.01,0.37 -0.05,0.58z"/>
    <path class="fil4" d="M54.12 51.32l0.08 0c0.25,0 0.42,-0.03 0.52,-0.09 0.1,-0.06 0.17,-0.16 0.21,-0.31 0.04,-0.16 0.03,-0.27 -0.04,-0.33 -0.07,-0.06 -0.22,-0.1 -0.46,-0.1l-0.08 0 -0.23 0.82zm-0.13 0.36l-0.36 1.28 -0.44 0 0.8 -2.87 0.65 0c0.19,0 0.34,0.01 0.43,0.04 0.1,0.02 0.18,0.07 0.24,0.12 0.07,0.07 0.11,0.16 0.13,0.27 0.02,0.11 0.01,0.23 -0.03,0.36 -0.06,0.23 -0.17,0.41 -0.32,0.54 -0.15,0.13 -0.33,0.21 -0.56,0.23l0.62 1.3 -0.53 0 -0.6 -1.28 -0.05 0z"/>
    <path class="fil4" d="M56.45 51.29l0.12 0c0.26,0 0.44,-0.03 0.54,-0.08 0.1,-0.06 0.17,-0.15 0.21,-0.3 0.04,-0.15 0.03,-0.26 -0.05,-0.32 -0.07,-0.06 -0.23,-0.09 -0.48,-0.09l-0.12 0 -0.22 0.8zm-0.14 0.38l-0.36 1.29 -0.44 0 0.8 -2.87 0.7 0c0.21,0 0.36,0.01 0.45,0.03 0.09,0.02 0.17,0.06 0.23,0.11 0.07,0.07 0.12,0.16 0.14,0.27 0.02,0.11 0.01,0.24 -0.03,0.37 -0.04,0.14 -0.1,0.26 -0.18,0.38 -0.08,0.11 -0.18,0.21 -0.29,0.27 -0.09,0.05 -0.18,0.09 -0.29,0.11 -0.1,0.02 -0.26,0.03 -0.47,0.03l-0.09 0 -0.18 0z"/>
    <path class="fil4" d="M60.51 51.53c0.04,-0.14 0.05,-0.28 0.03,-0.41 -0.02,-0.13 -0.06,-0.25 -0.13,-0.35 -0.07,-0.1 -0.16,-0.18 -0.27,-0.23 -0.11,-0.05 -0.24,-0.08 -0.38,-0.08 -0.14,0 -0.28,0.03 -0.42,0.08 -0.14,0.05 -0.28,0.13 -0.4,0.23 -0.13,0.1 -0.24,0.22 -0.32,0.35 -0.09,0.13 -0.15,0.27 -0.19,0.42 -0.04,0.14 -0.05,0.28 -0.04,0.41 0.02,0.13 0.06,0.24 0.13,0.35 0.07,0.1 0.16,0.18 0.27,0.23 0.11,0.05 0.24,0.08 0.38,0.08 0.14,0 0.28,-0.03 0.42,-0.08 0.14,-0.05 0.28,-0.13 0.4,-0.23 0.13,-0.1 0.24,-0.22 0.32,-0.35 0.09,-0.13 0.15,-0.27 0.19,-0.41zm0.49 0c-0.06,0.2 -0.15,0.4 -0.27,0.58 -0.13,0.18 -0.28,0.34 -0.47,0.49 -0.19,0.14 -0.38,0.25 -0.59,0.33 -0.21,0.08 -0.41,0.11 -0.61,0.11 -0.21,0 -0.39,-0.04 -0.56,-0.11 -0.17,-0.08 -0.3,-0.18 -0.41,-0.33 -0.11,-0.14 -0.17,-0.3 -0.2,-0.48 -0.03,-0.18 -0.01,-0.37 0.05,-0.58 0.06,-0.2 0.15,-0.4 0.27,-0.58 0.13,-0.18 0.28,-0.34 0.47,-0.49 0.19,-0.14 0.38,-0.25 0.59,-0.33 0.21,-0.07 0.41,-0.11 0.62,-0.11 0.21,0 0.39,0.04 0.55,0.11 0.16,0.08 0.3,0.18 0.41,0.33 0.11,0.14 0.17,0.31 0.2,0.49 0.03,0.18 0.01,0.37 -0.05,0.58z"/>
    <path class="fil4" d="M61.89 51.32l0.08 0c0.25,0 0.42,-0.03 0.52,-0.09 0.1,-0.06 0.17,-0.16 0.21,-0.31 0.04,-0.16 0.03,-0.27 -0.04,-0.33 -0.07,-0.06 -0.22,-0.1 -0.46,-0.1l-0.08 0 -0.23 0.82zm-0.13 0.36l-0.36 1.28 -0.44 0 0.8 -2.87 0.65 0c0.19,0 0.34,0.01 0.43,0.04 0.1,0.02 0.18,0.07 0.23,0.12 0.07,0.07 0.11,0.16 0.13,0.27 0.02,0.11 0.01,0.23 -0.03,0.36 -0.06,0.23 -0.17,0.41 -0.32,0.54 -0.15,0.13 -0.33,0.21 -0.56,0.23l0.62 1.3 -0.53 0 -0.6 -1.28 -0.05 0z"/>
    <path class="fil4" d="M64.29 51.83l0.8 0 -0.11 -0.65c-0,-0.04 -0.01,-0.09 -0.01,-0.14 -0,-0.05 -0,-0.11 -0,-0.18 -0.03,0.06 -0.07,0.12 -0.1,0.17 -0.03,0.05 -0.06,0.1 -0.1,0.15l-0.48 0.65zm0.98 1.13l-0.12 -0.74 -1.14 0 -0.54 0.74 -0.49 0 2.22 -2.98 0.56 2.98 -0.49 0z"/>
    <polygon class="fil4" points="67.18,50.49 66.49,52.96 66.03,52.96 66.72,50.49 65.95,50.49 66.06,50.09 68.05,50.09 67.94,50.49 "/>
    <polygon class="fil4" points="67.7,52.96 68.49,50.09 68.96,50.09 68.16,52.96 "/>
    <path class="fil4" d="M71.52 51.53c0.04,-0.14 0.05,-0.28 0.03,-0.41 -0.02,-0.13 -0.06,-0.25 -0.13,-0.35 -0.07,-0.1 -0.16,-0.18 -0.27,-0.23 -0.11,-0.05 -0.24,-0.08 -0.38,-0.08 -0.14,0 -0.28,0.03 -0.43,0.08 -0.14,0.05 -0.28,0.13 -0.4,0.23 -0.13,0.1 -0.24,0.22 -0.32,0.35 -0.09,0.13 -0.15,0.27 -0.19,0.42 -0.04,0.14 -0.05,0.28 -0.04,0.41 0.02,0.13 0.06,0.24 0.13,0.35 0.07,0.1 0.16,0.18 0.27,0.23 0.11,0.05 0.24,0.08 0.38,0.08 0.14,0 0.28,-0.03 0.42,-0.08 0.14,-0.05 0.28,-0.13 0.4,-0.23 0.13,-0.1 0.24,-0.22 0.32,-0.35 0.09,-0.13 0.15,-0.27 0.19,-0.41zm0.49 0c-0.06,0.2 -0.15,0.4 -0.28,0.58 -0.13,0.18 -0.28,0.34 -0.47,0.49 -0.19,0.14 -0.38,0.25 -0.59,0.33 -0.21,0.08 -0.41,0.11 -0.61,0.11 -0.21,0 -0.39,-0.04 -0.56,-0.11 -0.17,-0.08 -0.3,-0.18 -0.4,-0.33 -0.11,-0.14 -0.17,-0.3 -0.2,-0.48 -0.03,-0.18 -0.01,-0.37 0.05,-0.58 0.06,-0.2 0.15,-0.4 0.27,-0.58 0.13,-0.18 0.28,-0.34 0.47,-0.49 0.19,-0.14 0.38,-0.25 0.59,-0.33 0.21,-0.07 0.41,-0.11 0.62,-0.11 0.21,0 0.39,0.04 0.55,0.11 0.16,0.08 0.3,0.18 0.41,0.33 0.11,0.14 0.17,0.31 0.2,0.49 0.03,0.18 0.01,0.37 -0.05,0.58z"/>
    <path class="fil4" d="M71.98 52.96l0.83 -2.98 1.33 1.75c0.04,0.05 0.07,0.1 0.11,0.16 0.04,0.06 0.07,0.12 0.11,0.19l0.55 -1.99 0.43 0 -0.83 2.98 -1.36 -1.78c-0.04,-0.05 -0.07,-0.1 -0.1,-0.15 -0.03,-0.05 -0.06,-0.11 -0.09,-0.17l-0.55 1.99 -0.43 0z"/>
    <path class="fil4" d="M78.94 51.53c0.04,-0.14 0.05,-0.28 0.04,-0.41 -0.02,-0.13 -0.06,-0.25 -0.13,-0.35 -0.07,-0.1 -0.16,-0.18 -0.27,-0.23 -0.11,-0.05 -0.24,-0.08 -0.38,-0.08 -0.14,0 -0.28,0.03 -0.43,0.08 -0.14,0.05 -0.28,0.13 -0.4,0.23 -0.13,0.1 -0.24,0.22 -0.32,0.35 -0.09,0.13 -0.15,0.27 -0.19,0.42 -0.04,0.14 -0.05,0.28 -0.04,0.41 0.02,0.13 0.06,0.24 0.13,0.35 0.07,0.1 0.16,0.18 0.27,0.23 0.11,0.05 0.24,0.08 0.38,0.08 0.14,0 0.28,-0.03 0.42,-0.08 0.14,-0.05 0.28,-0.13 0.4,-0.23 0.13,-0.1 0.24,-0.22 0.32,-0.35 0.09,-0.13 0.15,-0.27 0.19,-0.41zm0.49 0c-0.06,0.2 -0.15,0.4 -0.27,0.58 -0.13,0.18 -0.28,0.34 -0.47,0.49 -0.19,0.14 -0.38,0.25 -0.59,0.33 -0.21,0.08 -0.41,0.11 -0.61,0.11 -0.21,0 -0.39,-0.04 -0.56,-0.11 -0.17,-0.08 -0.3,-0.18 -0.41,-0.33 -0.11,-0.14 -0.17,-0.3 -0.2,-0.48 -0.03,-0.18 -0.01,-0.37 0.05,-0.58 0.06,-0.2 0.15,-0.4 0.27,-0.58 0.13,-0.18 0.28,-0.34 0.47,-0.49 0.19,-0.14 0.38,-0.25 0.59,-0.33 0.21,-0.07 0.41,-0.11 0.62,-0.11 0.21,0 0.39,0.04 0.55,0.11 0.16,0.08 0.3,0.18 0.41,0.33 0.11,0.14 0.17,0.31 0.2,0.49 0.03,0.18 0.01,0.37 -0.05,0.58z"/>
    <polygon class="fil4" points="79.4,52.96 80.2,50.09 81.8,50.09 81.69,50.49 80.56,50.49 80.36,51.2 81.49,51.2 81.38,51.61 80.24,51.61 79.87,52.96 "/>
    <polygon class="fil4" points="82.73,52.96 83.52,50.09 83.99,50.09 83.19,52.96 "/>
    <path class="fil4" d="M83.62 52.96l0.83 -2.98 1.33 1.75c0.04,0.05 0.07,0.1 0.11,0.16 0.04,0.06 0.07,0.12 0.11,0.19l0.55 -1.99 0.43 0 -0.83 2.98 -1.36 -1.78c-0.04,-0.05 -0.07,-0.1 -0.1,-0.15 -0.03,-0.05 -0.06,-0.11 -0.08,-0.17l-0.55 1.99 -0.43 0z"/>
    <path class="fil4" d="M87.26 52.54l0.39 0c0.22,0 0.38,-0.01 0.5,-0.04 0.12,-0.03 0.22,-0.08 0.32,-0.14 0.13,-0.09 0.25,-0.21 0.34,-0.35 0.09,-0.14 0.16,-0.3 0.21,-0.48 0.05,-0.18 0.07,-0.34 0.05,-0.48 -0.02,-0.14 -0.06,-0.25 -0.15,-0.34 -0.06,-0.07 -0.15,-0.12 -0.25,-0.14 -0.1,-0.03 -0.28,-0.04 -0.52,-0.04l-0.17 0 -0.17 0 -0.56 2.03zm-0.58 0.42l0.8 -2.87 0.63 0c0.41,0 0.69,0.02 0.84,0.06 0.16,0.04 0.28,0.11 0.38,0.21 0.13,0.13 0.21,0.29 0.24,0.49 0.03,0.2 0.01,0.43 -0.06,0.68 -0.07,0.25 -0.18,0.48 -0.32,0.68 -0.14,0.2 -0.31,0.36 -0.51,0.49 -0.15,0.1 -0.31,0.17 -0.48,0.21 -0.17,0.04 -0.43,0.06 -0.76,0.06l-0.13 0 -0.63 0z"/>
    <polygon class="fil4" points="89.41,52.96 90.21,50.09 90.68,50.09 89.88,52.96 "/>
    <path class="fil4" d="M91.47 51.83l0.8 0 -0.11 -0.65c-0,-0.04 -0.01,-0.09 -0.01,-0.14 -0,-0.05 -0.01,-0.11 -0,-0.18 -0.03,0.06 -0.07,0.12 -0.1,0.17 -0.03,0.05 -0.06,0.1 -0.1,0.15l-0.47 0.65zm0.97 1.13l-0.12 -0.74 -1.14 0 -0.54 0.74 -0.49 0 2.22 -2.98 0.56 2.98 -0.49 0z"/>
   </g>
  </g>
 </g>
</svg>
