<?xml version="1.0" encoding="UTF-8"?>
<!DOCTYPE svg PUBLIC "-//W3C//DTD SVG 1.1//EN" "http://www.w3.org/Graphics/SVG/1.1/DTD/svg11.dtd">
<!-- Creator: CorelDRAW -->
<svg xmlns="http://www.w3.org/2000/svg" xml:space="preserve" version="1.1" style="shape-rendering:geometricPrecision; text-rendering:geometricPrecision; image-rendering:optimizeQuality; fill-rule:evenodd; clip-rule:evenodd"
viewBox="0 0 71.19 53.39"
 xmlns:xlink="http://www.w3.org/1999/xlink"
 xmlns:xodm="http://www.corel.com/coreldraw/odm/2003">
 <defs>
  <style type="text/css">
   <![CDATA[
    .fil0 {fill:none}
    .fil2 {fill:#714A4B}
    .fil4 {fill:#8B231D;fill-rule:nonzero}
    .fil1 {fill:url(#id0)}
    .fil3 {fill:url(#id1)}
   ]]>
  </style>
  <linearGradient id="id0" gradientUnits="userSpaceOnUse" x1="12.57" y1="11.76" x2="3.22" y2="11.76">
   <stop offset="0" style="stop-opacity:1; stop-color:#A45E4D"/>
   <stop offset="0.431373" style="stop-opacity:1; stop-color:#DC9E43"/>
   <stop offset="1" style="stop-opacity:1; stop-color:#FFCC29"/>
  </linearGradient>
  <linearGradient id="id1" gradientUnits="userSpaceOnUse" xlink:href="#id0" x1="1.58" y1="35.79" x2="12.67" y2="35.79">
  </linearGradient>
 </defs>
 <g id="Layer_x0020_1">
  <metadata id="CorelCorpID_0Corel-Layer"/>
  <g id="_2641997645024">
   <g>
    <g>
     <rect class="fil0" x="0" y="-0" width="71.19" height="53.39"/>
    </g>
   </g>
   <g>
    <g>
     <path class="fil1" d="M5.82 23.95l1.78 1.14c-0.18,-0.34 -0.23,-0.7 -0.18,-1.04 0.13,-0.36 0.32,-0.76 0.64,-1.07 0.38,-0.37 1,-0.58 1.51,-0.36 0.61,0.26 0.68,1.1 0.58,1.67 -0.04,0.22 -0.1,0.41 -0.19,0.57l-1.78 -1.14c0.18,0.34 0.23,0.7 0.18,1.04 -0.13,0.36 -0.32,0.76 -0.64,1.07 -0.38,0.37 -1,0.58 -1.51,0.36 -0.61,-0.26 -0.68,-1.1 -0.58,-1.67 0.04,-0.22 0.1,-0.41 0.19,-0.57zm-1.3 -2.57l0 -0 -0 0.01c-0.07,0.11 -0.13,0.24 -0.18,0.37 -0.76,1.55 -1.15,2.88 -1.13,3.96 0.02,1.25 0.75,2.39 1.92,2.88 0.8,0.34 1.77,0.3 2.94,-0.2 0.87,-0.43 1.54,-1.01 2.11,-1.67l1.09 0.72 0 -0 -0 0 0 -0.01c0.07,-0.11 0.13,-0.24 0.18,-0.37 0.76,-1.55 1.15,-2.88 1.13,-3.96 -0.02,-1.25 -0.75,-2.39 -1.92,-2.88 -0.8,-0.34 -1.77,-0.3 -2.94,0.2 -0.86,0.43 -1.53,1.01 -2.11,1.67l-0 0 -1.09 -0.72 -0 0z"/>
     <path class="fil2" d="M11.27 27.11l-1.09 -0.72 -1.27 -0.83c0.44,-0.3 0.84,-0.58 1.07,-1.04l0 -0.01 0 -0.01 0 -0.01 0 -0.01 0 -0.01 0.01 -0.02 0 -0.01 0 -0.01 0.01 -0.02 0 -0.01 0 -0.01 0 -0.01 0 -0.01 0 -0.01 0 -0.01 0 -0.01 0 -0.01 0 -0.01 0 -0.01 0 -0 0 -0.01 0 -0.01 0 -0.01 0 -0.01 0 -0 0.01 -0.02 0 -0.01 0 -0 0 -0 0 -0.01 0 -0.01 0 -0.01 0 -0 0 -0.01 0 -0.01 0 -0.01 0 -0.01 0 -0.01 0 -0.01 0 -0.01 0 -0.01 0 -0 0 -0.01 0.01 -0.02 0 -0 0 -0.01 0 -0.01 0 -0.02 0 0 0 -0 0 -0 0.01 -0.04 0 0 0 -0 0 -0.01 0.01 -0.03 0 -0 0.01 -0.03 0 -0 0 -0 0 -0.01 0.01 -0.03 0 -0.03 0 -0.03 0 -0.03 0 0 0 -0.03 0 -0.03 0 -0.03 0 -0.03 0 0 0 -0.03 0 0 0 -0.03 0 -0.03 0 0 0 -0.03 0 -0.03 0 -0.03 0 -0.03 0 -0.03 -0 -0.03 -0 -0.03 -0 -0.03 -0 -0.03 -0 -0.03 -0 -0.03 0 0 -0 -0.03 0 0 -0 -0.03 -0 -0.03 -0 -0.03 0 0 -0 -0.03 -0.01 -0.03 -0.01 -0.03 0 0 -0.01 -0.03 -0.01 -0.03 -0 0 -0.01 -0.03 0 0 -0.01 -0.03 -0.01 -0.03 0 0 -0.01 -0.03 -0.01 -0.03 -0.01 -0.03 -0.01 -0.03 0 0 -0.01 -0.03 0 0 -0.01 -0.03 -0.01 -0.03 0 0 -0.01 -0.03 0 0 -0.01 -0.03 -0.01 -0.03 -0.01 -0.03 -0.01 -0.02 -0.02 -0.02 -0.02 -0.02 -0.02 -0.02 -0.02 -0.02 -0.02 -0.02 -0.02 -0.02 -0.02 -0.02 -0.02 -0.02 -0.02 -0.02 -0.02 -0.02 -0.02 -0.02 -0.02 -0.02 -0.02 -0.02c-0.01,-0.01 -0.02,-0.01 -0.02,-0.02l-0.03 -0.02c-0.01,-0.01 -0.02,-0.01 -0.03,-0.01l-0.03 -0.01 -0.03 -0.01 -0.03 -0.01 -0.02 -0.01 -0.02 -0.01 -0.02 -0.01 -0.02 -0.01 -0.02 -0.01 -0.02 -0.01 -0.03 -0.01 -0.02 -0.01 0 0 -0.03 -0.01 -0.03 -0 0 0 -0.03 -0 -0.03 -0 0 -0 -0.03 -0 -0.03 -0 0 0 -0.03 -0 -0.03 -0 0 0 -0.03 -0 0 -0 -0.03 0 -0.03 0 -0.03 0 0 0 -0.03 0 0 0 -0.03 0 0 0 -0.03 0 0 0 -0.03 0 -0.03 0 -0.03 0 0 0 -0.03 0 0 0 -0.03 0.01 -0.03 0.01 0 0 -0.03 0.01 -0.02 0.01 0 0 -0.03 0.01 -0.02 0.01 -0.02 0.01 -0.02 0.01 -0.02 0.01 0 0 -0.02 0.01 0 0 -0.02 0.01 -0.02 0.01 -0.02 0.01 -0.02 0.01 -0.02 0.01 -0.02 0.01 0 0 -0.02 0.01 -0.02 0.01 -0.02 0.01 0 0 -0.02 0.01 -0.02 0.01 -0.02 0.01 0 0 -0.02 0.01 -0.02 0.01 -0.02 0.01 -0.02 0.01 -0.02 0.01 -0.02 0.01 -0.02 0.02 -0.02 0.02 -0.02 0.02 -0.02 0.02 -0.02 0.02 0 0 -0.02 0.02 -0.02 0.02 -0.02 0.02 -0.02 0.02c-0.02,0.02 -0.03,0.03 -0.05,0.05l-0 0 -0.01 0.01 -0.01 0.02 -0.01 0.01 -0.01 0.01 -0.01 0.02 -0 0 -0.01 0.01 -0.01 0.02 0 0 -0.02 0.02 -0 0.01 -0 0 -0.01 0.02 -0.01 0.01 -0.01 0.01 -0.01 0.02 -0 0.01 0 0 -0.02 0.03 -0 0 -0.01 0.01 -0.01 0.02 -0 0 -0 0.01 -0.02 0.02 -0 0c-0.01,0.02 -0.03,0.04 -0.04,0.06l-0.01 0.01 -0.01 0.02 -0 0 -0.01 0.01 -0.01 0.02 -0 0 -0.02 0.03 -0 0 -0 0 -0.01 0.02 -0.01 0.01 -0 0.01c-0.02,0.03 -0.03,0.06 -0.05,0.09l-0 0 -0.02 0.03 -0 0c-0.01,0.03 -0.03,0.06 -0.04,0.09l-0 0 -0.01 0.02 -0.01 0.02 -0 0c-0.01,0.02 -0.02,0.03 -0.02,0.05l-0 0.01 -0.01 0.03 -0.01 0.01 -0.01 0.02 -0 0 -0.01 0.02 -0.01 0.02 -0 0 -0.01 0.02 -0 0.01 -0 0.01 -0.01 0.03 -0 0.01 -0.02 0.05 -0 0 -0.02 0.05 0 0c-0.1,0.28 -0.17,0.54 -0.23,0.69 0.08,-1.38 0.88,-2.3 1.55,-2.59 0.72,-0.31 1.93,-0.09 2.51,0.45 0.4,0.37 0.64,1.22 0.65,2.03 -0.04,0.8 -0.15,1.72 -0.45,2.43l0 0 -0 0.01 0 0 -0 0.01 -0 0.01 -0 0.01 -0 0.01 -0 0.01 -0 0.01 -0 0 -0 0 -0 0.01 -0 0.01 -0 0.01 -0 0.01 -0 0.01 -0 0.01 -0 0.01 -0 0.01 -0 0.01 -0 0.01 -0 0.01 -0.01 0.01 -0 0.01 -0 0.01 -0 0.01 -0 0.01 -0 0.01 -0 0 -0 0 -0 0.01 -0 0.01 -0 0.01 -0 0.01 -0 0.01 -0 0.01 -0 0 -0 0 -0 0.01 -0 0.01 -0 0.01 -0 0.01 -0 0.01 -0 0 -0 0 -0 0.01 -0 0.01 -0 0.01 -0 0.01 -0 0.01 -0 0.01 -0 0 -0 0.01 -0 0.01 -0 0.01 -0 0.01 -0 0.01 -0 0.01 -0 0 -0 0 -0 0.01 -0 0.01 -0 0.01 -0 0.01 -0 0.01 -0 0.01 0 0 -0 0.01 -0 0.01 -0 0.01 -0 0.01 -0 0.01 -0 0 -0 0.01 -0 0 0 0zm-3.47 -4.14c-0.01,0.02 -0.03,0.04 -0.04,0.06l0.04 -0.06z"/>
     <path class="fil2" d="M4.53 21.69l1.09 0.72c-0.32,0.37 -0.61,0.76 -0.89,1.15l1.1 0.7 -0 0.01 -0 0.01 -0 0.01 -0 0.01 -0 0.01 -0 0.01 -0 0.01 -0 0.01 -0 0.01 -0 0.01 -0 0.01 -0 0.01 -0 0.01 -0 0.01 0 0 -0 0.01 -0 0.01 -0 0.01 0 0 -0 0.01 0 0 -0 0.01 -0 0.01 -0 0.01 -0 0.01 -0 0.01 -0 0.01 0 0 -0 0.01 0 0 -0 0.01 -0 0.01 -0 0.01 -0 0.01 -0 0.01 -0 0.01 0 0 -0 0.01 0 0 -0 0.01 -0 0.01 0 0 -0 0.01 -0 0.01 0 0 -0 0.01 0 0 -0 0.01 -0 0.01 0 0 -0 0.01 0 0 -0 0.01 -0 0.01 -0 0.01 0 0 -0 0.01 -0 0.01 -0 0.01 0 0 -0 0.01 0 0 -0 0.01 0 0 -0 0.01 -0 0.01 -0 0.01 -0 0.01 -0 0.01 -0 0.01 -0 0.01 0 0 -0 0.01 0 0 -0 0.01 -0 0.01 0 0 -0 0.01 0 0 -0 0.01 -0 0.01 -0 0.01 -0 0.01 -0 0.01 -0 0.03 -0 0.03 -0 0.03 -0 0.03 -0 0.03 -0 0.03 -0 0.03 -0 0.03 -0 0.03 -0 0.03 -0 0.03 -0 0.03 -0 0.03 -0 0.03 0 0.03 0 0.03 0 0.03 0 0.03 0 0.03 0 0.03 0 0.03 0 0 0 0.03 0 0.03 0 0.03 0 0.03 0 0.03 0.01 0.03 0.01 0.03 0.01 0.03 0.01 0.03 0.01 0.03 0.01 0.03 0 0 0.01 0.03 0.01 0.03 0.01 0.03 0.01 0.03 0.01 0.03 0.01 0.03 0.01 0.03 0.01 0.03 0.01 0.03 0.01 0.03 0.01 0.03 0 0 0.01 0.03 0 0 0.01 0.03 0.02 0.02 0 0 0.02 0.02 0.02 0.02 0.02 0.02 0.02 0.02 0.02 0.02 0.02 0.02 0 0 0.02 0.02 0 0 0.02 0.02 0.02 0.02 0.02 0.02 0 0 0.02 0.02 0 0 0.02 0.02 0.02 0.02 0 0 0.03 0.02 0 0c0.01,0.01 0.02,0.01 0.03,0.02l0 0 0.03 0.01 0 0 0.03 0.01 0 0c0.01,0 0.02,0.01 0.03,0.01l0 0 0.02 0.01 0 0 0.02 0.01 0 0 0.02 0.01 0 0 0.02 0.01 0 0 0.02 0.01 0 0 0.02 0.01 0 0 0.02 0.01 0 0 0.02 0.01 0.03 0.01 0 0 0.03 0 0.03 0 0 0 0.03 0 0.03 0 0 0 0.03 0 0.03 0 0 0 0.03 0 0.03 0 0.03 0 0.03 -0 0 0 0.03 -0 0.03 -0 0.03 -0 0.03 -0 0.03 -0 0.03 -0 0.03 -0 0.03 -0 0.03 -0 0 0 0.03 -0.01 0.03 -0.01 0.02 -0.01 0.03 -0.01 0.02 -0.01 0 0 0.02 -0.01 0 0 0.02 -0.01 0.02 -0.01 0.02 -0.01 0.02 -0.01 0.02 -0.01 0.02 -0.01 0.02 -0.01 0.02 -0.01 0.02 -0.01 0.02 -0.01 0.02 -0.01 0.02 -0.01 0.02 -0.01 0.02 -0.01 0.02 -0.01 0.02 -0.01 0.02 -0.01 0.02 -0.01 0.02 -0.01 0.02 -0.01 0.02 -0.02 0.02 -0.02 0.02 -0.02 0.02 -0.02 0.02 -0.02 0.02 -0.02 0.02 -0.02 0.02 -0.02 0.02 -0.02 0.02 -0.02c0.02,-0.02 0.03,-0.03 0.05,-0.05l0 -0 0.01 -0.01 0.01 -0.02 0.01 -0.01 0.01 -0.01 0.01 -0.02 0 -0 0.01 -0.01 0.01 -0.02 0 0 0.01 -0.02 0.01 -0.01 0 -0 0.01 -0.02 0.01 -0.01 0.01 -0.01 0.01 -0.02 0.01 -0.01 0.01 -0.01 0.01 -0.02 0 -0 0.02 -0.03 0 -0 0 -0 0.02 -0.02 0 -0 0 -0 0.01 -0.02 0.01 -0.01 0.01 -0.01 0.01 -0.02 0 -0.01 0.01 -0.01 0.01 -0.02 0 -0 0.01 -0.01 0.01 -0.02 0 -0 0 -0.01 0.01 -0.02 0 -0 0.01 -0.02 0.01 -0.01 0 -0.01 0.01 -0.02 0 -0.01 0.01 -0.01 0.01 -0.02 0 -0 0.01 -0.02 0.01 -0.02 0 -0 0.01 -0.02 0.01 -0.01 0 -0 0.01 -0.02 0 -0.01 0 -0.01 0.01 -0.02 0 -0.01 0.01 -0.01 0.01 -0.02 0 -0 0.01 -0.02 0.02 -0.05 0.01 -0.02 0 -0.01 0 -0.01 0.01 -0.02 0 -0.01 0 -0.01 0.01 -0.02 0 -0 0.01 -0.02 0.01 -0.02 0 -0 0.01 -0.02 0 -0 0.01 -0.03 0 -0.01 0 -0.01 0.01 -0.02 0.01 -0.02 0.01 -0.02 0 -0 0.01 -0.02 0.01 -0.02 0 -0 0.01 -0.02c0.1,-0.28 0.17,-0.54 0.23,-0.69 -0.08,1.38 -0.88,2.3 -1.55,2.59 -0.72,0.31 -1.93,0.09 -2.51,-0.45 -0.4,-0.37 -0.64,-1.22 -0.65,-2.03 0.04,-0.8 0.15,-1.72 0.45,-2.43l0 -0 0 -0.01 0 -0 0 -0.01 0 -0.01 0 -0.01 0 -0.01 0 -0.01 0 -0.01 0 -0 0 -0.01 0 -0.01 0 -0.01 0 -0.01 0 -0.01 0 -0.01 0 -0.01 0 -0.01 0 -0.01 0 -0.01 0 -0.01 0 -0.01 0 -0.01 0 -0.01 0 -0.01 0 -0.01 0 -0.01 0 -0.01 0 -0 0 -0 0 -0.01 0 -0.01 0 -0.01 0 -0.01 0 -0.01 0 -0.01 0 -0 0 -0 0 -0.01 0 -0.01 0 -0.01 0 -0.01 0 -0.01 0.01 -0.01 0 -0 0 -0.01 0 -0.01 0 -0.01 0 -0.01 0.01 -0.01 0 -0.01 0 -0.01 0 -0.01 0 -0.01 0 -0.01 0 -0 0 -0 0 -0.01 0 -0.01 0 -0.01 0 -0.01 0 -0.01 0 -0.01 0 -0 0 -0.01 0 -0.01 0 -0.01 0 -0.01 0 -0.01 0.01 -0.01z"/>
     <path class="fil3" d="M11.06 24.87l-2.87 -1.84c0.01,0.02 0.02,0.04 0.03,0.05l0 0.01c0.01,0.02 0.02,0.04 0.02,0.05l0 0c0.01,0.02 0.01,0.03 0.02,0.05l0 0.01c0.01,0.02 0.01,0.03 0.02,0.05l0 0c0.01,0.02 0.01,0.03 0.02,0.05l0 0.01c0.01,0.04 0.02,0.07 0.03,0.11l0 0c0,0.02 0.01,0.03 0.01,0.05l0 0.01c0,0.02 0.01,0.03 0.01,0.05l0 0.01c0,0.01 0,0.03 0.01,0.04l0 0.02 0 0.03 0 0.02 0 0.04 0 0.02 0 0.03 0 0.03 0 0.03 0 0.03 0 0.02c-0.02,0.92 -0.77,1.78 -1.67,2.03 -0.48,0.16 -1.22,0.17 -1.84,-0.3 -0.76,-0.58 -0.95,-1.47 -0.9,-2.38 0.04,-0.73 0.23,-1.58 0.55,-2.53l-0 0 0 -0c-0.07,0.13 -0.13,0.25 -0.19,0.38l-0.07 0.14 -0.01 0.01c-0.02,0.05 -0.04,0.09 -0.06,0.14l-0 0c-0.16,0.33 -0.29,0.65 -0.41,0.97l-0 0c-0.05,0.13 -0.1,0.26 -0.14,0.39l-0 0c-0.03,0.08 -0.06,0.17 -0.08,0.25l-0 0.01c-0.01,0.04 -0.02,0.08 -0.04,0.11l-0.01 0.02 -0.01 0.04 -0.01 0.02 -0.01 0.04 -0.01 0.02 -0.01 0.04 -0.01 0.02c-0.04,0.16 -0.08,0.31 -0.12,0.46l-0 0.01c-0.01,0.04 -0.02,0.07 -0.02,0.11l-0 0 -0.01 0.04 -0 0.02 -0.01 0.04 -0 0.02 -0.01 0.04 -0 0.01c-0.02,0.13 -0.04,0.25 -0.05,0.37l-0 0.01 -0 0.04 -0 0.02c-0,0.03 -0.01,0.06 -0.01,0.09l-0 0.02 -0 0.04 -0 0.01 -0 0.04 -0 0.01c-0,0.03 -0,0.07 -0,0.1l0 0.01c-0,0.07 -0,0.13 -0,0.2 0,0.16 0.02,0.31 0.04,0.46 0.01,0.06 0.02,0.11 0.03,0.17l0.01 0.06c0.01,0.04 0.02,0.07 0.03,0.11l0.02 0.05 0.02 0.05 0.02 0.05 0.02 0.05 0.02 0.05 0.02 0.05 0.02 0.05 0.02 0.05 0.02 0.05c0.01,0.02 0.02,0.03 0.02,0.05 0.02,0.03 0.03,0.07 0.05,0.1l0.03 0.05c0.01,0.02 0.02,0.03 0.03,0.05l0.03 0.05 0.03 0.05 0.03 0.05 0.03 0.05 0.03 0.05 0.03 0.05 0.03 0.05 0.03 0.04 0.03 0.04 0.04 0.04 0.04 0.04 0.04 0.04c0.02,0.03 0.05,0.06 0.08,0.08 0.01,0.01 0.03,0.03 0.04,0.04l0.04 0.04 0.04 0.04c0.04,0.04 0.08,0.08 0.13,0.11l0.04 0.04c0.03,0.02 0.06,0.05 0.09,0.07 0.03,0.02 0.06,0.05 0.09,0.07l0.05 0.03 0.05 0.03c0.05,0.03 0.1,0.06 0.15,0.09 0.02,0.01 0.03,0.02 0.05,0.03l0.05 0.03 0.05 0.03 0.05 0.03 0.05 0.02 0.05 0.02 0.04 0.02 0.04 0.02c0.03,0.01 0.05,0.02 0.08,0.03l0.04 0.01 0.04 0.01c0.05,0.02 0.11,0.03 0.16,0.05l0.04 0.01 0.04 0.01 0.04 0.01c0.03,0.01 0.05,0.01 0.08,0.02l0.04 0.01 0.04 0.01c0.04,0.01 0.08,0.01 0.13,0.02l0.04 0c0.03,0 0.06,0 0.09,0.01l0.04 0 0.04 0c0.04,0 0.09,0 0.13,0l0.04 -0 0.04 -0 0.05 -0 0.05 -0c0.03,-0 0.06,-0 0.09,-0.01l0.05 -0 0.05 -0.01 0.05 -0.01 0.05 -0.01 0.05 -0.01 0.05 -0.01 0.05 -0.01 0.05 -0.01 0.05 -0.01 0.05 -0.01 0.05 -0.01c0.03,-0.01 0.07,-0.02 0.1,-0.02l0.05 -0.01 0.05 -0.01 0.05 -0.01 0.05 -0.01 0.05 -0.02 0.05 -0.02 0.05 -0.02 0.05 -0.02 0.05 -0.02 0.05 -0.02 0.05 -0.02 0.05 -0.02 0.05 -0.02 0.05 -0.02 0.05 -0.02 0.05 -0.02 0.06 -0.02 0.06 -0.03 0.01 -0 0.06 -0.03 0.01 -0.01 0.04 -0.02 0.02 -0.01 0.05 -0.03 0.02 -0.01 0.05 -0.03 0 -0 0.05 -0.03 0.01 -0.01 0.03 -0.02 0.04 -0.02 0.03 -0.02 0.01 -0.01 0.05 -0.03 0.01 -0.01 0.04 -0.02 0.03 -0.02 0.04 -0.03 0.01 -0 0.05 -0.03 0.01 -0.01 0.04 -0.03 0.03 -0.02 0.01 -0.01 0.03 -0.02 0.04 -0.03 0.02 -0.02 0.02 -0.02 0.04 -0.03 0.01 -0.01 0.03 -0.02 0.01 -0.01 0.05 -0.04 0.01 -0.01c0.04,-0.03 0.08,-0.07 0.13,-0.1l0.02 -0.02 0.04 -0.03 0.01 -0.01c0.31,-0.26 0.59,-0.54 0.85,-0.84l0 0c0.32,-0.37 0.61,-0.76 0.89,-1.15l0 0z"/>
    </g>
    <g>
     <path class="fil4" d="M17.69 18.86l2.28 3.81c0.02,0.04 0.04,0.08 0.06,0.11 0.02,0.03 0.04,0.07 0.05,0.1 0.03,0.06 0.05,0.12 0.07,0.18 0.02,0.06 0.04,0.13 0.05,0.21l-0.03 -3.01c0,-0.32 -0.05,-0.53 -0.15,-0.63 -0.1,-0.09 -0.28,-0.15 -0.56,-0.16l-0.11 0 0 -0.62 2.23 0 0 0.62 -0.11 0c-0.27,0.01 -0.45,0.07 -0.54,0.16 -0.1,0.1 -0.14,0.31 -0.14,0.64l0 4.66 -1.09 0 -2.67 -4.37c-0.06,-0.08 -0.1,-0.17 -0.14,-0.26 -0.04,-0.1 -0.06,-0.2 -0.09,-0.31l0.03 3.55c0,0.34 0.07,0.55 0.22,0.63 0.14,0.08 0.34,0.12 0.59,0.13l0 0.64 -2.19 0 0 -0.65c0.05,-0.01 0.09,-0.01 0.14,-0.02 0.04,-0.01 0.09,-0.01 0.13,-0.01 0.14,-0.02 0.26,-0.06 0.35,-0.12 0.09,-0.06 0.14,-0.25 0.14,-0.54l0 -3.22c0,-0.38 -0.04,-0.62 -0.12,-0.73 -0.08,-0.11 -0.28,-0.17 -0.62,-0.17l0 -0.62 2.21 0zm7.81 -0.1l0 1.74 -0.48 0c-0.06,-0.37 -0.22,-0.68 -0.49,-0.92 -0.27,-0.24 -0.56,-0.36 -0.88,-0.36 -0.03,0 -0.06,0 -0.09,0 -0.03,0 -0.06,0.01 -0.09,0.01 -0.14,0.02 -0.28,0.09 -0.39,0.19 -0.12,0.1 -0.18,0.25 -0.18,0.44 0,0.16 0.05,0.3 0.15,0.41 0.1,0.11 0.21,0.19 0.32,0.27 0.02,0.02 0.04,0.03 0.07,0.05 0.03,0.01 0.05,0.03 0.07,0.04l0.83 0.43c0.39,0.2 0.73,0.45 1.03,0.73 0.3,0.27 0.45,0.69 0.45,1.25 0,0.66 -0.18,1.18 -0.54,1.54 -0.36,0.36 -0.82,0.55 -1.36,0.55 -0.05,0 -0.1,-0 -0.15,-0 -0.05,-0 -0.1,-0.01 -0.15,-0.01 -0.24,-0.03 -0.48,-0.1 -0.71,-0.2 -0.23,-0.09 -0.45,-0.21 -0.66,-0.36l-0.08 0.46 -0.49 0 0 -2.02 0.49 0c0.12,0.44 0.33,0.81 0.65,1.11 0.31,0.3 0.67,0.44 1.06,0.44 0.22,0 0.42,-0.07 0.59,-0.22 0.18,-0.15 0.26,-0.36 0.26,-0.64 0,-0.23 -0.08,-0.42 -0.25,-0.58 -0.16,-0.15 -0.34,-0.28 -0.54,-0.39 -0.1,-0.06 -0.2,-0.11 -0.3,-0.15 -0.1,-0.05 -0.18,-0.09 -0.26,-0.13 -0.01,-0.01 -0.03,-0.01 -0.04,-0.02 -0.01,-0.01 -0.02,-0.02 -0.03,-0.03 -0.37,-0.19 -0.71,-0.42 -1,-0.68 -0.3,-0.26 -0.45,-0.66 -0.45,-1.22 0,-0.6 0.18,-1.05 0.54,-1.35 0.36,-0.3 0.77,-0.45 1.23,-0.45 0.24,0 0.46,0.04 0.68,0.12 0.22,0.08 0.43,0.18 0.64,0.31l0.09 -0.36 0.48 0zm0.43 6.19l0 -0.61c0.34,0.01 0.54,-0.05 0.62,-0.16 0.08,-0.11 0.12,-0.36 0.12,-0.74l0 -3.06c0,-0.38 -0.04,-0.62 -0.12,-0.73 -0.08,-0.11 -0.29,-0.17 -0.62,-0.17l0 -0.62 2.84 0c0.79,0 1.51,0.25 2.14,0.72 0.63,0.47 0.95,1.24 0.95,2.29 0,0.06 -0,0.12 -0,0.18 -0,0.06 -0.01,0.12 -0.01,0.18 -0.03,0.29 -0.08,0.58 -0.17,0.87 -0.09,0.29 -0.21,0.55 -0.37,0.78 -0.28,0.42 -0.63,0.7 -1.04,0.85 -0.41,0.15 -0.83,0.22 -1.26,0.23 -0.02,0 -0.04,0 -0.06,0 -0.02,0 -0.04,0 -0.06,0l-2.96 0zm2.14 -5.48l-0.01 4.16c-0,0.31 0.05,0.51 0.16,0.6 0.11,0.09 0.28,0.13 0.52,0.13 0.63,0 1.07,-0.26 1.31,-0.77 0.25,-0.51 0.37,-1.09 0.37,-1.74 0,-0.07 -0,-0.15 -0.01,-0.22 -0.01,-0.08 -0.01,-0.15 -0.02,-0.22 -0.05,-0.46 -0.2,-0.89 -0.43,-1.28 -0.23,-0.39 -0.56,-0.6 -1,-0.63 -0.15,-0.01 -0.3,-0.02 -0.45,-0.02 -0.15,0 -0.3,0 -0.45,0zm8.78 3.46l-0.11 2.02 -4.95 0 0 -0.61c0.33,0.01 0.54,-0.05 0.62,-0.16 0.08,-0.11 0.12,-0.36 0.12,-0.74l0 -3.06c0,-0.38 -0.04,-0.62 -0.12,-0.73 -0.08,-0.11 -0.29,-0.17 -0.62,-0.17l0 -0.62 2.87 0 0 0.62c-0.33,0.01 -0.54,0.07 -0.62,0.18 -0.08,0.11 -0.12,0.36 -0.12,0.74l0 3.29c0,0.3 0.07,0.49 0.21,0.55 0.14,0.06 0.31,0.09 0.52,0.09 0.52,0 0.92,-0.06 1.2,-0.19 0.28,-0.12 0.45,-0.53 0.51,-1.21l0.49 -0.01z"/>
     <path class="fil4" d="M16.68 30.62l0 2.22 -1.21 0 0 -6.19 2.15 0c0.62,0 1.1,0.18 1.46,0.55 0.36,0.37 0.54,0.84 0.54,1.44 0,0.59 -0.18,1.07 -0.54,1.44 -0.36,0.36 -0.84,0.55 -1.46,0.55l-0.94 0zm0 -0.97l0.94 0c0.26,0 0.45,-0.1 0.59,-0.29 0.14,-0.19 0.2,-0.43 0.2,-0.72 0,-0.3 -0.07,-0.54 -0.2,-0.74 -0.13,-0.19 -0.33,-0.29 -0.59,-0.29l-0.94 0 0 2.04zm5.83 3.19c-0.03,-0.08 -0.07,-0.16 -0.09,-0.25 -0.03,-0.09 -0.05,-0.18 -0.06,-0.28 -0.11,0.19 -0.25,0.34 -0.41,0.45 -0.16,0.11 -0.35,0.17 -0.57,0.17 -0.38,0 -0.68,-0.12 -0.91,-0.37 -0.23,-0.25 -0.34,-0.58 -0.34,-1 0,-0.45 0.15,-0.8 0.44,-1.05 0.29,-0.25 0.72,-0.37 1.29,-0.37l0.46 0 0 -0.37c0,-0.22 -0.04,-0.4 -0.12,-0.52 -0.08,-0.12 -0.2,-0.18 -0.36,-0.18 -0.14,0 -0.24,0.05 -0.31,0.15 -0.07,0.1 -0.1,0.24 -0.1,0.42l-1.17 -0 -0.01 -0.03c-0.01,-0.4 0.13,-0.74 0.44,-1.02 0.31,-0.28 0.72,-0.42 1.23,-0.42 0.48,0 0.87,0.14 1.17,0.42 0.3,0.28 0.45,0.68 0.45,1.19l0 1.86c0,0.23 0.02,0.44 0.05,0.63 0.03,0.19 0.08,0.39 0.15,0.58l-1.2 0zm-0.79 -0.82c0.12,0 0.23,-0.03 0.34,-0.1 0.1,-0.07 0.19,-0.15 0.25,-0.25l0 -0.84 -0.46 0c-0.18,0 -0.32,0.06 -0.4,0.19 -0.08,0.13 -0.12,0.29 -0.12,0.48 0,0.15 0.03,0.28 0.11,0.37 0.07,0.1 0.17,0.14 0.29,0.14zm3.97 -1.07l0.01 0.05 0.67 -2.75 1.29 0 -1.55 5.29c-0.12,0.33 -0.27,0.61 -0.47,0.83 -0.19,0.22 -0.49,0.33 -0.89,0.33 -0.1,0 -0.19,-0.01 -0.26,-0.02 -0.08,-0.02 -0.18,-0.04 -0.31,-0.08l0.14 -0.89c0.05,0.01 0.08,0.02 0.1,0.02 0.02,0 0.04,0.01 0.07,0.01 0.18,0 0.31,-0.05 0.4,-0.14 0.09,-0.09 0.15,-0.22 0.19,-0.37l0.11 -0.35 -1.35 -4.63 1.3 0 0.55 2.71zm3.51 -2.71l0.05 0.58c0.12,-0.22 0.28,-0.38 0.46,-0.5 0.18,-0.12 0.4,-0.17 0.63,-0.17 0.23,0 0.44,0.06 0.61,0.18 0.17,0.12 0.3,0.31 0.39,0.56 0.12,-0.24 0.27,-0.42 0.46,-0.55 0.19,-0.13 0.4,-0.2 0.65,-0.2 0.38,0 0.68,0.16 0.9,0.47 0.22,0.31 0.33,0.79 0.33,1.43l0 2.78 -1.21 0 0 -2.78c0,-0.35 -0.04,-0.6 -0.11,-0.73 -0.08,-0.13 -0.2,-0.2 -0.36,-0.2 -0.12,0 -0.22,0.03 -0.31,0.1 -0.09,0.07 -0.17,0.16 -0.23,0.28 0,0.05 0.01,0.11 0.01,0.16 0,0.05 0,0.11 0,0.16l0 3.01 -1.2 0 0 -2.78c0,-0.35 -0.04,-0.59 -0.12,-0.73 -0.08,-0.14 -0.2,-0.2 -0.36,-0.2 -0.11,0 -0.21,0.03 -0.3,0.08 -0.09,0.06 -0.16,0.13 -0.22,0.23l0 3.4 -1.2 0 0 -4.6 1.13 0zm7.06 4.68c-0.58,0 -1.04,-0.19 -1.38,-0.57 -0.34,-0.38 -0.51,-0.86 -0.51,-1.44l0 -0.65c0,-0.62 0.16,-1.13 0.47,-1.52 0.32,-0.4 0.75,-0.59 1.31,-0.59 0.54,0 0.95,0.18 1.25,0.54 0.29,0.36 0.44,0.85 0.44,1.47l0 0.74 -2.28 0 0 0.02c0,0.3 0.07,0.55 0.21,0.74 0.14,0.19 0.35,0.29 0.62,0.29 0.23,0 0.41,-0.03 0.55,-0.08 0.14,-0.05 0.31,-0.13 0.51,-0.25l0.31 0.77c-0.16,0.15 -0.37,0.28 -0.64,0.38 -0.27,0.1 -0.56,0.15 -0.87,0.15zm-0.1 -3.8c-0.19,0 -0.34,0.09 -0.43,0.26 -0.09,0.18 -0.14,0.41 -0.15,0.71l1.08 0 0 -0.17c0,-0.26 -0.04,-0.45 -0.12,-0.59 -0.08,-0.14 -0.21,-0.21 -0.39,-0.21zm3.4 -0.88l0.05 0.63c0.13,-0.23 0.28,-0.4 0.47,-0.53 0.19,-0.13 0.39,-0.19 0.62,-0.19 0.38,0 0.68,0.15 0.9,0.44 0.22,0.29 0.33,0.76 0.33,1.39l0 2.85 -1.21 0 0 -2.85c0,-0.32 -0.04,-0.54 -0.13,-0.67 -0.09,-0.13 -0.23,-0.19 -0.42,-0.19 -0.11,0 -0.21,0.03 -0.3,0.09 -0.09,0.06 -0.17,0.13 -0.23,0.23l0 3.4 -1.21 0 0 -4.6 1.13 0zm4.56 -1.14l0 1.14 0.64 0 0 0.88 -0.64 0 0 2.31c0,0.19 0.03,0.32 0.08,0.4 0.06,0.08 0.13,0.12 0.22,0.12 0.07,0 0.14,-0 0.19,-0.01 0.05,-0.01 0.11,-0.02 0.17,-0.04l0.09 0.9c-0.13,0.04 -0.25,0.07 -0.37,0.08 -0.12,0.02 -0.25,0.02 -0.39,0.02 -0.39,0 -0.68,-0.12 -0.89,-0.36 -0.2,-0.24 -0.31,-0.62 -0.31,-1.14l0 -2.31 -0.54 0 0 -0.88 0.54 0 0 -1.14 1.21 0zm3.32 4.54c0,-0.13 -0.05,-0.24 -0.15,-0.34 -0.1,-0.09 -0.3,-0.21 -0.59,-0.35 -0.46,-0.17 -0.81,-0.37 -1.04,-0.59 -0.23,-0.22 -0.35,-0.5 -0.35,-0.85 0,-0.37 0.15,-0.69 0.44,-0.96 0.3,-0.27 0.69,-0.4 1.18,-0.4 0.51,0 0.92,0.14 1.22,0.41 0.3,0.27 0.45,0.62 0.44,1.04l-0.01 0.03 -1.16 0c0,-0.19 -0.04,-0.35 -0.12,-0.46 -0.08,-0.11 -0.2,-0.17 -0.37,-0.17 -0.13,0 -0.24,0.04 -0.33,0.13 -0.09,0.09 -0.13,0.19 -0.13,0.32 0,0.14 0.04,0.25 0.13,0.33 0.09,0.08 0.29,0.2 0.59,0.34 0.48,0.17 0.84,0.36 1.07,0.58 0.23,0.22 0.35,0.52 0.35,0.89 0,0.39 -0.16,0.71 -0.47,0.96 -0.31,0.25 -0.72,0.37 -1.23,0.37 -0.53,0 -0.95,-0.15 -1.26,-0.46 -0.31,-0.31 -0.46,-0.66 -0.44,-1.04l0.01 -0.03 1.11 0c0.01,0.24 0.06,0.42 0.17,0.53 0.11,0.11 0.26,0.16 0.45,0.16 0.16,0 0.28,-0.04 0.37,-0.12 0.08,-0.08 0.13,-0.19 0.13,-0.33zm3.76 1.2l0 -6.19 1.82 0c0.64,0 1.14,0.14 1.49,0.43 0.36,0.28 0.54,0.71 0.54,1.27 0,0.29 -0.06,0.56 -0.19,0.78 -0.13,0.23 -0.33,0.4 -0.59,0.51 0.33,0.08 0.57,0.24 0.72,0.5 0.16,0.25 0.23,0.55 0.23,0.9 0,0.59 -0.17,1.04 -0.51,1.35 -0.34,0.31 -0.82,0.46 -1.46,0.46l-2.07 0zm1.21 -2.73l0 1.77 0.85 0c0.26,0 0.45,-0.07 0.57,-0.21 0.13,-0.14 0.19,-0.35 0.19,-0.63 0,-0.3 -0.06,-0.52 -0.16,-0.68 -0.11,-0.16 -0.28,-0.24 -0.52,-0.24l-0.94 0zm0 -0.84l0.67 0c0.25,-0.01 0.44,-0.08 0.57,-0.21 0.13,-0.14 0.2,-0.34 0.2,-0.59 0,-0.29 -0.07,-0.5 -0.2,-0.64 -0.14,-0.13 -0.34,-0.2 -0.62,-0.2l-0.61 0 0 1.65zm5.78 3.58c-0.03,-0.08 -0.07,-0.16 -0.09,-0.25 -0.03,-0.09 -0.05,-0.18 -0.06,-0.28 -0.11,0.19 -0.25,0.34 -0.41,0.45 -0.16,0.11 -0.35,0.17 -0.57,0.17 -0.38,0 -0.68,-0.12 -0.91,-0.37 -0.23,-0.25 -0.34,-0.58 -0.34,-1 0,-0.45 0.15,-0.8 0.44,-1.05 0.29,-0.25 0.72,-0.37 1.29,-0.37l0.46 0 0 -0.37c0,-0.22 -0.04,-0.4 -0.12,-0.52 -0.08,-0.12 -0.2,-0.18 -0.36,-0.18 -0.14,0 -0.24,0.05 -0.31,0.15 -0.07,0.1 -0.1,0.24 -0.1,0.42l-1.17 -0 -0.01 -0.03c-0.01,-0.4 0.13,-0.74 0.44,-1.02 0.31,-0.28 0.72,-0.42 1.23,-0.42 0.48,0 0.87,0.14 1.17,0.42 0.3,0.28 0.45,0.68 0.45,1.19l0 1.86c0,0.23 0.02,0.44 0.05,0.63 0.03,0.19 0.08,0.39 0.15,0.58l-1.2 0zm-0.79 -0.82c0.12,0 0.23,-0.03 0.34,-0.1 0.1,-0.07 0.19,-0.15 0.25,-0.25l0 -0.84 -0.46 0c-0.18,0 -0.32,0.06 -0.4,0.19 -0.08,0.13 -0.12,0.29 -0.12,0.48 0,0.15 0.03,0.28 0.11,0.37 0.07,0.1 0.17,0.14 0.29,0.14zm3.66 -3.78l0.05 0.63c0.13,-0.23 0.28,-0.4 0.47,-0.53 0.19,-0.13 0.39,-0.19 0.62,-0.19 0.38,0 0.68,0.15 0.9,0.44 0.22,0.29 0.33,0.76 0.33,1.39l0 2.85 -1.21 0 0 -2.85c0,-0.32 -0.04,-0.54 -0.13,-0.67 -0.09,-0.13 -0.23,-0.19 -0.42,-0.19 -0.11,0 -0.21,0.03 -0.3,0.09 -0.09,0.06 -0.17,0.13 -0.23,0.23l0 3.4 -1.21 0 0 -4.6 1.13 0zm4.55 2.7l-0.22 0 0 1.9 -1.21 0 0 -6.63 1.21 0 0 3.77 0.2 0 0.78 -1.73 1.39 0 -1.2 2.07 1.4 2.53 -1.38 0 -0.96 -1.9z"/>
    </g>
   </g>
  </g>
 </g>
</svg>
