<?xml version="1.0" encoding="UTF-8"?>
<!DOCTYPE svg PUBLIC "-//W3C//DTD SVG 1.1//EN" "http://www.w3.org/Graphics/SVG/1.1/DTD/svg11.dtd">
<!-- Creator: CorelDRAW -->
<svg xmlns="http://www.w3.org/2000/svg" xml:space="preserve" version="1.1" style="shape-rendering:geometricPrecision; text-rendering:geometricPrecision; image-rendering:optimizeQuality; fill-rule:evenodd; clip-rule:evenodd"
viewBox="0 0 162.69 122.02"
 xmlns:xlink="http://www.w3.org/1999/xlink"
 xmlns:xodm="http://www.corel.com/coreldraw/odm/2003">
 <defs>
  <style type="text/css">
   <![CDATA[
    .fil0 {fill:none}
    .fil4 {fill:#727376}
    .fil1 {fill:#314186;fill-rule:nonzero}
    .fil3 {fill:#F47D35;fill-rule:nonzero}
    .fil2 {fill:#FCBA41;fill-rule:nonzero}
   ]]>
  </style>
 </defs>
 <g id="Layer_x0020_1">
  <metadata id="CorelCorpID_0Corel-Layer"/>
  <g id="_2643634042592">
   <g>
    <g>
     <rect class="fil0" x="0" y="-0" width="162.69" height="122.02"/>
    </g>
   </g>
   <g>
    <g>
     <g>
      <path class="fil1" d="M60.67 72.52l0 4.81 4.38 0c0.78,0 1.39,-0.11 1.83,-0.32 0.79,-0.39 1.18,-1.14 1.18,-2.25 0,-0.94 -0.38,-1.58 -1.15,-1.93 -0.43,-0.2 -1.03,-0.3 -1.8,-0.31l-4.44 0zm0 -6.96l0 3.98 4.38 0c0.78,0 1.42,-0.15 1.91,-0.45 0.49,-0.3 0.73,-0.83 0.73,-1.59 0,-0.84 -0.32,-1.4 -0.97,-1.66 -0.56,-0.19 -1.27,-0.28 -2.13,-0.28l-3.92 0zm9.79 -1.21c0.55,0.77 0.83,1.69 0.83,2.75 0,1.1 -0.28,1.99 -0.83,2.65 -0.31,0.38 -0.77,0.72 -1.38,1.03 0.92,0.34 1.62,0.86 2.08,1.59 0.47,0.72 0.7,1.61 0.7,2.64 0,1.07 -0.27,2.03 -0.8,2.88 -0.34,0.56 -0.77,1.04 -1.28,1.42 -0.58,0.44 -1.25,0.74 -2.04,0.91 -0.78,0.16 -1.63,0.24 -2.55,0.24l-8.13 0 0 -18.04 8.71 0c2.2,0.03 3.76,0.67 4.68,1.92z"/>
      <polygon class="fil1" points="77.79,80.46 74.05,80.46 74.05,62.42 77.79,62.42 "/>
      <polygon class="fil1" points="80.56,62.42 84.33,62.42 84.33,77.22 93.34,77.22 93.34,80.46 80.56,80.46 "/>
      <polygon class="fil1" points="95.12,62.42 98.89,62.42 98.89,77.22 107.9,77.22 107.9,80.46 95.12,80.46 "/>
      <path class="fil1" d="M118.91 66.16c-0.48,-0.4 -1.15,-0.6 -2.01,-0.6l-3.4 0 0 5.31 3.4 0c0.86,0 1.53,-0.22 2.01,-0.65 0.48,-0.43 0.72,-1.12 0.72,-2.06 0,-0.94 -0.24,-1.61 -0.72,-2.01zm2.88 6.5c-1.06,0.88 -2.56,1.32 -4.52,1.32l-3.76 0 0 6.49 -3.74 0 0 -18.04 7.74 0c1.79,0 3.21,0.47 4.27,1.4 1.06,0.93 1.59,2.37 1.59,4.32 0,2.13 -0.53,3.63 -1.58,4.51z"/>
      <path class="fil1" d="M128.7 73.65l4.62 0 -2.28 -7.1 -2.34 7.1zm0.25 -11.22l4.26 0 6.38 18.04 -4.09 0 -1.19 -3.71 -6.64 0 -1.22 3.71 -3.94 0 6.44 -18.04z"/>
      <polygon class="fil1" points="149.13,62.42 153.4,62.42 147.37,73.7 147.37,80.46 143.6,80.46 143.6,73.7 137.36,62.42 141.8,62.42 145.55,70.28 "/>
     </g>
     <g>
      <path class="fil1" d="M65.28 56.51c0.39,0 0.76,-0.04 1.11,-0.11 0.35,-0.07 0.66,-0.2 0.93,-0.38 0.27,-0.18 0.48,-0.42 0.64,-0.72 0.16,-0.3 0.24,-0.69 0.24,-1.16 0,-0.93 -0.26,-1.59 -0.78,-1.98 -0.52,-0.4 -1.21,-0.59 -2.07,-0.59l-4.32 0 0 4.95 4.24 0zm-0.23 -7.65c0.71,0 1.29,-0.17 1.74,-0.51 0.45,-0.34 0.68,-0.88 0.68,-1.64 0,-0.42 -0.07,-0.77 -0.23,-1.04 -0.15,-0.27 -0.35,-0.48 -0.61,-0.63 -0.25,-0.15 -0.54,-0.26 -0.87,-0.32 -0.33,-0.06 -0.67,-0.09 -1.02,-0.09l-3.71 0 0 4.22 4.02 0zm0.51 -7.3c0.86,0 1.64,0.08 2.35,0.23 0.71,0.15 1.31,0.4 1.82,0.75 0.5,0.34 0.9,0.81 1.17,1.38 0.28,0.57 0.42,1.28 0.42,2.12 0,0.91 -0.21,1.67 -0.62,2.27 -0.41,0.61 -1.02,1.1 -1.83,1.49 1.11,0.32 1.94,0.88 2.49,1.68 0.55,0.8 0.82,1.76 0.82,2.89 0,0.91 -0.18,1.7 -0.53,2.36 -0.35,0.67 -0.83,1.21 -1.43,1.63 -0.6,0.42 -1.28,0.73 -2.05,0.93 -0.76,0.2 -1.55,0.3 -2.36,0.3l-8.74 0 0 -18.04 8.49 0z"/>
      <polygon class="fil1" points="77.81,41.55 77.81,48.48 85.11,48.48 85.11,41.55 89.08,41.55 89.08,59.59 85.11,59.59 85.11,51.81 77.81,51.81 77.81,59.59 73.84,59.59 73.84,41.55 "/>
      <path class="fil1" d="M101.28 52.62l-2.27 -6.62 -0.05 0 -2.35 6.62 4.67 0zm-0.23 -11.06l6.74 18.04 -4.12 0 -1.36 -4.02 -6.75 0 -1.41 4.02 -3.99 0 6.82 -18.04 4.07 0z"/>
      <path class="fil1" d="M117.17 49.71c0.91,0 1.59,-0.2 2.05,-0.61 0.45,-0.4 0.68,-1.06 0.68,-1.97 0,-0.87 -0.23,-1.51 -0.68,-1.91 -0.46,-0.4 -1.14,-0.59 -2.05,-0.59l-4.35 0 0 5.08 4.35 0zm1.41 -8.16c0.81,0 1.54,0.13 2.19,0.39 0.65,0.26 1.2,0.62 1.67,1.07 0.46,0.45 0.82,0.98 1.06,1.58 0.24,0.6 0.37,1.24 0.37,1.93 0,1.06 -0.22,1.98 -0.67,2.75 -0.45,0.78 -1.17,1.37 -2.18,1.77l0 0.05c0.49,0.14 0.89,0.34 1.21,0.62 0.32,0.28 0.58,0.61 0.78,0.99 0.2,0.38 0.35,0.8 0.44,1.25 0.09,0.45 0.16,0.91 0.19,1.36 0.01,0.29 0.03,0.62 0.05,1.01 0.02,0.39 0.05,0.78 0.09,1.19 0.04,0.41 0.11,0.79 0.2,1.15 0.09,0.36 0.23,0.67 0.42,0.92l-3.97 0c-0.22,-0.57 -0.35,-1.25 -0.4,-2.05 -0.05,-0.79 -0.13,-1.55 -0.23,-2.27 -0.13,-0.94 -0.42,-1.63 -0.86,-2.07 -0.44,-0.44 -1.15,-0.66 -2.15,-0.66l-3.97 0 0 7.05 -3.97 0 0 -18.04 9.73 0z"/>
      <path class="fil1" d="M135.81 52.62l-2.27 -6.62 -0.05 0 -2.35 6.62 4.67 0zm-0.23 -11.06l6.75 18.04 -4.12 0 -1.36 -4.02 -6.75 0 -1.42 4.02 -3.99 0 6.82 -18.04 4.07 0z"/>
      <polygon class="fil1" points="139.65,44.89 139.65,41.55 154.43,41.55 154.43,44.89 149.02,44.89 149.02,59.59 145.06,59.59 145.06,44.89 "/>
     </g>
    </g>
    <g>
     <path class="fil2" d="M18.54 47.52l7.16 0c0.8,0 1.58,0.07 2.32,0.2 0.75,0.13 1.41,0.37 1.98,0.72 0.57,0.34 1.03,0.82 1.38,1.44 0.34,0.61 0.52,1.4 0.52,2.35 0,1.72 -0.52,2.97 -1.55,3.73 2.66,0.51 4.63,1.06 6.71,2.07 0.87,-0.64 1.59,-1.37 2.15,-2.18 0.94,-1.38 1.4,-3.1 1.4,-5.17 0,-1.91 -0.32,-3.52 -0.95,-4.82 -0.63,-1.3 -1.52,-2.34 -2.67,-3.13 -1.15,-0.78 -2.52,-1.35 -4.13,-1.69 -1.61,-0.34 -3.39,-0.52 -5.34,-0.52l-9 0 0 7z"/>
     <path class="fil3" d="M33.02 71.74c-0.36,0.69 -0.85,1.24 -1.46,1.64 -0.61,0.4 -1.32,0.69 -2.12,0.86 -0.8,0.17 -1.65,0.26 -2.53,0.26l-9.64 0 0 -11.25 9.81 0c1.95,0 3.52,0.45 4.71,1.35 1.19,0.9 1.78,2.4 1.78,4.5 0,1.07 -0.18,1.95 -0.54,2.64zm-6.63 -14.63l-9.12 0 0 -9.58 0 0 0 -7 -9.01 0 0 40.97 19.85 0c1.84,0 3.62,-0.23 5.37,-0.69 1.74,-0.46 3.29,-1.17 4.65,-2.12 1.36,-0.96 2.44,-2.19 3.24,-3.7 0.8,-1.51 1.2,-3.3 1.2,-5.37 0,-2.56 -0.67,-4.72 -1.86,-6.57 -2.31,-3.57 -7.31,-5.94 -14.32,-5.94z"/>
    </g>
    <rect class="fil4" x="49.13" y="37.48" width="1.38" height="47.06" rx="0.69" ry="0.47"/>
   </g>
  </g>
 </g>
</svg>
