<?xml version="1.0" encoding="UTF-8"?>
<!DOCTYPE svg PUBLIC "-//W3C//DTD SVG 1.1//EN" "http://www.w3.org/Graphics/SVG/1.1/DTD/svg11.dtd">
<!-- Creator: CorelDRAW -->
<svg xmlns="http://www.w3.org/2000/svg" xml:space="preserve" version="1.1" style="shape-rendering:geometricPrecision; text-rendering:geometricPrecision; image-rendering:optimizeQuality; fill-rule:evenodd; clip-rule:evenodd"
viewBox="0 0 162.69 122.02"
 xmlns:xlink="http://www.w3.org/1999/xlink"
 xmlns:xodm="http://www.corel.com/coreldraw/odm/2003">
 <defs>
  <style type="text/css">
   <![CDATA[
    .fil0 {fill:none}
    .fil4 {fill:none;fill-rule:nonzero}
    .fil1 {fill:#37348B;fill-rule:nonzero}
    .fil2 {fill:#EF7E17;fill-rule:nonzero}
    .fil3 {fill:#FEFEFE;fill-rule:nonzero}
   ]]>
  </style>
 </defs>
 <g id="Layer_x0020_1">
  <metadata id="CorelCorpID_0Corel-Layer"/>
  <g id="_2641997627312">
   <g>
    <rect class="fil0" x="0" y="-0" width="162.69" height="122.02"/>
   </g>
   <g>
    <g>
     <path class="fil1" d="M12.38 33.68l137.86 0 0 54.66 0 0 -105.12 0c1.73,0 3.38,-0.15 5.11,-0.45 5.33,-0.98 10.36,-3.23 14.57,-6.61 1.8,-1.43 3.45,-3.08 4.88,-4.96 2.18,-2.78 3.9,-5.86 5.03,-9.16 0.23,-0.68 0.38,-1.28 0.6,-1.88l-0.23 0.3 -0.15 0.53c0,-0.3 0.07,-0.6 0.07,-0.9 0.3,0 0.23,-0.38 0.38,-0.53 0.45,-2.1 0.75,-4.21 0.83,-6.31 0,-7.96 0,-15.92 0,-23.88l-1.2 0c-18.32,0 -36.64,0 -54.89,0 -2.25,-0.07 -4.43,-0.07 -6.68,-0.07l-1.05 0 0 -0.75 0 0zm69.08 13.07c0,1.35 0,2.78 0,4.21 -0.07,0.75 0.45,1.5 1.13,1.8 0.75,0.3 1.65,0.15 2.25,-0.38 0.38,-0.45 0.6,-1.13 0.53,-1.73 0,-1.28 0,-2.55 0,-3.83 -0.38,0 -0.68,0 -1.05,0 0,1.2 0,2.48 0,3.68 0,0.38 0,0.83 -0.3,1.05 -0.38,0.38 -0.98,0.3 -1.35,-0.07 -0.07,-0.07 -0.15,-0.23 -0.23,-0.38 -0.15,-1.43 0,-2.85 -0.07,-4.28l-0.9 -0.07 0 0zm4.58 0l0 1.05 1.43 0c0,1.65 0,3.3 0,4.88l0.98 0c0,-1.65 0,-3.23 0,-4.88l1.5 0c0,-0.38 0,-0.68 0,-1.05 -1.2,0 -2.55,0 -3.9,0l0 0zm4.5 0c0,1.95 0,3.98 0,5.93l1.05 0c0,-1.95 0,-3.98 0,-5.93l-1.05 0 0 0zm11.19 -0.07c0,1.95 0,3.98 0,5.93l1.05 0c0,-1.95 0,-3.98 0,-5.93l-1.05 0 0 0zm6.31 0.22c-0.22,0.45 -0.3,0.9 -0.3,1.43l-0.53 0c0,0.3 0,0.6 0,0.9l0.53 0c0,1.13 0,2.25 0,3.38l0.98 0c0,-1.13 0,-2.25 0,-3.38l0.75 0c0,-0.3 0,-0.6 0,-0.9l-0.75 0c0,-0.22 0,-0.53 0.15,-0.75 0.23,-0.08 0.45,-0.08 0.68,-0.08 0.07,-0.3 0.07,-0.53 0.15,-0.83 -0.53,-0.07 -1.2,-0.22 -1.65,0.22l0 0zm12.17 0.6c0,0.3 0,0.6 0,0.83l-0.45 0c0,0.3 0,0.6 0,0.9l0.45 0c0,0.98 0,1.95 0.07,2.85 0.23,0.68 1.05,0.68 1.58,0.45 0,-0.3 0,-0.6 -0.07,-0.9 -0.23,0 -0.53,0.15 -0.6,-0.15 -0.08,-0.75 0,-1.5 0,-2.25l0.68 0 0 -0.9 -0.75 0c0,-0.53 0,-1.05 0,-1.5 -0.3,0.23 -0.6,0.45 -0.9,0.68l0 0zm12.69 0l0 0.9 -0.45 0 0 0.9 0.45 0.08c0,0.75 0,1.5 0,2.25 0,0.3 0,0.75 0.3,0.9 0.38,0.3 0.98,0.38 1.35,0.08 0,-0.3 0,-0.6 -0.08,-0.83 -0.22,0 -0.6,0.15 -0.68,-0.15 -0.07,-0.75 0,-1.5 0,-2.25l0.68 0c0,-0.3 0,-0.6 0,-0.9l-0.53 0 0 -1.5c-0.3,0.07 -0.68,0.3 -1.05,0.53l0 0zm-28.38 1.35c0,-0.08 0,-0.38 0,-0.45 -0.3,0 -0.6,0 -0.9,0l0 4.28 0.98 0c0,-0.9 -0.07,-1.88 0.08,-2.78 0,-0.37 0.45,-0.83 0.9,-0.68 0.45,0.15 0.37,0.53 0.37,0.83 0,0.9 0,1.73 0,2.63l0.98 0c0,-1.05 0,-2.18 0,-3.23 0,-0.68 -0.45,-1.2 -1.13,-1.2 0,0 0,0 -0.08,0 -0.53,-0.07 -0.98,0.15 -1.28,0.6l0.07 0zm6.68 -0.53c-0.23,0.15 -0.38,0.38 -0.53,0.6 0,-0.15 0,-0.38 0,-0.53l-0.9 0c0,1.43 0,2.85 0,4.28l0.98 0c-0.07,-0.98 0,-1.95 0.15,-2.93 0.07,-0.45 0.68,-0.45 0.98,-0.3l0.3 -1.05c-0.3,-0.08 -0.68,-0.23 -0.98,-0.08l0 0zm1.13 1.2l0.9 0.15c0.08,-0.38 0.45,-0.6 0.83,-0.53 0,0 0,0 0,0 0.3,0 0.38,0.38 0.45,0.68 -0.53,0.22 -1.13,0.3 -1.65,0.53 -0.6,0.37 -0.83,1.2 -0.37,1.8 0.15,0.23 0.37,0.45 0.6,0.53 0.53,0.15 1.13,0 1.5,-0.45 0,0.6 0.68,0.3 1.05,0.38 -0.45,-1.2 0,-2.55 -0.3,-3.75 -0.3,-0.75 -1.28,-0.75 -1.95,-0.6 -0.6,0.23 -0.98,0.68 -1.05,1.28l0 0zm4.51 -1.13c-0.68,0.3 -0.9,1.13 -0.6,1.73 0.08,0.23 0.23,0.38 0.45,0.53 0.53,0.23 1.13,0.45 1.65,0.6 0,0.08 0.07,0.23 0.07,0.3 -0.22,0.38 -0.68,0.53 -1.05,0.3 -0.07,0 -0.07,-0.07 -0.07,-0.07 -0.15,-0.15 -0.23,-0.38 -0.38,-0.53 -0.3,0.07 -0.6,0.07 -0.9,0.15 0.07,0.3 0.23,0.53 0.38,0.75 0.53,0.53 1.43,0.75 2.1,0.45 0.75,-0.3 1.05,-1.13 0.75,-1.88 -0.07,-0.07 -0.07,-0.22 -0.15,-0.3 -0.53,-0.53 -1.28,-0.53 -1.95,-0.83 0,-0.07 -0.08,-0.15 -0.08,-0.23 0.23,-0.6 1.13,-0.37 1.35,0.15l0.9 -0.23c-0.07,-0.45 -0.38,-0.75 -0.75,-0.98 -0.6,-0.15 -1.2,-0.15 -1.73,0.08l0 0zm6.38 0.45l0 -0.45 -0.98 0c0,1.43 0,2.85 0,4.28l0.98 0c0,-0.75 0,-1.58 0.07,-2.4 0,-0.3 0.07,-0.6 0.23,-0.83 0.22,-0.15 0.53,-0.08 0.83,0 0.15,-0.3 0.23,-0.68 0.23,-0.98 -0.45,-0.3 -1.05,-0.23 -1.35,0.22 0,0 -0.07,0.07 0,0.15l0 0zm1.73 -0.53c0,1.05 0,2.1 0,3.08 -0.08,0.53 0.3,1.05 0.83,1.28 0.6,0.15 1.13,-0.07 1.5,-0.6 0,0.15 0,0.38 0,0.53l0.9 0c0,-1.43 0,-2.85 0,-4.28l-0.98 -0c0,0.9 0.07,1.88 -0.07,2.85 0,0.38 -0.45,0.83 -0.9,0.6 -0.45,-0.22 -0.38,-0.53 -0.38,-0.83 0,-0.9 0,-1.73 0,-2.63l-0.9 -0 0 0zm4.43 0.45c-0.45,0.53 -0.6,1.2 -0.53,1.88 -0.08,0.68 0.15,1.28 0.6,1.8 0.6,0.53 1.43,0.53 2.1,0.15 0.38,-0.3 0.6,-0.75 0.68,-1.28l-0.98 -0.23c-0.07,0.23 -0.15,0.53 -0.37,0.75 -0.3,0.15 -0.68,0.07 -0.83,-0.23 0,0 0,0 0,0 -0.23,-0.45 -0.3,-0.98 -0.15,-1.5 0,-0.38 0.3,-0.9 0.83,-0.83 0.45,0.08 0.45,0.38 0.6,0.68l0.98 -0.23c-0.07,-0.53 -0.38,-0.9 -0.83,-1.2 -0.75,-0.38 -1.58,-0.3 -2.1,0.22l0 0zm10.59 0.15c0,-0.15 0,-0.38 0,-0.45l-0.9 0c0,1.43 0,2.85 0,4.28l0.98 0c-0.07,-0.98 0,-1.95 0.07,-2.85 0.07,-0.3 0.45,-0.53 0.75,-0.45 0.07,0 0.15,0.07 0.22,0.15 0.08,-0.38 0.23,-0.68 0.3,-1.05 -0.23,-0.07 -0.53,-0.15 -0.75,-0.15 -0.3,-0.08 -0.45,0.3 -0.68,0.53l0 0zm2.4 -0.38c-0.53,0.38 -0.83,0.98 -0.83,1.65 -0.07,0.75 0.07,1.5 0.53,2.1 0.53,0.53 1.35,0.68 2.1,0.3 0.38,-0.3 0.6,-0.68 0.75,-1.05l-0.9 -0.23c-0.15,0.23 -0.3,0.6 -0.6,0.6 -0.53,0 -0.75,-0.6 -0.83,-0.98l2.4 0c0.07,-0.68 -0.15,-1.43 -0.45,-2.03 -0.6,-0.68 -1.5,-0.9 -2.18,-0.38l0 0zm-7.36 -0.15c0,1.05 0,2.03 0,3.08 -0.07,0.53 0.23,1.05 0.75,1.28 0.6,0.15 1.2,-0.08 1.58,-0.53l0 0.45 0.9 0c0,-1.43 0,-2.85 0,-4.28l-0.98 0c0,0.98 0,1.95 -0.07,2.93 -0.08,0.38 -0.53,0.6 -0.9,0.53 0,0 -0.07,0 -0.07,0 -0.08,-0.23 -0.15,-0.38 -0.23,-0.6 -0.07,-0.9 0,-1.88 0,-2.78l-0.98 -0.07 0 0zm-41.67 8.41c0,1.95 0,3.98 0,5.93l0.98 0c0,-0.9 -0.07,-1.8 0,-2.7 0,-0.45 0.38,-0.9 0.83,-0.75 0.3,0.07 0.45,0.45 0.45,0.75 0,0.9 0,1.8 0,2.7l0.98 0c0,-1.05 0,-2.1 0,-3.08 0,-0.53 -0.3,-0.98 -0.75,-1.2 -0.53,-0.15 -1.13,0 -1.5,0.45 0,-0.68 0,-1.35 0,-2.1l-0.98 0 0 0zm50.38 0c0,0.68 0,1.35 0,2.03 -0.3,-0.3 -0.68,-0.45 -1.05,-0.45 -0.68,0 -1.2,0.53 -1.35,1.2 -0.22,0.75 -0.15,1.58 0.08,2.4 0.22,0.6 0.75,0.98 1.43,0.98 0.38,-0.08 0.75,-0.3 0.98,-0.6 0,0.15 0,0.38 0,0.53l0.9 0c0,-1.95 0,-3.98 0,-5.93l-0.98 -0.15 0 0zm-62.62 0c0,0.38 0,0.68 0,1.05 0.45,0 0.98,0 1.5,0 0,1.65 0,3.3 0,4.88l0.98 0c0,-1.65 0,-3.3 0,-4.88l1.5 0 0 -1.05 -3.98 0 0 0zm24.7 0l0 5.93 0.98 0c0,-1.95 0,-3.98 0,-5.93l-0.98 0 0 0zm28.46 0c-0.68,1.95 -1.28,3.98 -1.95,5.93l1.13 0 0.38 -1.35 1.95 0c0.15,0.45 0.3,0.9 0.45,1.35 0.38,0 0.75,0 1.13,0 -0.68,-1.95 -1.35,-3.98 -1.95,-5.93l-1.13 0 0 0zm-48.43 2.03c-0.45,0.68 -0.68,1.5 -0.53,2.33 0,0.9 0.75,1.65 1.73,1.65 0.38,0 0.75,-0.15 1.05,-0.37 0.3,-0.3 0.45,-0.6 0.6,-0.98l-0.98 -0.15c-0.15,0.3 -0.3,0.6 -0.6,0.6 -0.53,0 -0.68,-0.6 -0.75,-1.05l2.4 0c0.07,-0.75 -0.15,-1.5 -0.6,-2.18 -0.53,-0.6 -1.5,-0.68 -2.1,-0.15 -0.07,0.15 -0.15,0.22 -0.23,0.3l0 0zm3.9 -0.07c-0.37,0.6 -0.6,1.28 -0.53,2.03 0,0.6 0.23,1.13 0.68,1.58 0.53,0.37 1.2,0.53 1.8,0.22 0.53,-0.3 0.9,-0.83 0.98,-1.43l-0.98 -0.22c-0.15,0.3 -0.15,0.68 -0.45,0.75 -0.3,0.15 -0.68,0 -0.83,-0.37 0,0 0,0 0,-0.08 -0.15,-0.45 -0.15,-0.98 -0.08,-1.5 0.08,-0.3 0.38,-0.68 0.75,-0.6 0.38,0.07 0.53,0.37 0.6,0.68 0.3,-0.07 0.68,-0.15 0.98,-0.23 -0.07,-0.53 -0.45,-0.98 -0.9,-1.28 -0.68,-0.22 -1.43,-0.07 -2.03,0.45l0 0zm8.64 0.07c0,-0.15 0,-0.38 0,-0.53l-0.98 0 0 4.36 0.98 0c0,-0.9 -0.07,-1.8 0,-2.7 0,-0.45 0.38,-0.9 0.83,-0.75 0.45,0.15 0.45,0.53 0.45,0.9 0,0.83 0,1.73 0,2.55l0.98 0c0,-1.05 0,-2.18 0,-3.23 0,-0.53 -0.38,-1.05 -0.98,-1.13 -0.45,-0.15 -0.98,0.07 -1.28,0.53l0 0zm4.28 -0.53c-0.75,0.3 -1.28,0.98 -1.28,1.73 -0.15,0.68 0.08,1.43 0.45,2.03 0.6,0.75 1.73,0.83 2.48,0.22 0.07,0 0.07,-0.07 0.15,-0.07 0.75,-0.9 0.83,-2.25 0.15,-3.3 -0.45,-0.6 -1.2,-0.83 -1.95,-0.6l0 0zm6.01 0c-0.75,0.3 -1.28,0.98 -1.28,1.73 -0.15,0.68 0.07,1.43 0.45,2.03 0.6,0.75 1.73,0.83 2.48,0.22 0.07,0 0.07,-0.07 0.07,-0.07 0.83,-0.9 0.83,-2.25 0.15,-3.3 -0.38,-0.6 -1.13,-0.83 -1.88,-0.6l0 0zm3 1.05c-0.23,0.68 -0.23,1.43 0,2.1 0.15,0.6 0.6,1.05 1.2,1.13 0.45,0 0.9,-0.23 1.2,-0.6 0,0.45 0.15,0.98 -0.3,1.35 -0.38,0.23 -0.83,0.15 -1.05,-0.22 0,-0.07 -0.07,-0.07 -0.07,-0.15l-1.05 -0.15c-0.07,0.6 0.3,1.13 0.83,1.35 0.68,0.23 1.43,0.15 2.03,-0.15 0.45,-0.45 0.6,-1.05 0.53,-1.73 0,-1.35 0,-2.7 0,-4.06l-0.9 0 0 0.45c-0.3,-0.3 -0.68,-0.53 -1.05,-0.53 -0.6,0.15 -1.13,0.6 -1.35,1.2l0 0zm26.73 -0.38c0,-0.22 0,-0.37 0,-0.6l-0.9 0 0 4.36 0.98 0c0,-0.83 0,-1.73 0,-2.55 0,-0.38 0.15,-0.68 0.45,-0.9 0.38,-0.23 0.83,0.15 0.83,0.6 0.08,0.98 0,1.95 0,2.85l0.98 0c0,-1.13 0,-2.25 0,-3.38 -0.07,-0.6 -0.6,-1.13 -1.2,-1.05 0,0 0,0 0,0 -0.45,0.07 -0.9,0.3 -1.13,0.68l0 0zm-22.98 -0.53c0.45,1.43 0.9,2.78 1.35,4.21 0.07,0.45 -0.23,0.83 -0.68,0.9 -0.15,0 -0.3,0 -0.37,0 0,0.3 0.07,0.6 0.07,0.9 0.38,0.07 0.75,0.07 1.13,-0.07 0.38,-0.23 0.68,-0.6 0.75,-1.05 0.45,-1.58 0.98,-3.23 1.5,-4.8l-0.98 0c-0.3,0.98 -0.53,1.95 -0.83,2.93 -0.3,-0.98 -0.53,-1.95 -0.83,-2.93l-1.13 -0.08 0 0zm-33.19 8.56c-0.83,0.45 -1.13,1.58 -0.6,2.4 0.08,0.15 0.23,0.3 0.38,0.45 0.6,0.3 1.2,0.6 1.88,0.75 0.3,0.15 0.45,0.53 0.3,0.83 0,0 0,0 0,0 -0.3,0.45 -0.9,0.6 -1.43,0.3 0,0 -0.07,0 -0.07,-0.07 -0.23,-0.23 -0.45,-0.6 -0.53,-0.98 -0.3,0 -0.68,0.07 -0.98,0.15 0.08,0.6 0.3,1.2 0.68,1.65 0.68,0.45 1.43,0.53 2.18,0.3 1.2,-0.38 1.5,-2.1 0.75,-3 -0.6,-0.68 -1.5,-0.6 -2.25,-1.05 -0.15,-0.15 -0.3,-0.53 -0.07,-0.68 0.3,-0.3 0.75,-0.37 1.13,-0.22 0.3,0.07 0.38,0.53 0.53,0.75 0.3,0 0.68,0 0.98,-0.07 0,-0.6 -0.22,-1.13 -0.68,-1.5 -0.75,-0.3 -1.5,-0.38 -2.18,0l0 0zm14.19 -0.15c0,0.38 0,0.75 0,1.05l0.98 0c0,-0.38 0,-0.75 0,-1.05l-0.98 0 0 0zm24.63 0.07l0 5.86 3.45 0c0,-0.3 0,-0.68 0,-0.98 -0.83,0 -1.65,0 -2.48,0 0,-1.65 0,-3.23 0,-4.88l-0.9 0 -0.08 0zm4.21 -0.07c0,0.38 0,0.75 0,1.05l0.98 0c0,-0.38 0,-0.75 0,-1.05l-0.98 0 0 0zm8.03 0c0,0.38 0,0.75 0,1.05l0.98 0c0,-0.38 0,-0.75 0,-1.05l-0.98 0 0 0zm10.29 0c0,0.68 0,1.35 0,1.95 -0.3,-0.3 -0.68,-0.45 -1.05,-0.45 -0.68,0.07 -1.2,0.53 -1.35,1.13 -0.23,0.68 -0.23,1.43 0,2.18 0.15,0.68 0.68,1.2 1.43,1.2 0.45,-0.07 0.83,-0.22 1.05,-0.6 0,0.15 0,0.38 0,0.45l0.9 0 0 -5.93 -0.98 0.07 0 0zm-8.41 0.75c0,0.3 0,0.6 0,0.83l-0.45 0 0 0.9 0.45 0c0,0.75 0,1.58 0,2.33 0,0.3 0,0.75 0.3,0.9 0.38,0.37 0.9,0.22 1.35,0.07l-0.07 -0.9c-0.23,0 -0.53,0.23 -0.6,-0.07 -0.08,-0.75 0,-1.5 -0.08,-2.33l0.68 0 0 -0.9 -0.68 0 0 -1.5c-0.23,0.3 -0.53,0.53 -0.9,0.68l0 0zm-48.81 1.28c-0.45,0.53 -0.68,1.13 -0.6,1.8 -0.07,0.68 0.15,1.28 0.53,1.8 0.53,0.53 1.28,0.68 1.95,0.38 0.45,-0.22 0.75,-0.68 0.9,-1.13l-0.98 -0.3c-0.15,0.3 -0.3,0.68 -0.68,0.6 -0.53,0 -0.68,-0.6 -0.75,-0.98 0.83,0 1.58,0 2.4,0 0.08,-0.68 -0.15,-1.43 -0.45,-2.03 -0.53,-0.68 -1.5,-0.83 -2.18,-0.3 -0.08,0.07 -0.08,0.07 -0.15,0.15l0 0zm3.53 -0.38c0,1.43 0,2.85 0,4.28l0.98 0c0,-0.9 0,-1.73 0.07,-2.63 0,-0.38 0.23,-0.68 0.6,-0.75l0.45 0.23c0.08,-0.3 0.23,-0.6 0.3,-0.9 0.45,1.35 0.9,2.7 1.43,4.06l0.9 -0c0.45,-1.43 0.9,-2.85 1.43,-4.28l-1.05 0c-0.3,0.9 -0.6,1.88 -0.83,2.85 -0.23,-0.98 -0.6,-1.88 -0.83,-2.85 -0.38,0 -0.75,0 -1.13,0 -0.3,0 -0.6,-0.15 -0.83,0 -0.15,0.15 -0.3,0.3 -0.45,0.45 0,-0.15 0,-0.38 0,-0.45l-1.05 0 0 0zm6.61 0c0,1.43 0,2.85 0,4.28l0.98 0c0.08,-1.43 0,-2.85 0,-4.28l-0.98 0 0 0zm2.25 0.38c-0.38,0.45 -0.6,1.05 -0.6,1.58 -0.08,0.68 0.07,1.35 0.53,1.88 0.53,0.6 1.5,0.75 2.18,0.3 0.38,-0.3 0.68,-0.83 0.75,-1.35l-0.9 -0.23c-0.07,0.23 -0.22,0.45 -0.3,0.68 -0.3,0.23 -0.68,0.15 -0.9,-0.15 0,-0.07 -0.08,-0.07 -0.08,-0.15 -0.15,-0.53 -0.22,-1.05 -0.07,-1.65 0.07,-0.38 0.38,-0.6 0.75,-0.53 0.07,0 0.07,0 0.15,0.08 0.23,0.07 0.3,0.38 0.38,0.6l0.98 -0.22c-0.07,-0.45 -0.38,-0.9 -0.75,-1.2 -0.75,-0.22 -1.5,-0.15 -2.1,0.38l0 0zm3.83 -0.07c-0.45,0.53 -0.68,1.13 -0.6,1.8 -0.08,0.6 0.15,1.28 0.53,1.8 0.53,0.53 1.28,0.68 1.95,0.38 0.45,-0.22 0.75,-0.68 0.9,-1.13l-0.98 -0.23c-0.15,0.23 -0.3,0.68 -0.68,0.6 -0.53,0 -0.68,-0.6 -0.75,-0.98 0.83,0 1.58,0 2.4,0 0.07,-0.68 -0.15,-1.43 -0.45,-2.03 -0.45,-0.68 -1.43,-0.83 -2.1,-0.3 -0.07,0 -0.15,0 -0.22,0.07l0 0zm4.05 -0.23c-0.68,0.3 -0.9,1.13 -0.6,1.8 0.07,0.07 0.15,0.23 0.23,0.3 0.53,0.53 1.35,0.45 1.88,0.83 0.07,0.45 -0.38,0.68 -0.75,0.6 -0.38,-0.08 -0.53,-0.38 -0.68,-0.68l-0.98 0.15c0.08,0.37 0.3,0.75 0.68,1.05 0.53,0.3 1.2,0.37 1.8,0.22 0.75,-0.3 1.13,-1.13 0.83,-1.8 -0.07,-0.15 -0.15,-0.22 -0.22,-0.37 -0.53,-0.45 -1.28,-0.53 -1.95,-0.83 -0.08,-0.15 -0.08,-0.3 0,-0.45 0.07,-0.07 0.15,-0.07 0.15,-0.07 0.38,-0.15 0.83,0.07 1.05,0.45l0.9 -0.15c-0.07,-0.45 -0.38,-0.83 -0.83,-1.05 -0.45,-0.22 -0.98,-0.22 -1.5,0l0 0zm18.7 -0.07c0,1.43 0,2.85 0,4.28l0.98 0 0 -4.28 -0.98 0 0 0zm1.8 0c0,1.43 0,2.85 0,4.28l0.98 0c0,-0.9 0,-1.73 0,-2.63 0,-0.38 0.23,-0.9 0.68,-0.83 0.45,0 0.45,0.45 0.45,0.75 0,0.9 0,1.8 0,2.7l0.98 -0c0.08,-1.13 -0.22,-2.33 0.23,-3.3 0.15,-0.07 0.38,-0.07 0.6,-0.15 0.3,0.07 0.3,0.45 0.3,0.75 0.07,0.9 0,1.8 0,2.78l0.98 0c0,-1.05 0,-2.1 0,-3.15 0,-0.6 -0.45,-1.13 -1.05,-1.2 -0.45,0 -0.98,0.23 -1.2,0.6 -0.15,-0.3 -0.45,-0.53 -0.75,-0.6 -0.53,-0.07 -1.05,0.15 -1.35,0.53l0 -0.53 -0.83 0 0 0zm6.16 0c0,1.43 0,2.85 0,4.28l0.98 0c0,-1.43 0,-2.85 0,-4.28l-0.98 0 0 0zm4.5 0.38c-0.45,0.53 -0.68,1.13 -0.68,1.8 -0.08,0.6 0.15,1.28 0.53,1.8 0.53,0.53 1.28,0.68 1.95,0.38 0.45,-0.22 0.75,-0.68 0.9,-1.13 -0.3,-0.07 -0.6,-0.15 -0.9,-0.15 -0.23,0.22 -0.3,0.68 -0.68,0.6 -0.53,0 -0.68,-0.6 -0.75,-0.98 0.83,0 1.58,0 2.4,0 0,-0.68 -0.15,-1.43 -0.45,-2.03 -0.53,-0.68 -1.5,-0.75 -2.18,-0.22 -0.07,-0.15 -0.07,-0.15 -0.15,-0.07l0 0zm-71.03 -27.03c0.6,-0.23 1.2,-0.53 1.88,-0.75 -3.53,6.38 -7.06,12.69 -10.59,19.07 -0.6,0.98 -1.05,2.03 -1.73,3 -0.6,0 -1.28,0 -1.88,0 3.9,-6.98 7.81,-13.97 11.71,-20.95 0.15,-0.22 0.37,-0.37 0.6,-0.37l0 0zm-21.4 7.58c1.95,-0.98 3.83,-2.1 5.78,-3.08 0,5.56 0,11.11 0,16.67 -10.21,0 -20.42,0 -30.64,0 1.65,-0.98 3.38,-1.88 5.03,-2.78 1.13,0.98 2.7,1.28 4.05,0.68 0.68,-0.3 1.2,-0.75 1.65,-1.28 0,0.45 0,0.9 0,1.35 0.83,0.07 1.58,0.07 2.4,0.07 0,-1.73 0,-3.45 0,-5.18 0.98,-0.53 1.88,-1.05 2.85,-1.5 0,1.5 0,3 0,4.58 -0.07,0.83 0.3,1.58 0.98,2.03 1.13,0.45 2.4,0.45 3.53,0 -0.07,-0.68 -0.15,-1.35 -0.22,-2.03 -0.45,0.15 -0.9,0.22 -1.35,0.15 -0.38,-0.15 -0.38,-0.6 -0.38,-0.9 0,-1.58 0,-3.15 0,-4.81 0.6,0 1.2,0 1.73,0 0,-0.53 0,-0.98 0,-1.5 1.28,-0.53 2.4,-1.35 3.68,-1.88l0.75 0 0.07 -0.53 0.07 -0.07zm-2.7 1.95c0,3.23 0,6.46 0,9.69 0.9,0 1.73,0 2.55,0l0 -9.76c-0.9,0 -1.73,0 -2.55,0l0 0.08zm99.79 -1.28c0,-0.45 0.23,-0.98 0.75,-0.98 0.53,0 0.6,0.6 0.68,0.98l-1.43 0 0 0zm-29.13 0.9c0.38,-0.23 0.75,-0.3 1.13,-0.38 0,0.45 0,1.13 -0.6,1.28 -0.6,0.15 -0.9,-0.6 -0.53,-0.9l0 0zm-85.23 7.88c0.98,-0.53 1.95,-1.05 2.93,-1.58 0,0.3 -0.07,0.6 -0.07,0.9 -0.6,0.98 -1.88,1.35 -2.85,0.68 -0.07,0 -0.07,0 -0.15,0l0.15 0 0 0zm106.7 -0.6c0.3,0.68 0.45,1.35 0.68,2.1l-1.28 0c0.15,-0.75 0.37,-1.43 0.6,-2.1l0 0zm-48.51 1.88c0.07,-0.45 0.23,-0.98 0.75,-0.98 0.53,0 0.68,0.6 0.68,0.98l-1.43 0 0 0zm16.67 -0.83c0.3,-0.15 0.75,0 0.9,0.3 0.22,0.45 0.3,0.98 0.15,1.5 -0.07,0.38 -0.45,0.68 -0.83,0.68 -0.45,-0.07 -0.83,-0.53 -0.83,-0.98 -0.08,-0.53 0.15,-1.13 0.6,-1.5l0 0zm6.01 0c0.45,-0.15 0.9,0.07 1.05,0.53 0,0.08 0,0.15 0.08,0.15 0.22,0.6 0,1.35 -0.45,1.8 -0.45,0.3 -0.98,-0.15 -1.05,-0.68 -0.22,-0.6 -0.22,-1.43 0.38,-1.8l0 0zm3.98 0c0.45,-0.3 0.98,0.07 1.05,0.53 0.22,0.6 0.07,1.35 -0.45,1.8 -0.45,0.3 -0.98,-0.23 -0.98,-0.68 -0.15,-0.53 0,-1.2 0.38,-1.65l0 0zm29.66 0c0.23,-0.15 0.53,-0.15 0.75,0 0.3,0.38 0.45,0.9 0.38,1.35 0,0.45 -0.15,0.98 -0.6,1.13 -0.45,0.15 -0.83,-0.3 -0.83,-0.68 -0.23,-0.6 -0.08,-1.28 0.3,-1.8l0 0zm-107.9 6.61c0.53,0 1.05,0 1.58,0 0,2.48 0,4.96 0,7.43l-1.58 -0c0,-2.48 0,-4.96 0,-7.43l0 0zm3 0c0.53,0 1.05,0 1.58,0 0,2.48 0,4.96 0,7.43l-1.58 -0c0,-2.48 0,-4.96 0,-7.43l0 0zm10.21 0.38c0.98,-0.53 2.18,-0.68 3.23,-0.38 0.98,0.22 1.65,1.13 1.73,2.1l-1.58 0.07c-0.15,-0.37 -0.3,-0.9 -0.83,-0.98 -0.6,-0.15 -1.28,-0.07 -1.73,0.3 -0.22,0.22 -0.22,0.6 0,0.75 0.08,0.08 0.08,0.08 0.15,0.08 1.13,0.53 2.48,0.45 3.45,1.28 0.9,0.9 0.9,2.33 0,3.15 -0.07,0.07 -0.23,0.22 -0.3,0.3 -1.05,0.53 -2.25,0.68 -3.3,0.3 -1.05,-0.3 -1.88,-1.28 -1.95,-2.4 0.53,-0.07 0.98,-0.15 1.5,-0.15 0,0.6 0.45,1.13 1.05,1.35 0.6,0.22 1.28,0.07 1.8,-0.3 0.3,-0.22 0.45,-0.68 0.15,-1.05 -0.08,-0.07 -0.15,-0.15 -0.3,-0.23 -1.13,-0.53 -2.55,-0.45 -3.45,-1.43 -0.75,-0.75 -0.68,-2.03 0.15,-2.7 0.07,0 0.15,0 0.22,-0.07l0 0zm-27.48 -0.38c0.53,0 1.05,0 1.5,0 0.07,1.73 -0.08,3.45 0.07,5.11 0.07,1.43 2.63,1.58 2.85,0.22 0.07,-1.8 0.07,-3.6 0,-5.33l1.73 0c0,1.65 0,3.3 0,4.96 0.07,0.68 -0.15,1.35 -0.6,1.88 -0.83,0.68 -1.88,0.9 -2.93,0.75 -0.83,0 -1.58,-0.38 -2.03,-0.98 -0.38,-0.53 -0.53,-1.13 -0.45,-1.8 -0.07,-1.58 -0.07,-3.15 -0.15,-4.81l0 0zm7.28 0c2.03,0 4.06,0 6.08,0 0,0.45 0,0.83 0,1.28 -0.75,0 -1.5,0 -2.25,0 0,2.03 0,4.13 0,6.16l-1.58 -0c0,-2.03 0,-4.13 0,-6.16 -0.75,0 -1.5,0 -2.25,0 0,-0.37 0,-0.83 0,-1.28l0 0zm12.46 0c2.03,0 4.06,0 6.08,0 0,0.45 0,0.83 0,1.28 -0.75,0 -1.5,0 -2.18,0 0,2.03 0,4.13 0,6.16l-1.58 -0c0,-2.03 0,-4.13 0,-6.16 -0.75,0 -1.5,0 -2.25,0l-0.07 -1.28 0 0zm14.27 0.07c0.53,0 0.98,0 1.5,0 0.08,0.23 0.08,0.45 0.08,0.6 0,1.8 0,3.68 0,5.48 1.28,0 2.55,0 3.75,0 0,0.45 0.08,0.83 0.08,1.28 -1.8,0 -3.6,0 -5.41,0 0,-2.4 0,-4.81 0,-7.36l0 0zm32.29 4.36c0.07,-0.38 0.23,-0.98 0.75,-0.98 0.53,0 0.6,0.6 0.75,0.98l-1.5 0 0 0zm16.22 0c0.07,-0.45 0.22,-0.98 0.75,-0.98 0.53,0 0.6,0.6 0.68,0.98l-1.43 0 0 0zm35.29 0c0.07,-0.45 0.23,-0.98 0.75,-0.98 0.53,0 0.6,0.6 0.68,0.98l-1.43 0 0 0zm4.43 -0.98c0.38,-0.15 0.75,0.07 0.9,0.45 0,0 0,0 0,0.07 0.15,0.53 0.15,1.13 0,1.65 -0.07,0.38 -0.45,0.53 -0.83,0.45 -0.07,0 -0.07,-0.07 -0.15,-0.07 -0.38,-0.38 -0.53,-0.9 -0.45,-1.43 0,-0.45 0.23,-0.9 0.53,-1.13l0 0z"/>
    </g>
    <g>
     <path class="fil2" d="M12.38 34.35l1.05 0c0,7.36 0,14.64 0.07,21.93 0,1.88 0.07,3.83 0.38,5.71 0.75,5.11 2.85,9.91 6.16,13.89 4.58,5.63 10.96,9.46 18.02,10.89 7.06,1.43 14.34,0.45 20.72,-2.85 3.83,-1.95 7.13,-4.65 9.84,-8.03 4.21,-5.18 6.53,-11.56 6.46,-18.25 0,-7.81 -0.07,-15.54 -0.07,-23.35l1.13 -0c0,7.96 0,15.92 0,23.88 -0.07,2.1 -0.3,4.21 -0.83,6.31 -0.07,0.15 -0.07,0.53 -0.37,0.53 0,0.3 -0.08,0.6 -0.08,0.9l0.15 -0.53 0.22 -0.3c-0.22,0.6 -0.45,1.28 -0.6,1.88 -1.13,3.3 -2.85,6.46 -5.03,9.16 -1.43,1.8 -3,3.45 -4.81,4.96 -4.2,3.38 -9.24,5.71 -14.57,6.68 -1.65,0.3 -3.38,0.45 -5.11,0.45l-1.95 0c-2.7,0 -5.41,-0.45 -8.03,-1.2 -4.66,-1.28 -9.01,-3.6 -12.69,-6.76 -3,-2.63 -5.41,-5.86 -7.06,-9.54 -0.9,-1.95 -1.65,-4.06 -2.18,-6.16 -0.45,-1.95 -0.75,-3.9 -0.9,-5.93l0 -24.25 0.07 0zm59.02 4.36c0.68,-0.23 1.43,-0.38 2.1,-0.53 -4.21,7.51 -8.41,15.09 -12.54,22.6 -0.45,0.75 -0.83,1.58 -1.28,2.33l-1.8 0c0.15,-0.45 0.38,-0.9 0.6,-1.28 3.38,-6.08 6.76,-12.16 10.21,-18.17 0.9,-1.73 1.8,-3.3 2.7,-4.96l0 0zm-10.29 6.61c0.75,-0.3 1.5,-0.53 2.25,-0.75 -3.45,6.16 -6.91,12.31 -10.29,18.47 -0.6,0 -1.2,0 -1.8,0 0,-0.15 0.07,-0.38 0.15,-0.53 3.3,-5.71 6.53,-11.41 9.69,-17.2l0 0zm-40.55 1.05c10.21,0 20.5,0 30.71,0 15.32,0 -0.08,0 -0.08,0 -1.95,0.98 -3.83,2.1 -5.78,3.08 0,-0.6 -0.07,-1.2 -0.07,-1.8 -0.83,0 -1.65,0 -2.48,0 -0.07,0.75 -0.07,1.58 0,2.33 0.6,0 1.13,0 1.73,0 -1.28,0.53 -2.4,1.35 -3.68,1.88 0,-0.15 0,-0.38 0,-0.6l-1.73 0c0,-1.13 0,-2.33 0,-3.45 -0.9,0.53 -1.73,0.98 -2.63,1.5 0,0.68 0,1.28 0,1.95l-1.2 0c0,0.68 0,1.35 0,2.03l1.13 0c0,0.3 0,0.6 0,0.98 -0.98,0.53 -1.88,1.05 -2.85,1.5 0,-1.5 0,-3 0,-4.5l-2.55 -0c0,1.88 0,3.75 0,5.71 0,0.38 -0.07,0.83 -0.15,1.2 0,-0.3 0,-0.6 0.07,-0.9 -0.98,0.53 -1.95,1.13 -2.93,1.65l-0.15 0c-0.23,-0.22 -0.38,-0.45 -0.38,-0.75 -0.07,-0.83 -0.15,-1.73 -0.15,-2.55 0,-1.43 0,-2.85 0,-4.28 -0.9,0 -1.73,0 -2.63,0 0,1.95 0,3.98 0,5.93 -0.08,1.05 0.15,2.1 0.75,3 -1.65,0.9 -3.38,1.8 -5.03,2.78 -0.08,-5.56 0,-11.11 0,-16.74l0.07 0.07z"/>
    </g>
    <g>
     <path class="fil3" d="M13.5 34.35c2.25,0 4.43,-0.08 6.68,0.07 18.32,0 36.57,0 54.89,0 0,7.81 0,15.54 0.07,23.35 0,6.68 -2.25,13.14 -6.53,18.25 -2.7,3.3 -6.08,6.08 -9.91,7.96 -6.38,3.23 -13.67,4.28 -20.72,2.85 -7.06,-1.43 -13.44,-5.26 -18.02,-10.89 -3.23,-3.98 -5.41,-8.79 -6.16,-13.89 -0.23,-1.88 -0.38,-3.83 -0.38,-5.71 0.07,-7.36 0.07,-14.72 0.07,-22l0 0zm57.89 4.28c-0.9,1.65 -1.8,3.3 -2.7,4.96 -3.38,6.08 -6.83,12.16 -10.21,18.25 -0.23,0.37 -0.45,0.83 -0.6,1.28l1.8 0c0.53,-0.75 0.83,-1.58 1.28,-2.33 4.21,-7.58 8.41,-15.09 12.61,-22.6 -0.75,0.08 -1.5,0.23 -2.18,0.45l0 0zm-4.73 3.08c-0.22,0.07 -0.45,0.22 -0.6,0.38 -3.9,6.98 -7.81,13.97 -11.71,20.95 0.6,0 1.28,0 1.88,0 0.6,-0.98 1.13,-2.03 1.73,-3 3.53,-6.38 7.06,-12.69 10.59,-19.07 -0.6,0.3 -1.2,0.53 -1.88,0.75l0 0zm-5.56 3.6c-3.23,5.71 -6.46,11.49 -9.76,17.2 -0.08,0.15 -0.15,0.38 -0.15,0.53 0.6,0 1.2,0 1.8,0 3.38,-6.16 6.91,-12.31 10.29,-18.47 -0.75,0.22 -1.5,0.45 -2.18,0.75l0 0zm-40.55 1.05c0,5.56 0,11.19 0,16.74 10.21,0 20.42,0 30.64,0 0,-5.56 0,-11.11 0,-16.67 0,0 0.08,0 0.08,0 -10.29,-0.07 -20.5,-0.07 -30.71,-0.07l0 0zm14.12 19.6c0.07,2.48 0,4.96 0,7.43l1.58 -0c0,-2.48 0,-4.96 0,-7.43 -0.53,0 -1.05,0 -1.58,0l0 0zm3 0c0,2.48 0,4.96 0,7.43l1.58 -0c0,-2.48 0,-4.96 0,-7.43 -0.6,0.07 -1.13,0.07 -1.58,0l0 0zm10.21 0.45c-0.9,0.6 -1.05,1.8 -0.45,2.7 0.08,0.08 0.08,0.15 0.15,0.23 0.9,0.98 2.33,0.83 3.45,1.43 0.38,0.15 0.53,0.6 0.38,0.98 -0.08,0.07 -0.15,0.23 -0.23,0.3 -0.53,0.37 -1.2,0.53 -1.8,0.3 -0.6,-0.22 -1.05,-0.75 -1.05,-1.43 -0.53,0 -0.98,0.07 -1.5,0.15 0.07,1.13 0.83,2.1 1.88,2.4 1.13,0.3 2.33,0.22 3.38,-0.3 1.05,-0.68 1.28,-2.1 0.6,-3.15 -0.07,-0.07 -0.15,-0.22 -0.22,-0.3 -0.98,-0.83 -2.33,-0.75 -3.45,-1.28 -0.3,-0.07 -0.45,-0.45 -0.3,-0.68 0,-0.07 0.07,-0.15 0.07,-0.15 0.53,-0.38 1.13,-0.45 1.73,-0.3 0.53,0.07 0.68,0.6 0.83,0.98l1.58 -0.07c0,-0.98 -0.75,-1.88 -1.73,-2.1 -1.13,-0.45 -2.25,-0.38 -3.3,0.3l0 0zm-27.41 -0.45c0,1.58 0,3.15 0,4.81 -0.07,0.6 0.15,1.28 0.45,1.8 0.53,0.6 1.28,0.98 2.03,0.98 1.05,0.15 2.1,-0.07 2.85,-0.75 0.45,-0.53 0.68,-1.2 0.6,-1.88 0,-1.65 0,-3.3 0,-4.96l-1.58 0c0.07,1.8 0.07,3.6 0,5.33 -0.3,1.35 -2.85,1.2 -2.85,-0.23 -0.15,-1.73 0,-3.45 -0.08,-5.18 -0.45,0.07 -0.98,0.07 -1.43,0.07l0 0zm7.21 0c0,0.45 0,0.83 0,1.28 0.75,0 1.5,0 2.25,0 0,2.03 0,4.13 0,6.16l1.58 -0c0,-2.03 0,-4.13 0,-6.16 0.75,0 1.5,0 2.25,0 0,-0.45 0,-0.83 0,-1.28 -2.1,0 -4.13,0 -6.08,0l0 0zm12.46 0l0 1.28c0.75,0 1.5,0 2.25,0 0,2.03 0,4.13 0,6.16l1.58 -0c0,-2.03 0,-4.13 0,-6.16 0.75,0 1.5,0 2.25,0 0,-0.45 0,-0.83 0,-1.28 -2.1,0 -4.13,0 -6.08,0l0 0zm14.19 0.07c0,2.48 0,4.96 0,7.36 1.8,0 3.6,0 5.41,0 0,-0.45 -0.07,-0.83 -0.07,-1.28 -1.28,0 -2.55,0 -3.75,0 0,-1.8 0,-3.68 0,-5.48 0,-0.22 0,-0.45 -0.07,-0.6 -0.45,-0.07 -0.98,-0.07 -1.5,0l0 0zm27.03 -19.37l0.98 0c0,1.43 -0.07,2.85 0.07,4.28 0.15,0.53 0.68,0.83 1.2,0.68 0.15,0 0.22,-0.07 0.38,-0.22 0.3,-0.3 0.3,-0.68 0.3,-1.05 0,-1.2 0,-2.48 0,-3.68 0.38,0 0.68,0 1.05,0 0,1.28 0,2.55 0,3.83 0.08,0.6 -0.15,1.2 -0.53,1.73 -0.6,0.53 -1.5,0.68 -2.25,0.38 -0.75,-0.3 -1.2,-0.98 -1.13,-1.8 -0.07,-1.35 0,-2.78 -0.07,-4.13l0 0zm4.73 0c1.35,0 2.63,0 3.98,0 0,0.38 0,0.68 0,1.05l-1.5 0c0,1.65 0,3.3 0,4.88l-0.98 0c0,-1.65 0,-3.3 0,-4.88l-1.43 0 -0.07 -1.05 0 0zm4.43 0l1.05 0c0,2.03 0,3.98 0,5.93l-1.05 0c0,-1.95 0,-3.98 0,-5.93l0 0zm11.19 0l1.05 0c0,1.95 0,3.98 0,5.93l-1.05 0c0,-1.95 0,-3.9 0,-5.93l0 0zm6.31 0.22c0.45,-0.45 1.13,-0.3 1.65,-0.22 -0.08,0.3 -0.08,0.53 -0.15,0.83 -0.23,-0.07 -0.45,0 -0.68,0.08 -0.07,0.22 -0.15,0.53 -0.15,0.75l0.75 0c0,0.3 0,0.6 0,0.9l-0.75 0c0,1.13 0,2.25 0,3.38l-0.98 0c0,-1.13 0,-2.25 0,-3.38l-0.53 0c0,-0.3 0,-0.6 0,-0.9l0.53 0c-0.08,-0.45 0,-0.98 0.3,-1.43l0 0zm12.09 0.6c0.3,-0.23 0.68,-0.45 0.98,-0.68 0,0.53 0,1.05 0,1.5l0.68 -0 0 0.9 -0.6 0c0,0.75 0,1.5 0,2.25 0.07,0.3 0.45,0.15 0.6,0.15 0,0.3 0.07,0.6 0.07,0.9 -0.53,0.3 -1.43,0.23 -1.58,-0.45 -0.07,-0.98 -0.15,-1.95 -0.07,-2.85l-0.53 0c0,-0.3 0,-0.6 0,-0.9l0.45 0c0,-0.3 0,-0.6 0,-0.83l0 0zm12.77 -0.08c0.3,-0.22 0.6,-0.45 0.98,-0.6l0 1.5 0.68 0c0,0.3 0,0.6 0,0.9l-0.68 0c0,0.75 -0.07,1.5 0,2.25 0.07,0.3 0.45,0.15 0.68,0.15 0,0.3 0.08,0.6 0.08,0.83 -0.45,0.22 -0.98,0.22 -1.35,-0.07 -0.3,-0.23 -0.3,-0.6 -0.3,-0.9 0,-0.75 0,-1.5 0,-2.25l-0.45 -0.07 0 -0.83 0.45 0 0 -0.9 -0.07 0zm-90.18 0.23c0.83,0 1.65,0 2.48,0 0,0.6 0.07,1.2 0.07,1.8l-0.07 0.53 -0.75 0c-0.6,0 -1.13,0 -1.73,0 -0.08,-0.75 -0.08,-1.58 0,-2.33l0 0zm-6.31 1.8c0.9,-0.53 1.73,-1.05 2.63,-1.5 0,1.13 0,2.33 0,3.45l1.73 0c0,0.15 0,0.37 0,0.6 0,0.53 0,0.98 0,1.5 -0.6,0 -1.13,0 -1.73,0 0,1.58 0,3.15 0,4.81 0,0.3 0,0.75 0.38,0.9 0.45,0.07 0.9,0 1.35,-0.15 0.07,0.68 0.15,1.35 0.23,1.95 -1.13,0.45 -2.4,0.45 -3.53,0 -0.68,-0.45 -1.05,-1.2 -0.98,-2.03 -0.07,-1.5 0,-3 0,-4.58 0,-0.3 0,-0.6 0,-0.98l-1.13 0c0,-0.68 0,-1.35 0,-2.03l1.13 0c0,-0.68 0,-1.28 -0.07,-1.95l0 0zm68.03 -0.53c0.3,-0.45 0.83,-0.68 1.35,-0.68 0.6,0.08 1.05,0.6 1.05,1.2 0.07,1.05 0,2.18 0,3.23l-0.98 0c0,-0.9 0,-1.73 0,-2.63 0,-0.3 -0.08,-0.68 -0.38,-0.83 -0.3,-0.15 -0.83,0.23 -0.9,0.68 -0.07,0.9 0,1.88 -0.07,2.78l-0.98 -0 0 -4.28c0.3,0 0.6,0 0.9,0 0,0.07 0,0.37 0,0.45l0 0.07zm6.76 -0.68c0.3,-0.15 0.6,0.08 0.9,0.15l-0.3 1.05c-0.3,-0.15 -0.9,-0.15 -0.98,0.3 -0.15,0.98 -0.22,1.95 -0.15,2.93l-0.98 0c0,-1.43 0,-2.85 0,-4.28l0.9 0c0,0.15 0,0.37 0,0.53 0.22,-0.3 0.37,-0.45 0.6,-0.68l0 0zm1.13 1.28c0.08,-0.53 0.45,-1.05 0.98,-1.2 0.68,-0.15 1.65,-0.15 1.95,0.6 0.3,1.2 -0.15,2.55 0.3,3.75 -0.38,-0.08 -1.05,0.22 -1.05,-0.38 -0.38,0.38 -0.98,0.53 -1.5,0.45 -0.68,-0.3 -1.05,-1.05 -0.75,-1.73 0.07,-0.22 0.3,-0.45 0.53,-0.6 0.53,-0.22 1.13,-0.3 1.65,-0.53 -0.08,-0.22 -0.08,-0.6 -0.45,-0.68 -0.38,-0.08 -0.75,0.15 -0.9,0.53 0,0 0,0 0,0l-0.75 -0.23 0 0zm0.98 1.5c-0.38,0.38 0.08,1.05 0.53,0.9 0.53,-0.23 0.6,-0.83 0.6,-1.28 -0.38,0 -0.75,0.15 -1.13,0.38l0 0zm3.45 -2.63c0.53,-0.23 1.13,-0.23 1.73,0 0.38,0.22 0.68,0.6 0.75,0.98l-0.9 0.22c-0.15,-0.53 -1.13,-0.75 -1.35,-0.15 0,0.07 0.07,0.15 0.07,0.23 0.6,0.3 1.43,0.3 1.95,0.83 0.45,0.68 0.3,1.5 -0.3,2.03 -0.07,0.08 -0.15,0.15 -0.3,0.15 -0.75,0.3 -1.58,0.15 -2.1,-0.45 -0.15,-0.23 -0.3,-0.45 -0.38,-0.75 0.3,-0.07 0.6,-0.15 0.9,-0.15 0.15,0.15 0.22,0.3 0.38,0.53 0.3,0.3 0.83,0.22 1.05,-0.08 0,0 0.07,-0.07 0.07,-0.07 0,-0.07 -0.07,-0.22 -0.07,-0.3 -0.6,-0.15 -1.13,-0.38 -1.65,-0.6 -0.6,-0.45 -0.75,-1.2 -0.3,-1.8 0.07,-0.38 0.22,-0.53 0.45,-0.6l0 0zm6.38 0.45c0.22,-0.45 0.75,-0.68 1.28,-0.53 0.07,0 0.15,0.07 0.15,0.07 -0.07,0.38 -0.15,0.68 -0.23,0.98 -0.3,-0.07 -0.6,-0.15 -0.83,0 -0.15,0.23 -0.23,0.53 -0.23,0.83 -0.07,0.83 -0.07,1.58 -0.07,2.4l-0.98 -0c0,-1.43 0,-2.85 0,-4.28l0.98 -0 -0.07 0.53 0 0zm1.8 -0.53l0.98 0c0,0.9 0,1.73 0,2.63 0,0.3 0.08,0.68 0.38,0.83 0.3,0.15 0.83,-0.22 0.9,-0.6 0.07,-0.9 0,-1.88 0.07,-2.85l0.98 0c0,1.43 0,2.85 0,4.28l-0.9 0c0,-0.15 0,-0.37 0,-0.53 -0.37,0.45 -0.9,0.68 -1.5,0.6 -0.53,-0.15 -0.9,-0.68 -0.83,-1.28 -0.07,-1.05 -0.07,-2.03 -0.07,-3.08l0 0zm4.43 0.38c0.53,-0.53 1.35,-0.6 2.03,-0.3 0.45,0.3 0.75,0.75 0.83,1.2l-0.98 0.23c-0.15,-0.3 -0.22,-0.68 -0.6,-0.68 -0.38,0 -0.75,0.38 -0.83,0.83 -0.07,0.53 0,1.05 0.15,1.5 0.15,0.3 0.53,0.38 0.83,0.23 0,0 0,0 0,0 0.23,-0.15 0.3,-0.45 0.38,-0.75l0.98 0.22c-0.07,0.53 -0.3,0.98 -0.68,1.28 -0.68,0.45 -1.5,0.38 -2.1,-0.07 -0.45,-0.45 -0.68,-1.13 -0.6,-1.8 0,-0.75 0.23,-1.35 0.6,-1.88l0 0zm10.66 0.07c0.22,-0.22 0.38,-0.6 0.68,-0.6 0.23,0 0.53,0.07 0.75,0.15 -0.07,0.38 -0.23,0.68 -0.3,1.05 -0.22,-0.22 -0.68,-0.15 -0.83,0.08 -0.08,0.07 -0.08,0.15 -0.15,0.22 -0.07,0.98 -0.15,1.95 -0.07,2.85l-0.9 0c0,-1.43 0,-2.85 0,-4.28l0.9 0c-0.07,0.15 -0.07,0.45 -0.07,0.53l0 0zm2.4 -0.3c0.68,-0.45 1.58,-0.3 2.1,0.38 0.38,0.6 0.53,1.28 0.45,2.03l-2.4 0c0.08,0.45 0.23,0.98 0.83,0.98 0.38,0 0.45,-0.38 0.6,-0.6l0.98 0.15c-0.15,0.45 -0.37,0.83 -0.75,1.05 -0.68,0.38 -1.5,0.22 -2.1,-0.3 -0.45,-0.6 -0.6,-1.35 -0.53,-2.1 0,-0.6 0.3,-1.2 0.83,-1.58l0 0zm0.15 1.58l1.43 0c-0.07,-0.38 -0.22,-0.9 -0.68,-0.98 -0.45,-0.07 -0.75,0.53 -0.75,0.98l0 0zm-7.51 -1.73l0.98 0c0,0.9 0,1.88 0,2.78 0.07,0.23 0.15,0.45 0.22,0.6 0.38,0.15 0.83,0 0.98,-0.38 0,0 0,-0.08 0,-0.08 0.08,-0.98 0.08,-1.95 0.08,-2.93l0.98 0c0,1.43 0,2.85 0,4.28l-0.9 0 0 -0.53c-0.38,0.53 -0.98,0.75 -1.58,0.53 -0.53,-0.22 -0.83,-0.75 -0.75,-1.28 0.08,-1.05 0.08,-2.03 0,-3l0 0zm-110.15 2.93c0.83,0 1.73,0 2.63,0 0,1.43 0,2.85 0,4.28 0,0.9 0,1.73 0.15,2.55 0.08,0.3 0.15,0.53 0.38,0.75 0.98,0.68 2.33,0.38 2.93,-0.6 0,0 0.08,-0.07 0.08,-0.07 0.15,-0.38 0.15,-0.83 0.15,-1.2 0,-1.88 0,-3.75 0,-5.71l2.55 0c0,1.5 0,3 0,4.51 0,1.73 0,3.45 0,5.18 -0.83,0.08 -1.65,0.08 -2.48,0.08 0,-0.45 0,-0.9 0,-1.35 -0.45,0.53 -0.98,0.98 -1.65,1.28 -1.35,0.6 -2.93,0.38 -4.05,-0.68 -0.6,-0.9 -0.83,-1.95 -0.75,-3 0,-1.95 0,-3.98 0,-5.93l0.08 -0.08zm17.8 0.08c0.9,-0.08 1.73,0 2.55,0l0 9.69c-0.83,0 -1.73,0 -2.55,0 0,-3.23 0,-6.46 0,-9.69l0 0zm50.61 5.48l0.98 0c0,0.68 0,1.35 0,2.1 0.38,-0.45 0.98,-0.6 1.5,-0.45 0.45,0.23 0.75,0.68 0.75,1.2 0,1.05 0,2.1 0,3.08l-0.9 0c0,-0.9 0,-1.8 0,-2.7 0,-0.3 -0.08,-0.68 -0.45,-0.75 -0.45,-0.15 -0.83,0.3 -0.83,0.75 -0.07,0.9 0,1.8 0,2.7l-0.98 0c0,-2.03 0,-3.98 -0.07,-5.93l0 0zm50.46 0l0.98 0c0,1.95 0,3.98 0,5.93l-0.9 0c0,-0.15 0,-0.38 0,-0.53 -0.23,0.3 -0.6,0.53 -0.98,0.6 -0.6,0 -1.2,-0.37 -1.43,-0.98 -0.3,-0.75 -0.38,-1.58 -0.15,-2.33 0.15,-0.68 0.68,-1.13 1.35,-1.2 0.37,0 0.75,0.15 1.05,0.45 -0,-0.6 -0,-1.28 0.07,-1.95l0 0zm-1.2 2.55c-0.38,0.53 -0.53,1.2 -0.3,1.8 0.07,0.38 0.38,0.83 0.83,0.68 0.45,-0.15 0.6,-0.68 0.6,-1.13 0.07,-0.45 -0.08,-0.98 -0.38,-1.35 -0.23,-0.15 -0.53,-0.15 -0.75,0l0 0zm-61.57 -2.55l3.9 0 0 1.05 -1.5 0c0,1.65 0,3.3 0,4.88l-0.98 0c0,-1.65 0,-3.3 0,-4.88 -0.45,0 -0.98,0 -1.5,0 0,-0.37 0,-0.68 0.07,-1.05l0 0zm24.63 0l0.98 0c0,1.95 0,3.98 0,5.93l-0.98 0 0 -5.93 0 0zm28.53 0l1.05 0c0.68,1.95 1.35,3.98 1.95,5.93 -0.38,0 -0.75,0 -1.13,0 -0.15,-0.45 -0.3,-0.9 -0.45,-1.35l-1.95 0 -0.38 1.35 -1.13 0c0.68,-1.95 1.35,-3.98 2.03,-5.93l0 0zm0.45 1.5c-0.23,0.68 -0.45,1.35 -0.6,2.1l1.28 0c-0.23,-0.68 -0.38,-1.43 -0.68,-2.1l0 0zm-48.81 0.53c0.53,-0.6 1.5,-0.68 2.1,-0.15 0.07,0.07 0.07,0.07 0.15,0.15 0.45,0.6 0.68,1.35 0.6,2.1l-2.4 0c0.07,0.45 0.23,0.98 0.75,1.05 0.38,0 0.53,-0.38 0.6,-0.6l0.98 0.15c-0.07,0.38 -0.3,0.68 -0.6,0.98 -0.75,0.6 -1.8,0.45 -2.33,-0.3 -0.22,-0.3 -0.38,-0.68 -0.38,-1.05 -0.07,-0.75 0.07,-1.58 0.53,-2.33l0 0zm0.45 1.43l1.43 0c-0.07,-0.38 -0.22,-0.9 -0.68,-0.98 -0.45,-0.07 -0.68,0.53 -0.75,0.98l0 0zm3.45 -1.35c0.53,-0.53 1.35,-0.68 2.03,-0.37 0.45,0.22 0.75,0.68 0.9,1.2 -0.3,0.07 -0.6,0.15 -0.98,0.23 -0.07,-0.3 -0.22,-0.68 -0.6,-0.68 -0.38,0 -0.68,0.3 -0.75,0.6 -0.07,0.53 -0.07,1.05 0.08,1.5 0.07,0.38 0.45,0.53 0.83,0.45 0,0 0,0 0.08,0 0.3,-0.15 0.37,-0.53 0.45,-0.75l0.98 0.23c-0.08,0.6 -0.45,1.13 -0.98,1.43 -0.6,0.22 -1.28,0.15 -1.8,-0.23 -0.45,-0.45 -0.68,-0.98 -0.68,-1.58 -0.15,-0.75 0.07,-1.5 0.45,-2.03l0 0zm8.64 0.07c0.3,-0.45 0.83,-0.68 1.43,-0.6 0.6,0.07 0.98,0.6 0.98,1.2 0.08,1.05 0,2.18 0,3.23l-0.98 0c0,-0.83 0,-1.73 0,-2.55 0,-0.3 -0.07,-0.75 -0.45,-0.9 -0.38,-0.15 -0.83,0.3 -0.83,0.75 -0.08,0.9 0,1.8 0,2.7l-1.05 0 0 -4.36 0.9 0c0,0.08 0,0.38 0,0.53l0 0zm4.36 -0.6c0.68,-0.22 1.5,0 1.95,0.6 0.68,0.98 0.6,2.33 -0.15,3.3 -0.68,0.68 -1.8,0.68 -2.48,0 0,0 -0.07,-0.08 -0.07,-0.15 -0.38,-0.6 -0.6,-1.35 -0.45,-2.03 -0.07,-0.75 0.45,-1.43 1.2,-1.73l0 0zm0.23 0.98c-0.45,0.38 -0.68,0.98 -0.53,1.5 0,0.45 0.3,0.9 0.83,0.98 0.38,0 0.75,-0.3 0.83,-0.68 0.15,-0.53 0.07,-1.05 -0.15,-1.5 -0.23,-0.3 -0.6,-0.45 -0.98,-0.3l0 0zm5.78 -0.98c0.68,-0.22 1.5,0 1.95,0.6 0.68,0.98 0.68,2.33 -0.15,3.3 -0.68,0.68 -1.8,0.68 -2.48,0 0,0 -0.08,-0.08 -0.08,-0.08 -0.38,-0.6 -0.6,-1.35 -0.45,-2.03 -0.07,-0.83 0.45,-1.5 1.2,-1.8l0 0zm0.22 0.98c-0.6,0.38 -0.6,1.2 -0.45,1.8 0.07,0.45 0.6,0.9 1.05,0.68 0.53,-0.45 0.68,-1.13 0.45,-1.8 -0.07,-0.45 -0.45,-0.75 -0.9,-0.68 0,-0.07 -0.07,0 -0.15,0l0 0zm2.78 0.07c0.15,-0.6 0.75,-1.05 1.35,-1.13 0.45,0 0.83,0.23 1.05,0.53l0 -0.45 0.9 0c0,1.35 0,2.7 0,4.06 0.07,0.6 -0.15,1.2 -0.53,1.73 -0.6,0.38 -1.35,0.45 -2.03,0.15 -0.53,-0.23 -0.9,-0.75 -0.83,-1.35l1.05 0.15c0.15,0.38 0.6,0.6 0.98,0.45 0.08,0 0.08,0 0.15,-0.07 0.37,-0.3 0.22,-0.9 0.3,-1.35 -0.3,0.38 -0.68,0.6 -1.2,0.6 -0.6,-0.07 -1.05,-0.53 -1.2,-1.13 -0.22,-0.75 -0.22,-1.5 0,-2.18l0 0zm1.28 -0.07c-0.38,0.45 -0.53,1.05 -0.38,1.65 0,0.45 0.53,0.98 0.98,0.68 0.53,-0.45 0.68,-1.2 0.45,-1.8 -0.07,-0.45 -0.6,-0.83 -1.05,-0.53l0 0zm25.46 -0.38c0.22,-0.37 0.68,-0.6 1.13,-0.68 0.6,-0.07 1.2,0.38 1.2,1.05 0,0 0,0 0,0 0.08,1.13 0,2.25 0,3.38l-0.98 0c0,-0.98 0,-1.95 0,-2.85 0,-0.38 -0.45,-0.75 -0.83,-0.6 -0.3,0.15 -0.45,0.53 -0.45,0.9 -0.08,0.83 0,1.73 0,2.55l-0.98 0 0 -4.28 0.83 0c0,0.15 0,0.3 0.08,0.53l0 0zm-23.05 -0.6l1.05 0c0.3,0.98 0.53,1.95 0.83,2.93 0.3,-0.98 0.53,-1.95 0.83,-2.93l0.98 0c-0.45,1.65 -0.98,3.23 -1.5,4.81 -0.07,0.45 -0.38,0.83 -0.75,1.05 -0.37,0.15 -0.75,0.15 -1.13,0.08 -0.07,-0.3 -0.07,-0.6 -0.07,-0.9 0.45,0.15 0.9,-0.08 1.05,-0.53 0.07,-0.15 0.07,-0.3 0,-0.38 -0.37,-1.35 -0.83,-2.7 -1.28,-4.13l0 0zm-33.26 8.56c0.68,-0.3 1.5,-0.23 2.18,0.15 0.45,0.38 0.68,0.9 0.68,1.5 -0.3,0 -0.68,0.08 -0.98,0.08 -0.07,-0.3 -0.15,-0.68 -0.53,-0.75 -0.38,-0.15 -0.83,-0.07 -1.13,0.23 -0.23,0.22 -0.07,0.53 0.07,0.68 0.75,0.45 1.65,0.38 2.25,1.05 0.75,0.9 0.45,2.63 -0.75,3 -0.75,0.23 -1.58,0.15 -2.18,-0.3 -0.45,-0.45 -0.68,-0.98 -0.68,-1.58 0.3,-0.07 0.68,-0.07 0.98,-0.15 0.07,0.38 0.22,0.68 0.53,0.98 0.45,0.3 1.05,0.23 1.43,-0.22 0,0 0,-0.07 0.07,-0.07 0.15,-0.3 0.07,-0.68 -0.23,-0.9 0,0 0,0 0,0 -0.68,-0.15 -1.28,-0.45 -1.88,-0.75 -0.75,-0.6 -0.83,-1.73 -0.22,-2.48 0.07,-0.15 0.22,-0.3 0.38,-0.45l0 0zm14.34 0l0.98 0c0,0.38 0,0.75 0,1.05l-0.98 0c0,-0.38 0,-0.75 0,-1.05l0 0zm24.63 0l0.98 0c0,1.65 0,3.23 0,4.88 0.83,0 1.65,0 2.48,0 0,0.3 0,0.68 0,0.98l-3.45 0 0 -5.86 0 0zm4.13 0l0.98 0c0,0.38 0,0.75 0,1.05l-0.98 0c0,-0.38 0,-0.75 0,-1.05l0 0zm8.03 0l0.98 0c0,0.38 0,0.75 0,1.05l-0.98 0c0.07,-0.38 0.07,-0.75 0,-1.05l0 0zm10.36 0l0.98 0 0 5.93 -0.9 0c0,-0.15 0,-0.38 0,-0.45 -0.3,0.3 -0.68,0.53 -1.05,0.6 -0.68,-0.07 -1.28,-0.53 -1.43,-1.2 -0.22,-0.68 -0.22,-1.43 0,-2.18 0.15,-0.6 0.68,-1.05 1.35,-1.13 0.38,0 0.75,0.23 1.05,0.45 0,-0.75 0,-1.35 0,-2.03l0 0zm-1.05 2.48c-0.38,0.23 -0.6,0.68 -0.53,1.13 -0.07,0.53 0.07,1.05 0.45,1.43 0.3,0.23 0.75,0.08 0.9,-0.22 0,-0.07 0.07,-0.07 0.07,-0.15 0.15,-0.53 0.15,-1.13 0,-1.65 -0.15,-0.45 -0.53,-0.68 -0.9,-0.53 0,0 0,0 0,0l0 0zm-7.43 -1.73c0.3,-0.23 0.68,-0.45 0.98,-0.68l0 1.5 0.68 0 0 0.9 -0.68 0c0,0.75 -0.07,1.58 0.07,2.33 0.07,0.3 0.38,0.15 0.6,0.07l0.08 0.9c-0.45,0.07 -0.98,0.3 -1.35,-0.07 -0.3,-0.23 -0.3,-0.6 -0.3,-0.9 0,-0.75 0,-1.58 0,-2.33l-0.53 0 0 -0.9 0.45 0c0,-0.3 0,-0.53 0,-0.83l0 0zm-48.81 1.13c0.6,-0.6 1.58,-0.53 2.18,0.07 0,0 0.07,0.08 0.07,0.08 0.38,0.6 0.53,1.28 0.45,2.03 -0.83,0 -1.58,0 -2.4,0 0.07,0.38 0.23,0.98 0.75,0.98 0.38,0.07 0.53,-0.3 0.68,-0.6l0.9 0.22c-0.15,0.53 -0.45,0.9 -0.9,1.13 -0.68,0.3 -1.43,0.15 -1.95,-0.38 -0.38,-0.53 -0.6,-1.13 -0.53,-1.8 0.07,-0.6 0.3,-1.2 0.75,-1.73l0 0zm0.38 1.5l1.43 0c-0.07,-0.38 -0.22,-0.98 -0.75,-0.98 -0.53,0 -0.68,0.6 -0.75,0.98l0.07 0zm3 -1.73l0.9 0c0,0.15 0,0.38 0,0.45 0.15,-0.15 0.3,-0.3 0.45,-0.45 0.3,-0.15 0.6,0 0.83,0 0.38,0 0.75,0 1.13,0 0.3,0.98 0.6,1.88 0.83,2.85 0.3,-0.98 0.6,-1.88 0.83,-2.85l1.05 0c-0.45,1.43 -0.9,2.85 -1.43,4.28l-0.9 0c-0.45,-1.35 -0.9,-2.7 -1.35,-4.05 -0.15,0.3 -0.22,0.6 -0.3,0.9l-0.45 -0.23c-0.3,0.07 -0.6,0.38 -0.6,0.75 -0.07,0.9 -0.07,1.73 -0.07,2.63l-0.83 0c0,-1.43 0,-2.85 0,-4.28l-0.08 0zm6.76 0l0.98 0c0,1.43 0,2.85 0,4.28l-0.98 0c0,-1.43 0,-2.85 0,-4.28l0 0zm2.25 0.38c0.53,-0.53 1.35,-0.6 2.03,-0.22 0.38,0.3 0.68,0.68 0.75,1.2l-0.98 0.23c-0.07,-0.23 -0.15,-0.53 -0.38,-0.6 -0.38,-0.15 -0.75,0 -0.9,0.38 0,0.07 0,0.07 -0.07,0.15 -0.15,0.53 -0.15,1.13 0.07,1.65 0.15,0.38 0.53,0.53 0.83,0.38 0.07,0 0.07,-0.08 0.15,-0.08 0.15,-0.22 0.23,-0.45 0.3,-0.68l0.9 0.23c-0.07,0.53 -0.37,0.98 -0.75,1.35 -0.68,0.45 -1.65,0.3 -2.18,-0.3 -0.38,-0.53 -0.53,-1.2 -0.45,-1.88 0.08,-0.83 0.23,-1.43 0.68,-1.8l0 0zm3.83 -0.07c0.6,-0.6 1.58,-0.53 2.1,0.07 0.08,0.07 0.08,0.07 0.15,0.15 0.37,0.6 0.53,1.28 0.45,2.03 -0.83,0 -1.58,0 -2.4,0 0.07,0.38 0.22,0.98 0.75,0.98 0.38,0.07 0.53,-0.38 0.68,-0.6l0.98 0.22c-0.15,0.53 -0.45,0.9 -0.9,1.13 -0.68,0.3 -1.43,0.15 -1.95,-0.37 -0.38,-0.53 -0.53,-1.13 -0.53,-1.8 0,-0.68 0.22,-1.35 0.68,-1.8l0 0zm0.3 1.5l1.43 0c-0.08,-0.38 -0.23,-0.98 -0.68,-0.98 -0.45,0 -0.68,0.53 -0.75,0.98l0 0zm3.68 -1.73c0.53,-0.15 1.05,-0.15 1.58,0 0.45,0.22 0.75,0.6 0.83,1.05l-0.9 0.15c-0.15,-0.38 -0.6,-0.6 -1.05,-0.45 -0.15,0 -0.3,0.15 -0.3,0.3 0,0.07 0,0.15 0.07,0.15 0.6,0.3 1.43,0.3 1.95,0.83 0.45,0.6 0.38,1.5 -0.3,2.03 -0.15,0.07 -0.22,0.15 -0.37,0.22 -0.6,0.23 -1.28,0.15 -1.8,-0.22 -0.3,-0.3 -0.53,-0.6 -0.68,-1.05l0.98 -0.15c0.15,0.3 0.3,0.68 0.68,0.68 0.38,0 0.83,-0.15 0.75,-0.6 -0.53,-0.45 -1.35,-0.38 -1.88,-0.83 -0.53,-0.53 -0.45,-1.43 0.15,-1.88 0.15,-0.15 0.22,-0.22 0.3,-0.22l0 0zm18.7 -0.08l0.98 0 0 4.28 -0.98 0c0,-1.43 0,-2.85 0,-4.28l0 0zm1.73 0l0.9 0 0 0.45c0.3,-0.37 0.83,-0.6 1.35,-0.53 0.3,0.08 0.6,0.3 0.75,0.6 0.3,-0.38 0.75,-0.6 1.2,-0.6 0.6,0.08 1.05,0.6 1.05,1.2 0.07,1.05 0,2.1 0,3.15l-0.98 0c0,-0.9 0,-1.8 0,-2.78 0,-0.3 -0.08,-0.6 -0.3,-0.75 -0.22,0 -0.38,0.07 -0.6,0.15 -0.45,1.05 -0.15,2.25 -0.23,3.3l-0.98 0c0,-0.9 0,-1.8 0,-2.78 0,-0.3 -0.07,-0.75 -0.45,-0.75 -0.38,0 -0.68,0.45 -0.68,0.83 -0.08,0.9 0,1.73 0,2.63l-0.98 0c0,-1.28 0,-2.7 -0.07,-4.13l0 0zm6.31 0l0.98 0c0,1.43 0,2.85 0,4.28l-0.98 0c0,-1.43 0,-2.85 0,-4.28l0 0zm4.5 0.3c0.68,-0.6 1.65,-0.53 2.18,0.15 0,0 0.07,0.07 0.07,0.07 0.38,0.6 0.53,1.28 0.45,2.03 -0.83,0 -1.58,0 -2.4,0 0.07,0.38 0.22,0.98 0.75,0.98 0.38,0.07 0.45,-0.38 0.68,-0.6 0.3,0 0.6,0.07 0.9,0.15 -0.15,0.53 -0.45,0.9 -0.9,1.13 -0.68,0.3 -1.43,0.15 -1.95,-0.38 -0.38,-0.53 -0.6,-1.13 -0.53,-1.8 0.07,-0.6 0.3,-1.28 0.75,-1.73l0 0zm0.3 1.43l1.43 0c-0.07,-0.38 -0.23,-0.98 -0.68,-0.98 -0.45,0 -0.68,0.6 -0.75,0.98l0 0z"/>
    </g>
    <rect class="fil4" x="7.72" y="29.55" width="147.25" height="62.92"/>
   </g>
  </g>
 </g>
</svg>
