<?xml version="1.0" encoding="UTF-8"?>
<!DOCTYPE svg PUBLIC "-//W3C//DTD SVG 1.1//EN" "http://www.w3.org/Graphics/SVG/1.1/DTD/svg11.dtd">
<!-- Creator: CorelDRAW -->
<svg xmlns="http://www.w3.org/2000/svg" xml:space="preserve" version="1.1" style="shape-rendering:geometricPrecision; text-rendering:geometricPrecision; image-rendering:optimizeQuality; fill-rule:evenodd; clip-rule:evenodd"
viewBox="0 0 175.31 131.48"
 xmlns:xlink="http://www.w3.org/1999/xlink"
 xmlns:xodm="http://www.corel.com/coreldraw/odm/2003">
 <defs>
  <style type="text/css">
   <![CDATA[
    .fil0 {fill:none}
    .fil1 {fill:#1F637B}
    .fil3 {fill:#B23B3F}
    .fil2 {fill:#F89F39}
    .fil4 {fill:#FEFEFE}
   ]]>
  </style>
 </defs>
 <g id="Layer_x0020_1">
  <metadata id="CorelCorpID_0Corel-Layer"/>
  <g id="_2643525867904">
   <g>
    <g>
     <rect class="fil0" x="-0" y="-0" width="175.31" height="131.48"/>
    </g>
   </g>
   <g>
    <polygon class="fil1" points="36.01,81.53 41.49,81.53 45.78,65.5 40.31,65.5 "/>
    <polygon class="fil1" points="64.14,81.53 69.62,81.53 73.91,65.5 68.44,65.5 "/>
    <polygon class="fil1" points="92.27,81.53 97.75,81.53 102.04,65.5 96.57,65.5 "/>
    <path class="fil1" d="M59.05 70.99l5.48 0c0.73,-3.6 -1.6,-5.46 -6.97,-5.46 -6.21,0 -10.44,3.04 -11.85,8.33 -1.28,4.79 1.26,7.71 7.1,7.71 5.91,0 9.4,-1.84 10.89,-5.96l-5.5 0c-0.77,1.81 -2.21,2.76 -4.15,2.76 -2.65,0 -3.69,-1.68 -2.88,-4.72 0.85,-3.17 2.85,-4.92 5.53,-4.92 1.68,0 2.47,0.76 2.35,2.27z"/>
    <path class="fil1" d="M87.18 70.99l5.48 0c0.73,-3.6 -1.6,-5.46 -6.97,-5.46 -6.21,0 -10.44,3.04 -11.85,8.33 -1.28,4.79 1.26,7.71 7.1,7.71 5.91,0 9.4,-1.84 10.89,-5.96l-5.5 0c-0.77,1.81 -2.21,2.76 -4.15,2.76 -2.65,0 -3.69,-1.68 -2.88,-4.72 0.85,-3.17 2.85,-4.92 5.53,-4.92 1.68,0 2.47,0.76 2.35,2.27z"/>
    <path class="fil2" d="M14.86 56.61c7.34,-7.27 16.2,-9.15 19.74,-4.18 3.54,4.97 0.44,14.95 -6.9,22.22 -7.34,7.27 -16.21,9.15 -19.74,4.18 -3.54,-4.97 -0.44,-14.95 6.9,-22.22z"/>
    <path class="fil3" d="M19.72 52.74c-0.79,0.59 -1.63,1.29 -2.42,2.08 -6.43,6.33 -9.1,15.03 -5.93,19.38 3.26,4.35 11.17,2.77 17.7,-3.66 3.51,-3.41 5.88,-7.42 6.87,-11.13 0.3,-2.72 -0.1,-5.14 -1.34,-6.97 -2.82,-3.86 -8.85,-3.56 -14.88,0.3z"/>
    <path class="fil4" d="M28.52 52.51c0.86,0.85 0.33,2.73 -1.12,4.2 -1.47,1.46 -3.38,1.98 -4.21,1.14 -0.88,-0.84 -0.36,-2.74 1.11,-4.22 1.48,-1.48 3.39,-1.94 4.22,-1.11zm-5.17 25.73c-3.43,2.58 -6.98,3.86 -10.44,3.32 1.45,0.07 2.63,-1.54 3.59,-3.7 0.98,-2.22 1.56,-4.28 2.03,-6.2 0.68,-3.05 0.74,-5.23 0.39,-5.69 -0.59,-0.78 -1.92,-0.57 -3.43,0.29 -0.72,0.4 -1.68,0.13 -0.55,-1.24 1.15,-1.39 5.72,-4.73 7.36,-5.25 1.8,-0.52 3.86,0.19 3.17,2.16 -0.49,1.44 -6.82,18.03 -2.11,16.31z"/>
    <path class="fil1" d="M106.13 81.56l8.21 0c2.34,0 4.08,-0.18 5.74,-1.34 1.12,-0.76 1.94,-1.91 2.28,-3.18 0.59,-2.2 -0.42,-3.67 -2.93,-4.03 2.37,-0.44 3.86,-1.69 4.37,-3.58 0.39,-1.47 0.07,-2.51 -0.98,-3.23 -0.87,-0.58 -2.29,-0.67 -4.23,-0.67l-8.17 0 -4.29 16.03zm7.09 -13.58l3.41 0c2.56,0 3.75,0.31 3.32,1.91 -0.43,1.6 -1.81,2 -4.45,2l-3.32 0 1.05 -3.92zm-2.95 11.02l1.25 -4.67 3.58 0c2.76,0 3.99,0.49 3.48,2.38 -0.46,1.74 -1.82,2.29 -4.31,2.29l-4.01 0z"/>
    <path class="fil1" d="M131.4 81.56l3.3 0c0.09,-0.76 0.27,-1.58 0.51,-2.49l1.2 -4.47c0.79,-2.96 -0.67,-4.47 -4.39,-4.47 -3.58,0 -5.92,1.25 -6.64,3.34l3.16 0c0.41,-1.05 1.32,-1.54 2.84,-1.54 1.69,0 2.29,0.76 1.86,2.38l-0.05 0.2 -1.74 0c-4.9,0 -7.54,0.89 -8.3,3.72 -0.58,2.18 0.79,3.61 3.71,3.61 1.89,0 3.55,-0.63 4.87,-1.81l-0.32 1.54zm1.27 -5.17l-0.05 0.2c-0.55,2.07 -2.22,3.32 -4.27,3.32 -1.49,0 -2.12,-0.58 -1.83,-1.65 0.39,-1.47 1.68,-1.87 4.06,-1.87l2.09 0z"/>
    <path class="fil1" d="M137.54 81.56l3.32 0 1.53 -5.72c0.55,-2.07 2.46,-3.52 4.44,-3.52 1.94,0 2.61,1.14 2,3.41l-1.56 5.83 3.25 0 1.84 -6.86c0.77,-2.89 -0.69,-4.56 -3.92,-4.56 -2.09,0 -3.8,0.71 -5.23,2.23l0.4 -1.98 -3.27 0c-0.34,1.76 -0.56,2.85 -0.68,3.27l-2.12 7.9z"/>
    <polygon class="fil1" points="153.44,81.56 156.67,81.56 158.28,75.52 162.63,81.56 167.06,81.56 162.16,75.17 168.81,70.38 164.65,70.38 158.45,74.88 160.96,65.53 157.73,65.53 "/>
   </g>
  </g>
 </g>
</svg>
