<?xml version="1.0" encoding="UTF-8"?>
<!DOCTYPE svg PUBLIC "-//W3C//DTD SVG 1.1//EN" "http://www.w3.org/Graphics/SVG/1.1/DTD/svg11.dtd">
<!-- Creator: CorelDRAW -->
<svg xmlns="http://www.w3.org/2000/svg" xml:space="preserve" version="1.1" style="shape-rendering:geometricPrecision; text-rendering:geometricPrecision; image-rendering:optimizeQuality; fill-rule:evenodd; clip-rule:evenodd"
viewBox="0 0 71.19 53.39"
 xmlns:xlink="http://www.w3.org/1999/xlink"
 xmlns:xodm="http://www.corel.com/coreldraw/odm/2003">
 <defs>
  <style type="text/css">
   <![CDATA[
    .fil0 {fill:none}
    .fil1 {fill:#00B6F0}
    .fil2 {fill:#271E79}
   ]]>
  </style>
 </defs>
 <g id="Layer_x0020_1">
  <metadata id="CorelCorpID_0Corel-Layer"/>
  <g id="_2644702786160">
   <g>
    <g>
     <g>
      <rect class="fil0" x="0" y="-0" width="71.19" height="53.39"/>
     </g>
    </g>
   </g>
   <g>
    <path class="fil1" d="M27.2 26.6c0,-5.11 -4.14,-9.25 -9.25,-9.25 -5.11,0 -9.25,4.14 -9.25,9.25 0,4.92 3.79,8.94 8.63,9.25l0 -7.16c-0.89,-0.27 -1.55,-1.08 -1.55,-2.09 0,-1.16 0.97,-2.13 2.17,-2.13 1.2,0 2.17,0.97 2.17,2.13 0,1.01 -0.66,1.82 -1.59,2.09l0 7.16c4.84,-0.31 8.67,-4.34 8.67,-9.25l0 0z"/>
    <path class="fil2" d="M40.32 22.74c0.56,-1.12 1.12,-2.24 1.68,-3.37 -3.19,-2.98 -9.24,-2.85 -11.21,1.42 -0.53,1.14 -0.51,2.4 -0.01,3.72 0.24,0.64 0.68,1.44 1.37,2.01 0.35,0.29 1.71,0.96 2.81,1.46 1.03,0.47 2.44,0.8 3.09,1.72 0.74,1.05 0.28,2.34 -1.44,2.58 -0.96,0.13 -2.4,-0.27 -4.54,-2 -0.75,0.99 -1.51,1.97 -2.26,2.96 7.2,6.28 13.84,0.78 12.28,-4.1 -0.4,-1.24 -1.21,-2.19 -2.22,-2.92 -1.56,-1.13 -3.19,-1.43 -4.27,-1.9 -2.04,-0.89 -1.75,-3.38 1.07,-3.23 1.79,0.1 2.36,0.61 3.63,1.66z"/>
    <path class="fil2" d="M43.96 17.34l6.98 0c2.35,0 5.1,2.04 5.1,4.47 0,0.56 0.04,0.98 0,1.64 -0.08,1.29 -1.27,2.74 -2.04,2.74 1.19,0 2.39,1.71 2.68,2.9 0.71,2.88 -0.8,6.98 -5.74,6.98l-6.98 0 0 -18.72zm3.74 3.42l2.74 0c1.03,0 1.87,0.87 1.87,1.94l0 0.28c0,0.91 -0.72,1.66 -1.6,1.66l-1.13 0 0 3.46 1.32 0c1.19,0 2.17,1.01 2.17,2.25l0 0c0,1.24 -0.98,2.25 -2.17,2.25l-3.2 0c0,-3.95 0,-7.9 0,-11.84z"/>
    <polygon class="fil2" points="58.55,17.34 62.49,17.34 62.49,36.06 58.55,36.06 "/>
   </g>
  </g>
 </g>
</svg>
