<?xml version="1.0" encoding="UTF-8"?>
<!DOCTYPE svg PUBLIC "-//W3C//DTD SVG 1.1//EN" "http://www.w3.org/Graphics/SVG/1.1/DTD/svg11.dtd">
<!-- Creator: CorelDRAW -->
<svg xmlns="http://www.w3.org/2000/svg" xml:space="preserve" version="1.1" style="shape-rendering:geometricPrecision; text-rendering:geometricPrecision; image-rendering:optimizeQuality; fill-rule:evenodd; clip-rule:evenodd"
viewBox="0 0 570.16 427.62"
 xmlns:xlink="http://www.w3.org/1999/xlink"
 xmlns:xodm="http://www.corel.com/coreldraw/odm/2003">
 <defs>
  <style type="text/css">
   <![CDATA[
    .fil0 {fill:none}
    .fil1 {fill:#F05B3A}
   ]]>
  </style>
 </defs>
 <g id="Layer_x0020_1">
  <metadata id="CorelCorpID_0Corel-Layer"/>
  <g id="_2643620255232">
   <g>
    <g>
     <rect class="fil0" x="-0" y="-0" width="570.16" height="427.62"/>
    </g>
   </g>
   <g>
    <path class="fil1" d="M82.05 274.19c-14.55,9.94 -32.45,11.3 -32.89,-14.98 -0.17,-10.12 1.46,-18.44 8.43,-22.06 6.44,-3.34 18.88,-1.66 24.52,1.49l-0.05 35.54zm-52.93 2.3c1.68,4.16 2.41,5.6 5.19,8.65 11.79,12.93 35.64,14.64 48.77,3.71 0.12,0.15 0.23,0.23 0.27,0.51 0.04,0.28 0.2,0.39 0.25,0.51 1.01,2.56 0.3,2.45 1.63,3.85 2.23,2.34 17.41,1.32 18.5,0.06 1.54,-3.92 1.44,-97.93 0.03,-101.68 -3.28,-1.77 -17.77,-1.98 -21.08,0.2 -1.46,5.22 -0.42,23.84 -0.62,30.69 -3.23,0.13 -36.36,-12.39 -50.73,12.09 -8.37,14.26 -6.6,27.23 -2.2,41.41z"/>
    <path class="fil1" d="M238.71 295.84l18.31 0c5.05,0 2.04,-16.53 2.04,-24.21 0,-8.32 -0.33,-17.36 0.1,-25.59 1.69,-4.04 26.84,-20.66 31.4,0.7 1.25,5.87 0.7,29.35 0.68,38.02 -0.02,6.14 -0.89,7.58 2.34,11.07l18.06 0c3.6,-4.04 2.3,-8.35 2.3,-15.22 0,-14.9 1.82,-38.6 -5.25,-48.6 -8.1,-11.46 -24.95,-14.42 -38.62,-8.56 -2.18,0.93 -4.11,2.05 -5.71,3.32 -2.2,1.75 -2.87,3.05 -5.3,3.2 -0.02,-6.7 0.81,-25.79 -0.72,-30.54 -3.78,-1.2 -15.8,-1.42 -20.21,-0.25 -3.31,4.97 -1.54,16.5 -1.54,23.33l0 49.8c0,7.19 -1.64,19.36 2.1,23.51z"/>
    <path class="fil1" d="M251.12 154.75c-28.5,8.29 -56.97,17.88 -84.52,28.9 -8.51,3.4 -18.92,8.46 -26.56,10.99 5.81,-1.18 12.96,-4.49 19.3,-6.51 67.34,-21.43 130.12,-37.03 201.05,-40.82 44.96,-2.4 77.38,2.84 119.74,14.95 6.59,1.88 13.07,5.88 19.27,7.87 2.4,-1.96 10.09,-10.79 11.56,-13.3 -47.46,-46.58 -207.19,-17.39 -259.84,-2.09z"/>
    <path class="fil1" d="M156.49 230.96c-3.84,5.97 -3.57,17.1 4.8,24 14.22,11.72 52.3,10.09 43.22,21.88 -3.99,5.17 -21.06,5.26 -26.68,1.01 -3.61,-2.73 -3.83,-5.19 -11.03,-5.26 -5.55,-0.06 -11.97,-1.59 -12.39,3.91 -1.85,24.35 59.63,24.12 70.72,7.86 5.45,-8.01 3.15,-19.82 -3.41,-24.8 -5.86,-4.46 -14.73,-7.8 -23.61,-9.56 -6.22,-1.23 -23.97,-3.52 -20.94,-11.51 2.47,-6.52 19.67,-6.25 25.51,-2.05 4.34,3.11 3.2,5.16 11.08,5.29 5.09,0.09 11.77,1.37 12.27,-4.03 2.09,-23.22 -57.63,-25.21 -69.52,-6.73z"/>
    <path class="fil1" d="M403.07 295.84l16.42 0c0.14,-0.12 0.38,-0.48 0.45,-0.35 0.07,0.13 0.34,-0.27 0.44,-0.34 9.46,-6.83 10.34,-11.81 17.05,-20.46l28.98 -41.58c1.18,-1.86 1.73,-2.46 3.22,-4.37 1.2,-1.53 2.16,-3.42 3.33,-4.98l25.25 -37.66c1.98,-3.02 4.06,-6.17 6.15,-9.07l9.4 -14.11c2.03,-3.26 7.95,-10.66 9.46,-14.15l-37.92 42.39c-1.42,1.63 -1.92,1.88 -3.32,3.6 -2.85,3.51 -6.92,7.04 -9.82,10.93l-31.51 36.28c-2.13,2.88 -3.67,4.12 -6.33,7.5 -1.18,1.5 -2.05,2.07 -3.29,3.61l-8.64 10.15c-1.11,1 0.13,0.16 -1.41,1.05 -0.17,-11.09 -0.09,-22.35 -0.03,-33.46 0.03,-6.44 0.83,-9.53 -6.6,-9.57 -5.03,-0.02 -11.28,-0.15 -15.36,0.98 -1.34,7.86 -0.45,45.37 -0.48,58.4 -0.02,12.28 -0.82,12.31 4.54,15.22z"/>
    <path class="fil1" d="M337.91 223.66c-3.52,1.05 -7.82,-0.67 -9,3.3 -0.69,2.32 -0.15,9.54 0.3,11.65 2.95,1.42 4.62,1.01 8.68,1.02 0.41,25.43 -5.05,53.33 25.24,55.76 7.74,0.62 19.44,0.04 25.06,-2.8l0.34 -12.24c-17.17,-6.31 -30.54,16.27 -27.79,-40.23 6.61,-2.01 16.58,1.75 22.11,-1.4 1.54,-3.28 1.08,-11.03 -0.26,-14.06 -5,-0.3 -18.64,-0.06 -21.87,-1.01 -0.17,-6.28 0.81,-20.87 -0.72,-25.51 -1.67,-0.48 -20.33,-3.01 -21.86,1.64 -0.64,1.96 -0.24,20.33 -0.23,23.89z"/>
    <path class="fil1" d="M123.98 295.84l17.78 0c3.93,-4 2.54,-9.3 2.54,-15.91 0,-10.79 0.75,-50.43 -0.74,-55.6 -3.88,-1.14 -17.47,-1.18 -21.26,0.07 -1.57,5.61 -0.7,51.13 -0.78,63.84 -0.03,4.65 -0.14,5.47 2.47,7.59z"/>
    <path class="fil1" d="M527.73 169.32c-2.25,-2.66 -5.45,-6.48 -9.26,-7.75 -1.72,4.03 -6.93,10.41 -9.71,14.63 0.82,1.14 7.86,7.87 10.64,11.82 2.97,4.22 5.82,9.09 7.85,14.96 8.28,23.9 -6.06,49.75 -19.82,67 -4.01,5.04 -18.14,20.01 -22.28,22.87 5.41,-3.18 23.64,-17.67 27.52,-21.78 29.86,-31.6 46.67,-64.36 15.06,-101.75z"/>
    <path class="fil1" d="M121.78 218.4c4.77,1.54 17.5,1.11 22.47,0.17 0.4,-2.1 0.76,-11.6 0.3,-13.98 -0.8,-4.17 -7.24,-2.8 -11.68,-2.8 -4.36,0 -10.65,-1.35 -11.43,2.89 -0.44,2.42 -0.09,11.64 0.34,13.72z"/>
   </g>
  </g>
 </g>
</svg>
