<?xml version="1.0" encoding="UTF-8"?>
<!DOCTYPE svg PUBLIC "-//W3C//DTD SVG 1.1//EN" "http://www.w3.org/Graphics/SVG/1.1/DTD/svg11.dtd">
<!-- Creator: CorelDRAW -->
<svg xmlns="http://www.w3.org/2000/svg" xml:space="preserve" version="1.1" style="shape-rendering:geometricPrecision; text-rendering:geometricPrecision; image-rendering:optimizeQuality; fill-rule:evenodd; clip-rule:evenodd"
viewBox="0 0 99.04 74.28"
 xmlns:xlink="http://www.w3.org/1999/xlink"
 xmlns:xodm="http://www.corel.com/coreldraw/odm/2003">
 <defs>
  <style type="text/css">
   <![CDATA[
    .fil0 {fill:none}
    .fil1 {fill:#E20714;fill-rule:nonzero}
   ]]>
  </style>
 </defs>
 <g id="Layer_x0020_1">
  <metadata id="CorelCorpID_0Corel-Layer"/>
  <g id="_2641268344752">
   <g>
    <g>
     <g>
      <rect class="fil0" x="0" y="-0" width="99.04" height="74.28"/>
     </g>
    </g>
   </g>
   <g>
    <path class="fil1" d="M23.71 30.17c-1.05,-0.76 -2.32,-1.17 -3.62,-1.17 -0.09,0 -0.18,0 -0.27,0.01 -2.27,0 -4.72,0.87 -7.33,2.59l-0.07 0.05 0 -0 -0.26 0.17 -0.21 0.14c-0.52,0.36 -1.03,0.76 -1.51,1.18 -1.12,1.07 -2.36,2.85 -2.27,4.37 0.01,0.6 0.28,1.17 0.75,1.56 0.46,0.34 1.01,0.52 1.58,0.52 0.03,0 0.06,-0 0.09,-0 1.36,-0.12 2.66,-0.58 3.78,-1.35l0.19 -0.12 0.52 -0.35 0.17 -0.12c1.4,-1.03 2.93,-1.88 4.54,-2.52 0.37,-0.14 0.76,-0.22 1.15,-0.23 0.17,0 0.33,0.02 0.49,0.06 0.49,0.08 0.91,0.4 1.12,0.85 0.15,0.42 0.23,0.87 0.23,1.31 0,0.64 -0.16,1.28 -0.46,1.84 -0.87,1.76 -2.12,3.31 -3.65,4.54 -0.74,0.65 -1.54,1.22 -2.39,1.71l-0.07 -0c-0.36,0.21 -0.73,0.39 -1.12,0.54l-0.05 0c-0.1,0.04 -0.21,0.08 -0.32,0.11 -1.67,0.46 -0.65,-1.02 -0.65,-1.02 0.38,-0.4 0.79,-0.77 1.22,-1.12 0.23,-0.21 0.46,-0.43 0.7,-0.67l0.05 -0.05c0.4,-0.3 0.64,-0.77 0.67,-1.26 -0.13,-0.73 -0.76,-1.26 -1.49,-1.26 -0.01,0 -0.02,0 -0.02,0l-0.07 0c-0.66,0.05 -1.29,0.31 -1.79,0.75 -0.47,0.39 -0.88,0.84 -1.2,1.35 -0.47,0.7 -1.38,2.51 -0.47,3.94 0.37,0.55 0.98,0.88 1.64,0.88 0.05,0 0.11,-0 0.16,-0.01 0.71,-0.03 1.41,-0.18 2.07,-0.45 1.03,-0.39 2.02,-0.91 2.95,-1.51l0.24 -0.15c1,-0.63 1.95,-1.34 2.84,-2.12 1.88,-1.51 3.3,-3.54 4.08,-5.83 0.28,-0.79 0.42,-1.62 0.42,-2.45 0,-0.61 -0.08,-1.21 -0.22,-1.8 -0.36,-1.19 -1.11,-2.22 -2.14,-2.92l0 -0z"/>
    <path class="fil1" d="M90.31 45.07c-1.56,-0.12 -1.86,-0.8 -1.86,-1.95l0 -14.76 -3.8 0.65 0 13.88c0,3.29 1.79,4.7 4.78,4.7 0.48,-0.01 0.96,-0.07 1.44,-0.15l0 -2.35c-0.02,0 -0.05,0 -0.07,0 -0.16,0 -0.32,-0.01 -0.48,-0.02l0 0z"/>
    <path class="fil1" d="M76.55 35.14c1.67,0 1.91,1.81 1.91,2.93l-4.05 0c0.09,-1.45 0.66,-2.93 2.14,-2.93zm0.81 9.91c-0.06,0 -0.12,0.01 -0.18,0.01 -0.75,0 -1.47,-0.3 -2,-0.83 -0.67,-0.75 -0.98,-2.24 -0.89,-3.82l8.07 0 0 -0.37c-0.07,-5.3 -1.86,-7.7 -5.82,-7.7 -4.4,0 -6.12,4.06 -6.15,7.86 -0,0.1 -0.01,0.21 -0.01,0.31 0,2.24 0.94,4.39 2.59,5.91 1.09,0.84 2.44,1.3 3.82,1.3 0.06,0 0.12,-0 0.18,-0 0,-0 0.01,-0 0.02,-0 0.9,0 1.79,-0.13 2.65,-0.39 1,-0.31 1.95,-0.77 2.81,-1.36l-1.06 -2.18c-1.18,0.81 -2.59,1.26 -4.03,1.27l0 0z"/>
    <polygon class="fil1" points="46.04,47.42 49.79,47.42 49.79,32.5 46.04,33.11 "/>
    <path class="fil1" d="M66.61 28.38l-3.84 0.63 0 13.95c0,3.12 1.82,4.6 4.88,4.6 0.48,-0.01 0.96,-0.05 1.43,-0.14l0 -2.32 -0.54 0c-1.61,-0.05 -1.93,-0.95 -1.93,-1.97l-0 -7.88 2.48 0 0 -2.76 -2.48 0 0 -4.12z"/>
    <path class="fil1" d="M39.43 44.6c-0.56,0.32 -1.19,0.49 -1.83,0.49 -0.04,0 -0.08,-0 -0.11,-0 -1.51,0 -2.19,-1.16 -2.16,-2.51 0,-0.01 -0,-0.02 -0,-0.03 0,-1.3 1.05,-2.35 2.35,-2.35 0.09,0 0.17,0 0.26,0.01l1.51 0 -0.02 4.39zm-1.51 -12.37c-1.76,0.04 -3.5,0.49 -5.05,1.32l-0.42 0.22 1 2.27 0.57 -0.27c1.1,-0.54 2.31,-0.82 3.54,-0.82 1.35,0.05 1.92,0.68 1.92,1.98l0 0.75 -2.26 0c-3.57,0 -5.79,1.89 -5.85,4.85 0.04,2.89 2.4,5.22 5.3,5.22 0.02,0 0.05,-0 0.07,-0l0.2 0c0.11,0.01 0.23,0.01 0.34,0.01 2.21,0 4.34,-0.84 5.96,-2.35l0 -8.02c0,-3.88 -2.8,-5.15 -5.35,-5.15l0.03 -0z"/>
    <path class="fil1" d="M47.96 26.53c-0.01,0 -0.01,0 -0.02,0 -1.32,0 -2.39,1.06 -2.4,2.38l0 0c-0,0.03 -0,0.06 -0,0.09 0,1.32 1.07,2.38 2.38,2.38 1.32,0 2.38,-1.07 2.38,-2.38 0,-0.03 -0,-0.06 -0,-0.09 0,-0.01 0,-0.02 0,-0.03 0,-0.6 -0.23,-1.17 -0.65,-1.59 -0.44,-0.48 -1.05,-0.75 -1.69,-0.76l0 0z"/>
    <path class="fil1" d="M52.79 35.17l0 12.26 3.78 0 0 -11.56c0.73,-0.59 1.63,-0.92 2.57,-0.95 0.08,-0 0.17,-0.01 0.26,-0.01 0.42,0 0.85,0.06 1.26,0.17l1.05 -2.37c-0.76,-0.3 -1.57,-0.46 -2.38,-0.46 -0.05,0 -0.1,0 -0.14,0 -2.44,0.03 -4.77,1.09 -6.4,2.92l0 0z"/>
   </g>
  </g>
 </g>
</svg>
